<?xml version="1.0" encoding="UTF-8"?>
<svg version="1.1" xmlns="http://www.w3.org/2000/svg" width="1900" height="512">
<path d="M0 0 C10.89 0 21.78 0 33 0 C33 6.93 33 13.86 33 21 C36.63 21 40.26 21 44 21 C44 28.26 44 35.52 44 43 C47.63 43 51.26 43 55 43 C55 50.26 55 57.52 55 65 C58.63 65 62.26 65 66 65 C66 75.89 66 86.78 66 98 C69.63 98 73.26 98 77 98 C76.835 96.63875 76.67 95.2775 76.5 93.875 C75.60318337 84.2879039 75.92359858 74.61808943 76 65 C79.63 65 83.26 65 87 65 C87 43.55 87 22.1 87 0 C97.89 0 108.78 0 120 0 C120 18.15 120 36.3 120 55 C123.3 55 126.6 55 130 55 C129.98839844 53.42347656 129.97679687 51.84695312 129.96484375 50.22265625 C129.95546757 48.16927201 129.94636718 46.1158865 129.9375 44.0625 C129.92912109 43.02158203 129.92074219 41.98066406 129.91210938 40.90820312 C129.90888672 39.91884766 129.90566406 38.92949219 129.90234375 37.91015625 C129.89710693 36.99371338 129.89187012 36.07727051 129.88647461 35.13305664 C130 33 130 33 131 32 C134.33618231 31.85742811 137.65975606 31.95771843 141 32 C141 28.37 141 24.74 141 21 C144.63 21 148.26 21 152 21 C152 17.37 152 13.74 152 10 C155.63 10 159.26 10 163 10 C163 6.7 163 3.4 163 0 C192.04 0 221.08 0 251 0 C251 3.3 251 6.6 251 10 C254.63 10 258.26 10 262 10 C262 13.63 262 17.26 262 21 C265.63 21 269.26 21 273 21 C273 35.52 273 50.04 273 65 C298.08 65 323.16 65 349 65 C349 68.63 349 72.26 349 76 C355.93 76 362.86 76 370 76 C370 50.92 370 25.84 370 0 C402.67 0 435.34 0 469 0 C469 3.3 469 6.6 469 10 C472.63 10 476.26 10 480 10 C480 13.63 480 17.26 480 21 C483.3 21 486.6 21 490 21 C490 14.07 490 7.14 490 0 C501.22 0 512.44 0 524 0 C524 7.26 524 14.52 524 22 C527.3 22 530.6 22 534 22 C534 28.93 534 35.86 534 43 C537.3 43 540.6 43 544 43 C544 28.81 544 14.62 544 0 C558.85 0 573.7 0 589 0 C589 6.93 589 13.86 589 21 C592.63 21 596.26 21 600 21 C600 24.63 600 28.26 600 32 C603.63 32 607.26 32 611 32 C611 39.26 611 46.52 611 54 C614.63 54 618.26 54 622 54 C622 57.63 622 61.26 622 65 C625.3 65 628.6 65 632 65 C632 68.63 632 72.26 632 76 C635.3 76 638.6 76 642 76 C642 50.92 642 25.84 642 0 C653.22 0 664.44 0 676 0 C676 14.52 676 29.04 676 44 C682.93 44 689.86 44 697 44 C697 36.41 697 28.82 697 21 C693.7 21 690.4 21 687 21 C687 17.7 687 14.4 687 11 C690.3 11 693.6 11 697 11 C697 7.37 697 3.74 697 0 C707.89 0 718.78 0 730 0 C730 3.3 730 6.6 730 10 C733.63 10 737.26 10 741 10 C741 13.63 741 17.26 741 21 C744.63 21 748.26 21 752 21 C752 24.96 752 28.92 752 33 C755.63 33 759.26 33 763 33 C763 39.93 763 46.86 763 54 C766.63 54 770.26 54 774 54 C774 57.63 774 61.26 774 65 C777.63 65 781.26 65 785 65 C785 58.07 785 51.14 785 44 C788.3 44 791.6 44 795 44 C795 29.48 795 14.96 795 0 C806.22 0 817.44 0 829 0 C829 35.97 829 71.94 829 109 C832.3 109 835.6 109 839 109 C839 98.11 839 87.22 839 76 C842.3 76 845.6 76 849 76 C848.9690625 73.6178125 848.9690625 73.6178125 848.9375 71.1875 C848.92998569 65.40147987 849.40227006 59.75315072 850 54 C853.3 54 856.6 54 860 54 C859.9690625 51.5559375 859.9690625 51.5559375 859.9375 49.0625 C859.91613932 47.37500659 859.92794489 45.68608966 860 44 C860.33 43.67 860.66 43.34 861 43 C864.3 43 867.6 43 871 43 C871 36.07 871 29.14 871 22 C874.63 22 878.26 22 882 22 C882 18.04 882 14.08 882 10 C885.63 10 889.26 10 893 10 C893 6.7 893 3.4 893 0 C904.22 0 915.44 0 927 0 C927 6.93 927 13.86 927 21 C930.3 21 933.6 21 937 21 C937 31.89 937 42.78 937 54 C940.63 54 944.26 54 948 54 C948 61.26 948 68.52 948 76 C951.63 76 955.26 76 959 76 C959 68.74 959 61.48 959 54 C962.3 54 965.6 54 969 54 C969 46.74 969 39.48 969 32 C972.63 32 976.26 32 980 32 C980 28.37 980 24.74 980 21 C983.63 21 987.26 21 991 21 C991 17.37 991 13.74 991 10 C994.63 10 998.26 10 1002 10 C1002 6.7 1002 3.4 1002 0 C1031.04 0 1060.08 0 1090 0 C1090 3.3 1090 6.6 1090 10 C1093.63 10 1097.26 10 1101 10 C1101 13.63 1101 17.26 1101 21 C1104.63 21 1108.26 21 1112 21 C1112 32.22 1112 43.44 1112 55 C1115.3 55 1118.6 55 1122 55 C1122 36.85 1122 18.7 1122 0 C1132.89 0 1143.78 0 1155 0 C1155 35.97 1155 71.94 1155 109 C1180.08 109 1205.16 109 1231 109 C1231 73.03 1231 37.06 1231 0 C1270.6 0 1310.2 0 1351 0 C1351 10.89 1351 21.78 1351 33 C1322.29 33 1293.58 33 1264 33 C1264 36.3 1264 39.6 1264 43 C1264.88969482 42.99476318 1265.77938965 42.98952637 1266.69604492 42.98413086 C1283.82808495 42.89681835 1300.89342914 42.91016158 1318 44 C1318 47.3 1318 50.6 1318 54 C1328.89 54 1339.78 54 1351 54 C1351 64.89 1351 75.78 1351 87 C1344.47766508 87.59293954 1338.26851735 88.14831444 1331.7746582 88.11352539 C1331.03178055 88.11367142 1330.28890289 88.11381744 1329.52351379 88.1139679 C1327.11590448 88.11328214 1324.70837672 88.1055539 1322.30078125 88.09765625 C1320.61256452 88.0957873 1318.92434723 88.09436565 1317.23612976 88.09336853 C1312.82872984 88.08958091 1308.42136376 88.07978344 1304.01397705 88.06866455 C1299.50216123 88.05836895 1294.99033985 88.05385358 1290.47851562 88.04882812 C1281.65232836 88.03815718 1272.82616841 88.02112681 1264 88 C1264 91.3 1264 94.6 1264 98 C1267.3 98 1270.6 98 1274 98 C1274 101.63 1274 105.26 1274 109 C1299.41 109 1324.82 109 1351 109 C1351 123.19 1351 137.38 1351 152 C1347.7 152 1344.4 152 1341 152 C1341.020625 153.588125 1341.04125 155.17625 1341.0625 156.8125 C1341.13846018 162.6614341 1340.5396628 168.06370923 1340 174 C1350.89 174 1361.78 174 1373 174 C1373 188.19 1373 202.38 1373 217 C1376.3 217 1379.6 217 1383 217 C1384 218 1384 218 1384.09765625 220.28515625 C1384.06510417 222.85677083 1384.03255208 225.42838542 1384 228 C1387.3 228 1390.6 228 1394 228 C1394 210.18 1394 192.36 1394 174 C1412.15 174 1430.3 174 1449 174 C1449 181.26 1449 188.52 1449 196 C1452.3 196 1455.6 196 1459 196 C1459 192.37 1459 188.74 1459 185 C1462.63 185 1466.26 185 1470 185 C1470 181.37 1470 177.74 1470 174 C1477.59 174 1485.18 174 1493 174 C1493 177.63 1493 181.26 1493 185 C1496.3 185 1499.6 185 1503 185 C1503.02482441 192.64973721 1503.04291881 200.29945067 1503.05493164 207.94921875 C1503.05994271 210.54850676 1503.06675334 213.14779198 1503.07543945 215.74707031 C1503.08764682 219.49544975 1503.09326073 223.24379173 1503.09765625 226.9921875 C1503.10281754 228.14363251 1503.10797882 229.29507751 1503.11329651 230.48141479 C1503.11374778 237.05589447 1502.78081294 243.47306764 1502 250 C1495.58652829 250.81724625 1489.35136997 251.13952711 1482.89038086 251.11352539 C1481.92346313 251.11367142 1480.95654541 251.11381744 1479.96032715 251.1139679 C1476.79514242 251.11327662 1473.63001808 251.10552129 1470.46484375 251.09765625 C1468.25810274 251.09578928 1466.05136132 251.09436669 1463.84461975 251.09336853 C1458.05952799 251.08956534 1452.27446166 251.07975397 1446.48937988 251.06866455 C1440.5769078 251.05840302 1434.66443157 251.05386078 1428.75195312 251.04882812 C1417.16795763 251.0381296 1405.58398094 251.02107977 1394 251 C1394 254.3 1394 257.6 1394 261 C1390.7 261 1387.4 261 1384 261 C1384 257.7 1384 254.4 1384 251 C1365.85 251 1347.7 251 1329 251 C1329 247.37 1329 243.74 1329 240 C1322.07 240 1315.14 240 1308 240 C1308 243.63 1308 247.26 1308 251 C1293.48 251 1278.96 251 1264 251 C1264 254.63 1264 258.26 1264 262 C1240.77220957 262.18451025 1240.77220957 262.18451025 1231 261 C1231 257.7 1231 254.4 1231 251 C1227.37 251 1223.74 251 1220 251 C1220 247.37 1220 243.74 1220 240 C1216.37 240 1212.74 240 1209 240 C1209 236.37 1209 232.74 1209 229 C1205.7 229 1202.4 229 1199 229 C1199 232.63 1199 236.26 1199 240 C1195.37 240 1191.74 240 1188 240 C1188 243.63 1188 247.26 1188 251 C1177.11 251 1166.22 251 1155 251 C1153.87471111 238.62182216 1153.87471111 238.62182216 1153.87060547 233.87695312 C1153.86587723 232.27974426 1153.86587723 232.27974426 1153.86105347 230.65026855 C1153.8630777 229.53849243 1153.86510193 228.42671631 1153.8671875 227.28125 C1153.86623077 226.10212036 1153.86527405 224.92299072 1153.86428833 223.70812988 C1153.86361193 221.23071234 1153.86542826 218.75329298 1153.86962891 216.27587891 C1153.87498478 212.51070121 1153.8696654 208.74564279 1153.86328125 204.98046875 C1153.86394213 202.55989557 1153.86522349 200.13932247 1153.8671875 197.71875 C1153.86415115 196.05108582 1153.86415115 196.05108582 1153.86105347 194.34973145 C1153.88131775 187.50441669 1154.28841795 180.80914064 1155 174 C1158.3 174 1161.6 174 1165 174 C1165 170.7 1165 167.4 1165 164 C1163.61167969 164.01160156 1162.22335937 164.02320313 1160.79296875 164.03515625 C1151.46516333 164.08904986 1142.27742135 164.1077518 1133 163 C1133 159.7 1133 156.4 1133 153 C1131.49566406 153.01160156 1129.99132813 153.02320313 1128.44140625 153.03515625 C1126.48177207 153.04453249 1124.52213655 153.05363287 1122.5625 153.0625 C1121.56927734 153.07087891 1120.57605469 153.07925781 1119.55273438 153.08789062 C1118.60849609 153.09111328 1117.66425781 153.09433594 1116.69140625 153.09765625 C1115.81685791 153.10289307 1114.94230957 153.10812988 1114.04125977 153.11352539 C1112 153 1112 153 1111 152 C1111 148.7 1111 145.4 1111 142 C1104.07 142 1097.14 142 1090 142 C1090 145.3 1090 148.6 1090 152 C1089 153 1089 153 1086.49609375 153.09765625 C1085.48675781 153.08605469 1084.47742187 153.07445312 1083.4375 153.0625 C1082.42558594 153.05347656 1081.41367188 153.04445312 1080.37109375 153.03515625 C1079.19740234 153.01775391 1079.19740234 153.01775391 1078 153 C1078 156.3 1078 159.6 1078 163 C1071.07 163 1064.14 163 1057 163 C1057 159.7 1057 156.4 1057 153 C1049.74 153 1042.48 153 1035 153 C1035 149.37 1035 145.74 1035 142 C1027.74 142 1020.48 142 1013 142 C1013 145.63 1013 149.26 1013 153 C1016.63 153 1020.26 153 1024 153 C1024 156.3 1024 159.6 1024 163 C1013.44 163 1002.88 163 992 163 C991.67 159.7 991.34 156.4 991 153 C987.7 152.67 984.4 152.34 981 152 C981.01160156 152.78246094 981.02320313 153.56492188 981.03515625 154.37109375 C981.04869141 155.88896484 981.04869141 155.88896484 981.0625 157.4375 C981.07410156 158.44683594 981.08570313 159.45617187 981.09765625 160.49609375 C981 163 981 163 980 164 C976.66381769 164.14257189 973.34024394 164.04228157 970 164 C970 167.3 970 170.6 970 174 C980.89 174 991.78 174 1003 174 C1003 177.63 1003 181.26 1003 185 C1006.3 185 1009.6 185 1013 185 C1013 188.63 1013 192.26 1013 196 C1016.63 196 1020.26 196 1024 196 C1024 188.74 1024 181.48 1024 174 C1027.63 174 1031.26 174 1035 174 C1035 170.7 1035 167.4 1035 164 C1038.63 164 1042.26 164 1046 164 C1046 167.3 1046 170.6 1046 174 C1060.19 174 1074.38 174 1089 174 C1089 170.7 1089 167.4 1089 164 C1090 163 1090 163 1092.15234375 162.8671875 C1098.50604257 162.88500994 1104.68787488 163.26815941 1111 164 C1111 167.3 1111 170.6 1111 174 C1118.59 174 1126.18 174 1134 174 C1134 192.15 1134 210.3 1134 229 C1123.11 229 1112.22 229 1101 229 C1101 236.26 1101 243.52 1101 251 C1075.59 251 1050.18 251 1024 251 C1024 243.74 1024 236.48 1024 229 C1017.07 229 1010.14 229 1003 229 C1003 236.26 1003 243.52 1003 251 C992.11 251 981.22 251 970 251 C970 254.63 970 258.26 970 262 C959.11 262 948.22 262 937 262 C937 258.37 937 254.74 937 251 C922.48 251 907.96 251 893 251 C893 247.37 893 243.74 893 240 C889.7 240 886.4 240 883 240 C883 243.63 883 247.26 883 251 C868.48 251 853.96 251 839 251 C839 254.63 839 258.26 839 262 C828.11 262 817.22 262 806 262 C806 258.37 806 254.74 806 251 C795.44 251 784.88 251 774 251 C774 254.63 774 258.26 774 262 C763.11 262 752.22 262 741 262 C741 258.37 741 254.74 741 251 C726.48 251 711.96 251 697 251 C697 247.37 697 243.74 697 240 C693.7 240 690.4 240 687 240 C687 243.63 687 247.26 687 251 C679.74 251 672.48 251 665 251 C665 254.63 665 258.26 665 262 C646.85 262 628.7 262 610 262 C610 258.37 610 254.74 610 251 C584.92 251 559.84 251 534 251 C534 243.74 534 236.48 534 229 C526.74 229 519.48 229 512 229 C512 232.63 512 236.26 512 240 C508.7 240 505.4 240 502 240 C502 243.63 502 247.26 502 251 C491.11 251 480.22 251 469 251 C469 254.63 469 258.26 469 262 C454.48 262 439.96 262 425 262 C425 258.37 425 254.74 425 251 C414.11 251 403.22 251 392 251 C392 247.37 392 243.74 392 240 C390.39125 240.020625 388.7825 240.04125 387.125 240.0625 C381.68136305 240.06956049 376.40514328 239.62668328 371 239 C371 242.96 371 246.92 371 251 C363.41 251 355.82 251 348 251 C348 236.48 348 221.96 348 207 C344.7 207 341.4 207 338 207 C338 221.52 338 236.04 338 251 C330.74 251 323.48 251 316 251 C316 247.37 316 243.74 316 240 C312.37 240 308.74 240 305 240 C305 229.11 305 218.22 305 207 C301.7 207 298.4 207 295 207 C295 221.52 295 236.04 295 251 C283.78 251 272.56 251 261 251 C261 247.37 261 243.74 261 240 C257.7 240 254.4 240 251 240 C251 243.63 251 247.26 251 251 C243.74 251 236.48 251 229 251 C229 254.63 229 258.26 229 262 C222.91683239 262.02487768 216.83369497 262.04294361 210.75048828 262.05493164 C208.68472782 262.05993387 206.61897085 262.06673776 204.55322266 262.07543945 C201.56932712 262.08768625 198.58547875 262.09326956 195.6015625 262.09765625 C194.23531235 262.10539818 194.23531235 262.10539818 192.84146118 262.11329651 C186.8272062 262.11381262 180.97657642 261.68054791 175 261 C175 257.7 175 254.4 175 251 C174.21753906 251.01160156 173.43507813 251.02320313 172.62890625 251.03515625 C171.61699219 251.04417969 170.60507812 251.05320312 169.5625 251.0625 C168.55316406 251.07410156 167.54382813 251.08570313 166.50390625 251.09765625 C164 251 164 251 163 250 C162.90505267 247.62699131 162.87440681 245.28321297 162.88647461 242.90991211 C162.88632858 242.16849472 162.88618256 241.42707733 162.8860321 240.66319275 C162.88673135 238.20121379 162.89452426 235.73930957 162.90234375 233.27734375 C162.90420789 231.57483461 162.90563181 229.87232493 162.90663147 228.16981506 C162.91045698 223.68006927 162.92028753 219.19035562 162.93133545 214.70062256 C162.94154887 210.12268509 162.94612894 205.54474244 162.95117188 200.96679688 C162.96190978 191.97785043 162.97898659 182.98892788 163 174 C166.63 174 170.26 174 174 174 C173.9690625 171.586875 173.9690625 171.586875 173.9375 169.125 C173.93043951 163.68136305 174.37331672 158.40514328 175 153 C178.3 152.67 181.6 152.34 185 152 C185.33 148.7 185.66 145.4 186 142 C178.41 142 170.82 142 163 142 C163 138.37 163 134.74 163 131 C159.37 131 155.74 131 152 131 C152 127.37 152 123.74 152 120 C148.37 120 144.74 120 141 120 C141 116.37 141 112.74 141 109 C137.37 109 133.74 109 130 109 C130 101.74 130 94.48 130 87 C126.7 87 123.4 87 120 87 C120 105.15 120 123.3 120 142 C98.22 142 76.44 142 54 142 C54 138.37 54 134.74 54 131 C50.37 131 46.74 131 43 131 C43 123.74 43 116.48 43 109 C21.88 109 0.76 109 -21 109 C-21 116.26 -21 123.52 -21 131 C-24.63 131 -28.26 131 -32 131 C-32 134.63 -32 138.26 -32 142 C-43.22 142 -54.44 142 -66 142 C-66 134.41 -66 126.82 -66 119 C-62.37 119 -58.74 119 -55 119 C-55 112.07 -55 105.14 -55 98 C-51.37 98 -47.74 98 -44 98 C-44.00785522 96.57905029 -44.00785522 96.57905029 -44.01586914 95.12939453 C-44.03304809 91.5696551 -44.04551626 88.00996059 -44.05493164 84.45019531 C-44.05991896 82.91796162 -44.06671122 81.38573258 -44.07543945 79.85351562 C-44.12174177 71.50820407 -44.04734171 63.29626585 -43 55 C-38.05 54.505 -38.05 54.505 -33 54 C-32.505 49.05 -32.505 49.05 -32 44 C-28.7 44 -25.4 44 -22 44 C-22 36.74 -22 29.48 -22 22 C-18.37 22 -14.74 22 -11 22 C-11 18.04 -11 14.08 -11 10 C-7.37 10 -3.74 10 0 10 C0 6.7 0 3.4 0 0 Z M175 33 C175 43.56 175 54.12 175 65 C181.93 65 188.86 65 196 65 C196 72.26 196 79.52 196 87 C189.07 87 182.14 87 175 87 C175 94.26 175 101.52 175 109 C192.49 109 209.98 109 228 109 C228.83906149 100.36257166 228.83906149 100.36257166 229.0625 91.8125 C229.041875 90.224375 229.02125 88.63625 229 87 C232.63 87 236.26 87 240 87 C240 83.37 240 79.74 240 76 C250.56 76 261.12 76 272 76 C272 72.7 272 69.4 272 66 C261.44 66 250.88 66 240 66 C240 62.37 240 58.74 240 55 C239.87020393 52.93485182 239.71383321 50.87064465 239.5 48.8125 C239.335 47.224375 239.17 45.63625 239 44 C235.7 43.67 232.4 43.34 229 43 C228.67 39.7 228.34 36.4 228 33 C210.51 33 193.02 33 175 33 Z M404 33 C404 39.93 404 46.86 404 54 C414.56 54 425.12 54 436 54 C436 50.7 436 47.4 436 44 C439.3 44 442.6 44 446 44 C446 40.37 446 36.74 446 33 C432.14 33 418.28 33 404 33 Z M1024 33 C1024 36.3 1024 39.6 1024 43 C1020.7 43 1017.4 43 1014 43 C1014 46.96 1014 50.92 1014 55 C1010.37 55 1006.74 55 1003 55 C1003 65.56 1003 76.12 1003 87 C1006.63 87 1010.26 87 1014 87 C1014 90.63 1014 94.26 1014 98 C1017.3 98 1020.6 98 1024 98 C1024 101.63 1024 105.26 1024 109 C1034.89 109 1045.78 109 1057 109 C1057 105.37 1057 101.74 1057 98 C1060.3 98 1063.6 98 1067 98 C1067 94.37 1067 90.74 1067 87 C1063.7 87 1060.4 87 1057 87 C1057 83.37 1057 79.74 1057 76 C1060.63 76 1064.26 76 1068 76 C1068.02501826 71.64412803 1068.04300806 67.28829593 1068.05493164 62.93237305 C1068.05991084 61.4554776 1068.06669663 59.97858695 1068.07543945 58.50170898 C1068.0877903 56.35920008 1068.09329244 54.21675719 1068.09765625 52.07421875 C1068.10551147 50.14968872 1068.10551147 50.14968872 1068.11352539 48.1862793 C1067.97593134 43.11246166 1067.45953074 38.05483818 1067 33 C1052.81 33 1038.62 33 1024 33 Z M730 66 C730 69.3 730 72.6 730 76 C733.3 76 736.6 76 740 76 C740 72.7 740 69.4 740 66 C736.7 66 733.4 66 730 66 Z M1090 66 C1090 69.3 1090 72.6 1090 76 C1096.93 76 1103.86 76 1111 76 C1111 72.7 1111 69.4 1111 66 C1104.07 66 1097.14 66 1090 66 Z M578 87 C578 97.89 578 108.78 578 120 C581.3 120 584.6 120 588 120 C588 126.93 588 133.86 588 141 C584.7 141 581.4 141 578 141 C578 151.89 578 162.78 578 174 C588.56 174 599.12 174 610 174 C610 167.07 610 160.14 610 153 C613.63 153 617.26 153 621 153 C621 149.37 621 145.74 621 142 C624.63 142 628.26 142 632 142 C632 138.04 632 134.08 632 130 C628.37 130 624.74 130 621 130 C621 123.07 621 116.14 621 109 C617.37 109 613.74 109 610 109 C610 105.37 610 101.74 610 98 C606.7 98 603.4 98 600 98 C600.03255208 95.42838542 600.06510417 92.85677083 600.09765625 90.28515625 C600.25949049 88.03406673 600.25949049 88.03406673 599 87 C597.43827255 86.91314397 595.87270656 86.89297781 594.30859375 86.90234375 C593.03326782 86.90609009 593.03326782 86.90609009 591.73217773 86.90991211 C590.64493408 86.91901611 589.55769043 86.92812012 588.4375 86.9375 C583.2709375 86.9684375 583.2709375 86.9684375 578 87 Z M730 87 C730 94.26 730 101.52 730 109 C737.26 109 744.52 109 752 109 C752 115.93 752 122.86 752 130 C748.37 130 744.74 130 741 130 C741 133.96 741 137.92 741 142 C737.37 142 733.74 142 730 142 C730 145.63 730 149.26 730 153 C726.37 153 722.74 153 719 153 C719 156.3 719 159.6 719 163 C703.16 163.495 703.16 163.495 687 164 C687 167.3 687 170.6 687 174 C690.63 174 694.26 174 698 174 C698 177.63 698 181.26 698 185 C701.3 185 704.6 185 708 185 C708 181.37 708 177.74 708 174 C718.89 174 729.78 174 741 174 C741 170.37 741 166.74 741 163 C744.63 163 748.26 163 752 163 C752 159.7 752 156.4 752 153 C762.56 152.67 773.12 152.34 784 152 C784 144.74 784 137.48 784 130 C780.7 130 777.4 130 774 130 C774.020625 128.576875 774.04125 127.15375 774.0625 125.6875 C774.07053068 120.07405441 773.57253434 114.58220982 773 109 C769.37 109 765.74 109 762 109 C762 105.7 762 102.4 762 99 C755.07 99 748.14 99 741 99 C741.04882812 94.75195312 741.04882812 94.75195312 741.09765625 90.50390625 C741.28612676 88.05978933 741.28612676 88.05978933 740 87 C736.7 87 733.4 87 730 87 Z M456.1875 87.5 C454.68413086 87.57154297 454.68413086 87.57154297 453.15039062 87.64453125 C450.7667106 87.75858293 448.38331489 87.8785572 446 88 C446 91.3 446 94.6 446 98 C445.08299316 97.99476318 444.16598633 97.98952637 443.22119141 97.98413086 C439.77326816 97.96694563 436.32539137 97.95448076 432.87744141 97.94506836 C431.39371008 97.94008292 429.90998354 97.93329215 428.42626953 97.92456055 C426.27635503 97.91223804 424.12650624 97.90671374 421.9765625 97.90234375 C420.04417725 97.89448853 420.04417725 97.89448853 418.07275391 97.88647461 C413.36900099 98.01758869 408.68222702 98.5317773 404 99 C404 105.93 404 112.86 404 120 C407.3 120 410.6 120 414 120 C413.96744792 122.57161458 413.93489583 125.14322917 413.90234375 127.71484375 C413.74050951 129.96593327 413.74050951 129.96593327 415 131 C418.3 131 421.6 131 425 131 C425 137.93 425 144.86 425 152 C423.411875 151.979375 421.82375 151.95875 420.1875 151.9375 C414.40147987 151.92998569 408.75315072 152.40227006 403 153 C403 156.63 403 160.26 403 164 C399.7 164 396.4 164 393 164 C393 167.3 393 170.6 393 174 C403.56 174 414.12 174 425 174 C425 167.07 425 160.14 425 153 C428.63 153 432.26 153 436 153 C436 156.3 436 159.6 436 163 C451.84 163.495 451.84 163.495 468 164 C468 167.3 468 170.6 468 174 C471.63 174 475.26 174 479 174 C479.77038157 159.65164322 480.13222721 145.36868975 480 131 C483.3 131 486.6 131 490 131 C490 116.48 490 101.96 490 87 C473.07138719 86.95768156 473.07138719 86.95768156 456.1875 87.5 Z M273 99 C273 105.93 273 112.86 273 120 C269.37 120 265.74 120 262 120 C261.27781998 127.04125516 260.86184786 133.92354019 261 141 C260.28972656 140.98839844 259.57945312 140.97679687 258.84765625 140.96484375 C257.92855469 140.95582031 257.00945312 140.94679687 256.0625 140.9375 C254.68771484 140.92009766 254.68771484 140.92009766 253.28515625 140.90234375 C251.03406673 140.74050951 251.03406673 140.74050951 250 142 C249.9116033 144.3756852 249.88469695 146.72208674 249.90234375 149.09765625 C249.9037587 149.80651474 249.90517365 150.51537323 249.90663147 151.24571228 C249.91224557 153.51801712 249.92480037 155.79022475 249.9375 158.0625 C249.94251319 159.59960796 249.94707641 161.13671745 249.95117188 162.67382812 C249.96221958 166.44925642 249.97949359 170.22461171 250 174 C253.96 174 257.92 174 262 174 C262 177.63 262 181.26 262 185 C265.3 185 268.6 185 272 185 C272 181.37 272 177.74 272 174 C300.71 174 329.42 174 359 174 C359 152.55 359 131.1 359 109 C352.07 109 345.14 109 338 109 C338 112.63 338 116.26 338 120 C327.11 120 316.22 120 305 120 C305 116.37 305 112.74 305 109 C297.74 109 290.48 109 283 109 C283 105.7 283 102.4 283 99 C279.7 99 276.4 99 273 99 Z M872 109 C871.814375 114.053125 871.62875 119.10625 871.4375 124.3125 C871.37618896 125.88298096 871.31487793 127.45346191 871.25170898 129.0715332 C870.99013814 136.79007314 871.01208775 144.32230452 872 152 C879.02909883 152.72709554 885.93161452 153.13799451 893 153 C892.98839844 153.59425781 892.97679687 154.18851563 892.96484375 154.80078125 C892.89442396 161.26934207 893.33998828 167.56488568 894 174 C901.26 174 908.52 174 916 174 C916 177.63 916 181.26 916 185 C919.3 185 922.6 185 926 185 C926 181.37 926 177.74 926 174 C929.63 174 933.26 174 937 174 C937 170.37 937 166.74 937 163 C933.37 163 929.74 163 926 163 C926 152.11 926 141.22 926 130 C922.37 130 918.74 130 915 130 C915 126.37 915 122.74 915 119 C911.7 119 908.4 119 905 119 C905 115.7 905 112.4 905 109 C894.11 109 883.22 109 872 109 Z M523 164 C523 167.3 523 170.6 523 174 C529.93 174 536.86 174 544 174 C544 170.7 544 167.4 544 164 C532.98293971 161.92462222 532.98293971 161.92462222 523 164 Z M850 164 C850 167.3 850 170.6 850 174 C853.3 174 856.6 174 860 174 C860 170.7 860 167.4 860 164 C856.7 164 853.4 164 850 164 Z M1275 164 C1275 167.3 1275 170.6 1275 174 C1281.93 174 1288.86 174 1296 174 C1296 170.7 1296 167.4 1296 164 C1289.07 164 1282.14 164 1275 164 Z M818 186 C818 199.86 818 213.72 818 228 C821.3 228 824.6 228 828 228 C828 214.14 828 200.28 828 186 C824.7 186 821.4 186 818 186 Z M1242 207 C1242 213.93 1242 220.86 1242 228 C1248.93 228 1255.86 228 1263 228 C1263 224.7 1263 221.4 1263 218 C1259.7 218 1256.4 218 1253 218 C1253 214.37 1253 210.74 1253 207 C1249.37 207 1245.74 207 1242 207 Z M916 218 C916 221.3 916 224.6 916 228 C919.3 228 922.6 228 926 228 C926 224.7 926 221.4 926 218 C922.7 218 919.4 218 916 218 Z " fill="#FFFFFF" transform="translate(392,98)"/>
<path d="M0 0 C7.59 0 15.18 0 23 0 C23 6.93 23 13.86 23 21 C26.3 21 29.6 21 33 21 C36.68312801 21.23816994 40.32694359 21.62327627 44 22 C44 25.63 44 29.26 44 33 C47.63 33 51.26 33 55 33 C55 36.63 55 40.26 55 44 C58.63 44 62.26 44 66 44 C66 47.3 66 50.6 66 54 C67.629375 53.979375 69.25875 53.95875 70.9375 53.9375 C72.62499341 53.91613932 74.31391034 53.92794489 76 54 C77 55 77 55 77.09765625 57.28515625 C77.06510417 59.85677083 77.03255208 62.42838542 77 65 C80.63 65 84.26 65 88 65 C88 68.63 88 72.26 88 76 C91.63 76 95.26 76 99 76 C99 79.63 99 83.26 99 87 C102.63 87 106.26 87 110 87 C110 90.63 110 94.26 110 98 C117.26 98 124.52 98 132 98 C132 101.3 132 104.6 132 108 C135.3 108 138.6 108 142 108 C142 111.63 142 115.26 142 119 C143.50433594 118.98839844 145.00867188 118.97679688 146.55859375 118.96484375 C148.51822793 118.95546751 150.47786345 118.94636713 152.4375 118.9375 C153.92733398 118.92493164 153.92733398 118.92493164 155.44726562 118.91210938 C156.86362305 118.90727539 156.86362305 118.90727539 158.30859375 118.90234375 C159.18314209 118.89710693 160.05769043 118.89187012 160.95874023 118.88647461 C163 119 163 119 164 120 C164.14257189 123.33618231 164.04228157 126.65975606 164 130 C167.63 130 171.26 130 175 130 C175 133.63 175 137.26 175 141 C178.63 141 182.26 141 186 141 C186 144.63 186 148.26 186 152 C189.63 152 193.26 152 197 152 C197 155.63 197 159.26 197 163 C200.63 163 204.26 163 208 163 C208 166.63 208 170.26 208 174 C211.63 174 215.26 174 219 174 C219 177.63 219 181.26 219 185 C222.63 185 226.26 185 230 185 C230 192.26 230 199.52 230 207 C233.3 207 236.6 207 240 207 C240 236.04 240 265.08 240 295 C236.7 295 233.4 295 230 295 C230 301.93 230 308.86 230 316 C226.37 316 222.74 316 219 316 C219 319.63 219 323.26 219 327 C215.37 327 211.74 327 208 327 C208 330.63 208 334.26 208 338 C204.37 338 200.74 338 197 338 C197 341.63 197 345.26 197 349 C193.37 349 189.74 349 186 349 C186 352.63 186 356.26 186 360 C182.37 360 178.74 360 175 360 C175 363.63 175 367.26 175 371 C171.04 371 167.08 371 163 371 C163 374.3 163 377.6 163 381 C159.7 381 156.4 381 153 381 C153 395.52 153 410.04 153 425 C156.3 425 159.6 425 163 425 C163 428.3 163 431.6 163 435 C159.7 435 156.4 435 153 435 C153 446.22 153 457.44 153 469 C149.37 469 145.74 469 142 469 C142 475.93 142 482.86 142 490 C138.7 490 135.4 490 132 490 C132.01160156 490.78246094 132.02320313 491.56492187 132.03515625 492.37109375 C132.04417969 493.38300781 132.05320313 494.39492188 132.0625 495.4375 C132.07410156 496.44683594 132.08570313 497.45617187 132.09765625 498.49609375 C132 501 132 501 131 502 C129.43827255 502.08685603 127.87270656 502.10702219 126.30859375 502.09765625 C125.36435547 502.09443359 124.42011719 502.09121094 123.44726562 502.08789062 C122.45404297 502.07951172 121.46082031 502.07113281 120.4375 502.0625 C119.44041016 502.05798828 118.44332031 502.05347656 117.41601562 502.04882812 C114.94398513 502.03700023 112.47198528 502.01906415 110 502 C110 505.3 110 508.6 110 512 C106.04 512 102.08 512 98 512 C98 508.7 98 505.4 98 502 C95.6178125 502.0309375 95.6178125 502.0309375 93.1875 502.0625 C87.40147987 502.07001431 81.75315072 501.59772994 76 501 C76 494.07 76 487.14 76 480 C72.7 480 69.4 480 66 480 C65 479 65 479 64.90234375 476.49609375 C64.91974609 474.98208984 64.91974609 474.98208984 64.9375 473.4375 C64.94652344 472.42558594 64.95554688 471.41367187 64.96484375 470.37109375 C64.98224609 469.19740234 64.98224609 469.19740234 65 468 C61.7 468 58.4 468 55 468 C54.18139406 460.9395238 53.90887072 454.10808395 54 447 C50.37 447 46.74 447 43 447 C43 443.37 43 439.74 43 436 C39.7 436 36.4 436 33 436 C33 432.37 33 428.74 33 425 C29.37 425 25.74 425 22 425 C22 421.37 22 417.74 22 414 C18.37 414 14.74 414 11 414 C11 410.7 11 407.4 11 404 C9.39125 404.020625 7.7825 404.04125 6.125 404.0625 C0.68136305 404.06956049 -4.59485672 403.62668328 -10 403 C-10 399.7 -10 396.4 -10 393 C-10.78246094 393.01160156 -11.56492188 393.02320313 -12.37109375 393.03515625 C-13.88896484 393.04869141 -13.88896484 393.04869141 -15.4375 393.0625 C-16.44683594 393.07410156 -17.45617188 393.08570313 -18.49609375 393.09765625 C-21 393 -21 393 -22 392 C-22.14257189 388.66381769 -22.04228157 385.34024394 -22 382 C-25.63 382 -29.26 382 -33 382 C-33 378.37 -33 374.74 -33 371 C-35.4440625 371.0309375 -35.4440625 371.0309375 -37.9375 371.0625 C-39.62499341 371.08386068 -41.31391034 371.07205511 -43 371 C-44 370 -44 370 -44.09765625 367.71484375 C-44.08605469 366.79832031 -44.07445313 365.88179688 -44.0625 364.9375 C-44.05347656 364.01839844 -44.04445313 363.09929687 -44.03515625 362.15234375 C-44.02355469 361.44207031 -44.01195313 360.73179687 -44 360 C-44.71027344 360.01160156 -45.42054687 360.02320313 -46.15234375 360.03515625 C-47.53099609 360.04869141 -47.53099609 360.04869141 -48.9375 360.0625 C-49.85402344 360.07410156 -50.77054688 360.08570313 -51.71484375 360.09765625 C-54 360 -54 360 -55 359 C-55.08685603 357.43827255 -55.10702219 355.87270656 -55.09765625 354.30859375 C-55.09443359 353.36435547 -55.09121094 352.42011719 -55.08789062 351.44726562 C-55.07951172 350.45404297 -55.07113281 349.46082031 -55.0625 348.4375 C-55.05798828 347.44041016 -55.05347656 346.44332031 -55.04882812 345.41601562 C-55.03700023 342.94398513 -55.01906415 340.47198528 -55 338 C-58.3 338 -61.6 338 -65 338 C-65 323.48 -65 308.96 -65 294 C-61.7 294 -58.4 294 -55 294 C-55 286.74 -55 279.48 -55 272 C-51.37 272 -47.74 272 -44 272 C-44 264.74 -44 257.48 -44 250 C-37.75198914 249.97709487 -31.50412285 249.95716661 -25.25610352 249.94506836 C-23.12881986 249.94002702 -21.00153969 249.93319409 -18.87426758 249.92456055 C-15.82372174 249.91248621 -12.77322155 249.90676986 -9.72265625 249.90234375 C-8.28672874 249.89460182 -8.28672874 249.89460182 -6.8217926 249.88670349 C-5.50053627 249.88659019 -5.50053627 249.88659019 -4.15258789 249.88647461 C-2.9834359 249.88314369 -2.9834359 249.88314369 -1.79066467 249.87974548 C0 250 0 250 1 251 C1.07205511 252.68608966 1.08386068 254.37500659 1.0625 256.0625 C1.05347656 256.98160156 1.04445313 257.90070313 1.03515625 258.84765625 C1.02355469 259.55792969 1.01195313 260.26820313 1 261 C1.63091553 260.99476318 2.26183105 260.98952637 2.91186523 260.98413086 C5.75373347 260.96342174 8.59558588 260.95035934 11.4375 260.9375 C12.43072266 260.92912109 13.42394531 260.92074219 14.44726562 260.91210938 C15.86362305 260.90727539 15.86362305 260.90727539 17.30859375 260.90234375 C18.62041626 260.89448853 18.62041626 260.89448853 19.95874023 260.88647461 C22 261 22 261 23 262 C23 265.3 23 268.6 23 272 C29.93 272 36.86 272 44 272 C44 275.63 44 279.26 44 283 C51.26 283 58.52 283 66 283 C66 286.63 66 290.26 66 294 C76.89 294 87.78 294 99 294 C99 290.37 99 286.74 99 283 C109.56 283 120.12 283 131 283 C131 279.7 131 276.4 131 273 C127.37 273 123.74 273 120 273 C120 269.37 120 265.74 120 262 C118.49566406 262.01160156 116.99132812 262.02320313 115.44140625 262.03515625 C113.48177207 262.04453249 111.52213655 262.05363287 109.5625 262.0625 C108.56927734 262.07087891 107.57605469 262.07925781 106.55273438 262.08789062 C105.13637695 262.09272461 105.13637695 262.09272461 103.69140625 262.09765625 C102.37958374 262.10551147 102.37958374 262.10551147 101.04125977 262.11352539 C99 262 99 262 98 261 C97.85742811 257.66381769 97.95771843 254.34024394 98 251 C94.37 251 90.74 251 87 251 C87 247.37 87 243.74 87 240 C83.37 240 79.74 240 76 240 C76 236.37 76 232.74 76 229 C69.07 229 62.14 229 55 229 C55 225.37 55 221.74 55 218 C51.04 218 47.08 218 43 218 C43 214.37 43 210.74 43 207 C36.07 207 29.14 207 22 207 C22 203.7 22 200.4 22 197 C18.37 197 14.74 197 11 197 C11 193.37 11 189.74 11 186 C7.37 186 3.74 186 0 186 C0 182.37 0 178.74 0 175 C-3.63 175 -7.26 175 -11 175 C-11 171.37 -11 167.74 -11 164 C-14.63 164 -18.26 164 -22 164 C-22 160.37 -22 156.74 -22 153 C-25.63 153 -29.26 153 -33 153 C-33 145.74 -33 138.48 -33 131 C-36.63 131 -40.26 131 -44 131 C-44 109.22 -44 87.44 -44 65 C-40.37 65 -36.74 65 -33 65 C-33 57.74 -33 50.48 -33 43 C-29.37 43 -25.74 43 -22 43 C-22 36.07 -22 29.14 -22 22 C-18.37 22 -14.74 22 -11 22 C-11 18.04 -11 14.08 -11 10 C-7.37 10 -3.74 10 0 10 C0 6.7 0 3.4 0 0 Z " fill="#FFFFFF" transform="translate(65,0)"/>
<path d="M0 0 C3.63 0 7.26 0 11 0 C11 3.63 11 7.26 11 11 C14.63 11 18.26 11 22 11 C22 7.37 22 3.74 22 0 C25.63 0 29.26 0 33 0 C33 3.63 33 7.26 33 11 C36.3 11 39.6 11 43 11 C43 7.37 43 3.74 43 0 C54.22 0 65.44 0 77 0 C77 3.63 77 7.26 77 11 C80.3 11 83.6 11 87 11 C87 7.37 87 3.74 87 0 C90.63 0 94.26 0 98 0 C98 3.63 98 7.26 98 11 C104.93 11 111.86 11 119 11 C119 7.37 119 3.74 119 0 C126.59 0 134.18 0 142 0 C142 3.63 142 7.26 142 11 C145.3 11 148.6 11 152 11 C152 7.37 152 3.74 152 0 C155.96 0 159.92 0 164 0 C164 3.63 164 7.26 164 11 C170.93 11 177.86 11 185 11 C185 7.37 185 3.74 185 0 C214.04 0 243.08 0 273 0 C273 3.63 273 7.26 273 11 C276.3 11 279.6 11 283 11 C283 7.37 283 3.74 283 0 C290.26 0 297.52 0 305 0 C305 3.63 305 7.26 305 11 C308.3 11 311.6 11 315 11 C315 7.37 315 3.74 315 0 C322.59 0 330.18 0 338 0 C338 3.63 338 7.26 338 11 C341.3 11 344.6 11 348 11 C348 7.37 348 3.74 348 0 C351.96 0 355.92 0 360 0 C360 3.63 360 7.26 360 11 C366.93 11 373.86 11 381 11 C381 7.37 381 3.74 381 0 C384.96 0 388.92 0 393 0 C393 3.63 393 7.26 393 11 C399.93 11 406.86 11 414 11 C414 7.37 414 3.74 414 0 C424.89 0 435.78 0 447 0 C447 3.63 447 7.26 447 11 C450.3 11 453.6 11 457 11 C457 7.37 457 3.74 457 0 C460.96 0 464.92 0 469 0 C469 3.63 469 7.26 469 11 C475.93 11 482.86 11 490 11 C490 7.37 490 3.74 490 0 C500.89 0 511.78 0 523 0 C523 3.63 523 7.26 523 11 C529.93 11 536.86 11 544 11 C544 7.37 544 3.74 544 0 C550.24796254 -0.02464455 556.49589703 -0.04283343 562.74389648 -0.05493164 C564.87118014 -0.05997298 566.99846031 -0.06680591 569.12573242 -0.07543945 C572.17627826 -0.08751379 575.22677845 -0.09323014 578.27734375 -0.09765625 C579.71327126 -0.10539818 579.71327126 -0.10539818 581.1782074 -0.11329651 C582.49946373 -0.11340981 582.49946373 -0.11340981 583.84741211 -0.11352539 C584.62684677 -0.115746 585.40628143 -0.11796661 586.20933533 -0.12025452 C588 0 588 0 589 1 C589 4.3 589 7.6 589 11 C595.93 11 602.86 11 610 11 C610 7.37 610 3.74 610 0 C613.63 0 617.26 0 621 0 C621 3.63 621 7.26 621 11 C624.3 11 627.6 11 631 11 C631 7.37 631 3.74 631 0 C645.85 0 660.7 0 676 0 C676 3.63 676 7.26 676 11 C679.3 11 682.6 11 686 11 C686 7.37 686 3.74 686 0 C696.89 0 707.78 0 719 0 C719 3.63 719 7.26 719 11 C722.3 11 725.6 11 729 11 C729 7.37 729 3.74 729 0 C732.96 0 736.92 0 741 0 C741 3.63 741 7.26 741 11 C751.89 11 762.78 11 774 11 C774 29.15 774 47.3 774 66 C766.41 66 758.82 66 751 66 C751 62.37 751 58.74 751 55 C747.7 55 744.4 55 741 55 C741 58.63 741 62.26 741 66 C715.59 66 690.18 66 664 66 C664 58.74 664 51.48 664 44 C660.7 44 657.4 44 654 44 C654 51.26 654 58.52 654 66 C642.78 66 631.56 66 620 66 C620 62.37 620 58.74 620 55 C616.7 55 613.4 55 610 55 C610 58.63 610 62.26 610 66 C566.77 66 523.54 66 479 66 C479 62.37 479 58.74 479 55 C475.7 55 472.4 55 469 55 C469 58.63 469 62.26 469 66 C465.04 66 461.08 66 457 66 C457 62.37 457 58.74 457 55 C453.7 55 450.4 55 447 55 C447 58.63 447 62.26 447 66 C436.11 66 425.22 66 414 66 C414 62.37 414 58.74 414 55 C410.7 55 407.4 55 404 55 C404.0309375 57.1346875 404.0309375 57.1346875 404.0625 59.3125 C404.07051774 64.91690248 403.59290281 70.43094858 403 76 C395.5846952 76.91871033 388.54155613 77 381 77 C381 62.48 381 47.96 381 33 C377.7 33 374.4 33 371 33 C371 43.89 371 54.78 371 66 C363.41 66 355.82 66 348 66 C348 62.37 348 58.74 348 55 C344.7 55 341.4 55 338 55 C338 58.63 338 62.26 338 66 C298.07 66 258.14 66 217 66 C217 62.37 217 58.74 217 55 C210.4 55 203.8 55 197 55 C197 58.63 197 62.26 197 66 C185.78 66 174.56 66 163 66 C163 62.37 163 58.74 163 55 C156.07 55 149.14 55 142 55 C142 58.63 142 62.26 142 66 C123.85 66 105.7 66 87 66 C87 62.37 87 58.74 87 55 C83.7 55 80.4 55 77 55 C77 58.63 77 62.26 77 66 C65.78 66 54.56 66 43 66 C43 62.37 43 58.74 43 55 C39.7 55 36.4 55 33 55 C33 58.63 33 62.26 33 66 C22.11 66 11.22 66 0 66 C0 44.22 0 22.44 0 0 Z M491 32 C491 35.63 491 39.26 491 43 C497.93 43 504.86 43 512 43 C512 39.7 512 36.4 512 33 C504.94550098 32.27646164 498.08994209 31.89724722 491 32 Z M120 33 C120 36.3 120 39.6 120 43 C123.3 43 126.6 43 130 43 C130 39.7 130 36.4 130 33 C126.7 33 123.4 33 120 33 Z " fill="#FFFFFF" transform="translate(512,403)"/>
<path d="M0 0 C3.63 0 7.26 0 11 0 C11 3.63 11 7.26 11 11 C14.3 11 17.6 11 21 11 C21 7.37 21 3.74 21 0 C24.96 0 28.92 0 33 0 C33 3.63 33 7.26 33 11 C36.3 11 39.6 11 43 11 C43 7.37 43 3.74 43 0 C47.68139254 -0.02465288 52.36274759 -0.04283739 57.04418945 -0.05493164 C58.63794614 -0.05997157 60.23169819 -0.0668035 61.82543945 -0.07543945 C64.11150253 -0.08751999 66.39750467 -0.09323155 68.68359375 -0.09765625 C69.40026718 -0.10281754 70.11694061 -0.10797882 70.85533142 -0.11329651 C72.57063672 -0.11349263 74.28581266 -0.06192007 76 0 C77 1 77 1 77.09765625 3.28515625 C77.06510417 5.85677083 77.03255208 8.42838542 77 11 C80.3 11 83.6 11 87 11 C87 7.37 87 3.74 87 0 C101.52 0 116.04 0 131 0 C131 3.63 131 7.26 131 11 C134.3 11 137.6 11 141 11 C141 7.37 141 3.74 141 0 C159.48 0 177.96 0 197 0 C197 3.63 197 7.26 197 11 C200.3 11 203.6 11 207 11 C207 7.37 207 3.74 207 0 C210.63 0 214.26 0 218 0 C218 3.63 218 7.26 218 11 C224.93 11 231.86 11 239 11 C239 7.37 239 3.74 239 0 C242.96 0 246.92 0 251 0 C251 3.63 251 7.26 251 11 C254.3 11 257.6 11 261 11 C261 7.37 261 3.74 261 0 C275.52 0 290.04 0 305 0 C305 3.63 305 7.26 305 11 C308.3 11 311.6 11 315 11 C315 7.37 315 3.74 315 0 C333.48 0 351.96 0 371 0 C371 7.26 371 14.52 371 22 C367.37 22 363.74 22 360 22 C360 36.52 360 51.04 360 66 C345.15 66 330.3 66 315 66 C315 62.37 315 58.74 315 55 C311.7 55 308.4 55 305 55 C305 58.63 305 62.26 305 66 C261.77 66 218.54 66 174 66 C174 62.37 174 58.74 174 55 C170.7 55 167.4 55 164 55 C164 58.63 164 62.26 164 66 C142.22 66 120.44 66 98 66 C98 62.37 98 58.74 98 55 C94.7 55 91.4 55 88 55 C88 58.63 88 62.26 88 66 C73.15 66 58.3 66 43 66 C43 62.37 43 58.74 43 55 C39.7 55 36.4 55 33 55 C33 58.63 33 62.26 33 66 C22.11 66 11.22 66 0 66 C0 44.22 0 22.44 0 0 Z " fill="#FFFFFF" transform="translate(1329,403)"/>
<path d="M0 0 C7.59 0 15.18 0 23 0 C23 25.41 23 50.82 23 77 C15.41 77 7.82 77 0 77 C0 51.59 0 26.18 0 0 Z " fill="#FFFFFF" transform="translate(1296,403)"/>
<path d="M0 0 C3.63 0 7.26 0 11 0 C11 3.63 11 7.26 11 11 C7.37 11 3.74 11 0 11 C0 7.37 0 3.74 0 0 Z " fill="#FFFFFF" transform="translate(1416,163)"/>
</svg>
