<?xml version="1.0" encoding="UTF-8"?>
<svg version="1.1" xmlns="http://www.w3.org/2000/svg" width="2298" height="512">
<path d="M0 0 C1.13179687 -0.00257813 2.26359375 -0.00515625 3.4296875 -0.0078125 C6.125 0.125 6.125 0.125 7.125 1.125 C7.16580783 3.12458364 7.16754356 5.12545254 7.125 7.125 C9.105 7.125 11.085 7.125 13.125 7.125 C13.125 11.745 13.125 16.365 13.125 21.125 C19.725 21.125 26.325 21.125 33.125 21.125 C33.125 23.105 33.125 25.085 33.125 27.125 C35.435 27.125 37.745 27.125 40.125 27.125 C40.125 29.435 40.125 31.745 40.125 34.125 C44.085 34.125 48.045 34.125 52.125 34.125 C52.125 31.815 52.125 29.505 52.125 27.125 C54.435 27.125 56.745 27.125 59.125 27.125 C59.125 25.145 59.125 23.165 59.125 21.125 C63.745 21.125 68.365 21.125 73.125 21.125 C73.125 23.105 73.125 25.085 73.125 27.125 C74.775 27.125 76.425 27.125 78.125 27.125 C78.125 25.145 78.125 23.165 78.125 21.125 C87.035 21.125 95.945 21.125 105.125 21.125 C105.125 23.105 105.125 25.085 105.125 27.125 C107.435 27.125 109.745 27.125 112.125 27.125 C112.125 29.435 112.125 31.745 112.125 34.125 C118.395 34.125 124.665 34.125 131.125 34.125 C131.125 31.815 131.125 29.505 131.125 27.125 C133.105 27.125 135.085 27.125 137.125 27.125 C137.125 25.145 137.125 23.165 137.125 21.125 C148.345 21.125 159.565 21.125 171.125 21.125 C171.125 23.105 171.125 25.085 171.125 27.125 C173.435 27.125 175.745 27.125 178.125 27.125 C178.125 29.435 178.125 31.745 178.125 34.125 C180.105 34.125 182.085 34.125 184.125 34.125 C184.125 38.415 184.125 42.705 184.125 47.125 C186.105 47.125 188.085 47.125 190.125 47.125 C190.125 42.835 190.125 38.545 190.125 34.125 C192.105 34.125 194.085 34.125 196.125 34.125 C196.125 31.815 196.125 29.505 196.125 27.125 C198.435 27.125 200.745 27.125 203.125 27.125 C203.125 25.145 203.125 23.165 203.125 21.125 C212.035 21.125 220.945 21.125 230.125 21.125 C230.125 23.105 230.125 25.085 230.125 27.125 C232.105 27.125 234.085 27.125 236.125 27.125 C236.125 18.215 236.125 9.305 236.125 0.125 C249.125 0.125 249.125 0.125 256.125 1.125 C256.125 16.305 256.125 31.485 256.125 47.125 C258.105 47.125 260.085 47.125 262.125 47.125 C262.125 42.835 262.125 38.545 262.125 34.125 C264.435 34.125 266.745 34.125 269.125 34.125 C269.125 31.815 269.125 29.505 269.125 27.125 C271.105 27.125 273.085 27.125 275.125 27.125 C275.125 25.145 275.125 23.165 275.125 21.125 C284.035 21.125 292.945 21.125 302.125 21.125 C302.125 22.775 302.125 24.425 302.125 26.125 C306.415 26.455 310.705 26.785 315.125 27.125 C315.125 29.435 315.125 31.745 315.125 34.125 C317.105 34.125 319.085 34.125 321.125 34.125 C321.455 29.835 321.785 25.545 322.125 21.125 C328.725 21.125 335.325 21.125 342.125 21.125 C342.125 25.415 342.125 29.705 342.125 34.125 C344.105 34.125 346.085 34.125 348.125 34.125 C348.125 38.415 348.125 42.705 348.125 47.125 C350.435 47.125 352.745 47.125 355.125 47.125 C355.125 49.105 355.125 51.085 355.125 53.125 C356.775 53.125 358.425 53.125 360.125 53.125 C360.125 46.855 360.125 40.585 360.125 34.125 C362.435 34.125 364.745 34.125 367.125 34.125 C367.125 29.835 367.125 25.545 367.125 21.125 C373.725 21.125 380.325 21.125 387.125 21.125 C387.455 25.415 387.785 29.705 388.125 34.125 C389.775 34.125 391.425 34.125 393.125 34.125 C393.125 31.815 393.125 29.505 393.125 27.125 C397.415 26.795 401.705 26.465 406.125 26.125 C406.125 24.475 406.125 22.825 406.125 21.125 C417.015 21.125 427.905 21.125 439.125 21.125 C439.125 23.105 439.125 25.085 439.125 27.125 C441.765 27.125 444.405 27.125 447.125 27.125 C447.125 31.415 447.125 35.705 447.125 40.125 C448.775 40.125 450.425 40.125 452.125 40.125 C452.125 38.145 452.125 36.165 452.125 34.125 C454.435 34.125 456.745 34.125 459.125 34.125 C459.125 29.835 459.125 25.545 459.125 21.125 C472.325 21.125 485.525 21.125 499.125 21.125 C499.125 23.105 499.125 25.085 499.125 27.125 C501.435 27.125 503.745 27.125 506.125 27.125 C506.125 29.435 506.125 31.745 506.125 34.125 C507.775 34.125 509.425 34.125 511.125 34.125 C511.125 31.815 511.125 29.505 511.125 27.125 C513.435 27.125 515.745 27.125 518.125 27.125 C518.125 25.145 518.125 23.165 518.125 21.125 C529.345 21.125 540.565 21.125 552.125 21.125 C552.125 23.105 552.125 25.085 552.125 27.125 C554.105 27.125 556.085 27.125 558.125 27.125 C558.125 29.435 558.125 31.745 558.125 34.125 C560.105 34.125 562.085 34.125 564.125 34.125 C564.125 31.815 564.125 29.505 564.125 27.125 C566.435 27.125 568.745 27.125 571.125 27.125 C571.125 25.145 571.125 23.165 571.125 21.125 C575.745 21.125 580.365 21.125 585.125 21.125 C585.125 23.105 585.125 25.085 585.125 27.125 C587.105 27.125 589.085 27.125 591.125 27.125 C591.125 33.725 591.125 40.325 591.125 47.125 C593.435 47.125 595.745 47.125 598.125 47.125 C598.125 49.435 598.125 51.745 598.125 54.125 C599.775 54.125 601.425 54.125 603.125 54.125 C603.125 49.505 603.125 44.885 603.125 40.125 C605.435 40.125 607.745 40.125 610.125 40.125 C610.125 33.855 610.125 27.585 610.125 21.125 C616.725 21.125 623.325 21.125 630.125 21.125 C630.125 25.415 630.125 29.705 630.125 34.125 C632.105 34.125 634.085 34.125 636.125 34.125 C636.125 31.815 636.125 29.505 636.125 27.125 C640.415 27.125 644.705 27.125 649.125 27.125 C649.125 25.145 649.125 23.165 649.125 21.125 C660.345 21.125 671.565 21.125 683.125 21.125 C683.125 23.105 683.125 25.085 683.125 27.125 C685.435 27.125 687.745 27.125 690.125 27.125 C690.125 29.435 690.125 31.745 690.125 34.125 C692.105 34.125 694.085 34.125 696.125 34.125 C696.125 53.925 696.125 73.725 696.125 94.125 C689.525 94.125 682.925 94.125 676.125 94.125 C676.125 91.815 676.125 89.505 676.125 87.125 C674.145 87.125 672.165 87.125 670.125 87.125 C670.125 89.435 670.125 91.745 670.125 94.125 C658.905 94.125 647.685 94.125 636.125 94.125 C636.125 91.815 636.125 89.505 636.125 87.125 C634.145 87.125 632.165 87.125 630.125 87.125 C630.125 76.235 630.125 65.345 630.125 54.125 C628.145 54.125 626.165 54.125 624.125 54.125 C624.125 58.415 624.125 62.705 624.125 67.125 C621.815 67.125 619.505 67.125 617.125 67.125 C617.125 71.415 617.125 75.705 617.125 80.125 C615.145 80.125 613.165 80.125 611.125 80.125 C611.125 86.725 611.125 93.325 611.125 100.125 C608.815 100.125 606.505 100.125 604.125 100.125 C604.125 104.415 604.125 108.705 604.125 113.125 C602.145 113.125 600.165 113.125 598.125 113.125 C598.125 115.435 598.125 117.745 598.125 120.125 C586.905 120.125 575.685 120.125 564.125 120.125 C564.125 113.195 564.125 106.265 564.125 99.125 C568.415 99.125 572.705 99.125 577.125 99.125 C577.125 97.145 577.125 95.165 577.125 93.125 C579.435 93.125 581.745 93.125 584.125 93.125 C584.125 88.835 584.125 84.545 584.125 80.125 C581.815 80.125 579.505 80.125 577.125 80.125 C577.125 75.505 577.125 70.885 577.125 66.125 C575.145 66.125 573.165 66.125 571.125 66.125 C571.125 60.185 571.125 54.245 571.125 48.125 C569.145 48.125 567.165 48.125 565.125 48.125 C565.125 63.305 565.125 78.485 565.125 94.125 C545.325 94.125 525.525 94.125 505.125 94.125 C505.125 89.505 505.125 84.885 505.125 80.125 C502.815 80.125 500.505 80.125 498.125 80.125 C498.125 75.505 498.125 70.885 498.125 66.125 C500.435 66.125 502.745 66.125 505.125 66.125 C505.125 60.185 505.125 54.245 505.125 48.125 C496.545 48.125 487.965 48.125 479.125 48.125 C479.125 63.305 479.125 78.485 479.125 94.125 C472.525 94.125 465.925 94.125 459.125 94.125 C459.125 91.815 459.125 89.505 459.125 87.125 C457.145 87.125 455.165 87.125 453.125 87.125 C453.125 89.435 453.125 91.745 453.125 94.125 C445.44963373 94.14812821 437.77427104 94.16591753 430.09887791 94.17681217 C426.53522578 94.18203995 422.97159743 94.18913569 419.40795898 94.20043945 C415.31493903 94.21334176 411.2219442 94.21822906 407.12890625 94.22265625 C405.20081871 94.23039818 405.20081871 94.23039818 403.23377991 94.23829651 C401.46205666 94.23840981 401.46205666 94.23840981 399.65454102 94.23852539 C398.08567894 94.24185631 398.08567894 94.24185631 396.48512268 94.24525452 C394.125 94.125 394.125 94.125 393.125 93.125 C393.08419217 91.12541636 393.08245644 89.12454746 393.125 87.125 C391.145 87.125 389.165 87.125 387.125 87.125 C387.125 78.215 387.125 69.305 387.125 60.125 C389.105 60.125 391.085 60.125 393.125 60.125 C393.125 56.165 393.125 52.205 393.125 48.125 C389.165 48.125 385.205 48.125 381.125 48.125 C381.125 54.395 381.125 60.665 381.125 67.125 C378.815 67.125 376.505 67.125 374.125 67.125 C374.125 73.725 374.125 80.325 374.125 87.125 C372.145 87.125 370.165 87.125 368.125 87.125 C368.125 89.435 368.125 91.745 368.125 94.125 C359.215 94.125 350.305 94.125 341.125 94.125 C341.125 87.525 341.125 80.925 341.125 74.125 C338.815 74.125 336.505 74.125 334.125 74.125 C334.125 69.505 334.125 64.885 334.125 60.125 C332.475 60.455 330.825 60.785 329.125 61.125 C329.125 67.395 329.125 73.665 329.125 80.125 C326.815 80.125 324.505 80.125 322.125 80.125 C322.125 82.435 322.125 84.745 322.125 87.125 C319.815 87.125 317.505 87.125 315.125 87.125 C315.125 89.435 315.125 91.745 315.125 94.125 C299.945 94.125 284.765 94.125 269.125 94.125 C269.125 91.815 269.125 89.505 269.125 87.125 C266.815 87.125 264.505 87.125 262.125 87.125 C262.125 82.835 262.125 78.545 262.125 74.125 C260.145 74.125 258.165 74.125 256.125 74.125 C256.125 80.395 256.125 86.665 256.125 93.125 C251.99108649 93.81398558 248.68246505 94.25087921 244.59448242 94.25439453 C243.53706345 94.25754669 242.47964447 94.26069885 241.3901825 94.26394653 C240.26497696 94.2619223 239.13977142 94.25989807 237.98046875 94.2578125 C236.81493973 94.25876923 235.64941071 94.25972595 234.44856262 94.26071167 C231.99345851 94.26139057 229.53835259 94.25955656 227.08325195 94.25537109 C223.30871609 94.24999461 219.53429792 94.25533829 215.75976562 94.26171875 C213.37499974 94.26105839 210.99023392 94.25977811 208.60546875 94.2578125 C207.47014206 94.25983673 206.33481537 94.26186096 205.16508484 94.26394653 C204.12342667 94.26079437 203.08176849 94.25764221 202.00854492 94.25439453 C201.08732346 94.25359894 200.16610199 94.25280334 199.21696472 94.25198364 C197.125 94.125 197.125 94.125 196.125 93.125 C196.08419217 91.12541636 196.08245644 89.12454746 196.125 87.125 C194.145 87.125 192.165 87.125 190.125 87.125 C190.125 82.835 190.125 78.545 190.125 74.125 C188.145 74.125 186.165 74.125 184.125 74.125 C184.125 80.725 184.125 87.325 184.125 94.125 C164.325 94.125 144.525 94.125 124.125 94.125 C124.125 91.815 124.125 89.505 124.125 87.125 C122.145 87.125 120.165 87.125 118.125 87.125 C118.125 89.435 118.125 91.745 118.125 94.125 C113.81251391 94.15386537 109.50005238 94.17175255 105.1875 94.1875 C103.95580078 94.19587891 102.72410156 94.20425781 101.45507812 94.21289062 C100.28525391 94.21611328 99.11542969 94.21933594 97.91015625 94.22265625 C96.28412476 94.23051147 96.28412476 94.23051147 94.62524414 94.23852539 C92.125 94.125 92.125 94.125 91.125 93.125 C91.0321274 91.71274954 91.00753228 90.29591066 91.01147461 88.88061523 C91.01158791 87.52932777 91.01158791 87.52932777 91.01170349 86.15074158 C91.01686478 85.17158279 91.02202606 84.19242401 91.02734375 83.18359375 C91.0287587 82.18618668 91.03017365 81.1887796 91.03163147 80.16114807 C91.03724886 76.96156876 91.04980429 73.76205831 91.0625 70.5625 C91.06751276 68.39908955 91.07207605 66.23567801 91.07617188 64.07226562 C91.08722394 58.75648371 91.10450021 53.44075354 91.125 48.125 C87.165 48.125 83.205 48.125 79.125 48.125 C79.125 63.305 79.125 78.485 79.125 94.125 C61.635 94.125 44.145 94.125 26.125 94.125 C26.125 78.945 26.125 63.765 26.125 48.125 C21.835 48.125 17.545 48.125 13.125 48.125 C13.125 60.995 13.125 73.865 13.125 87.125 C11.145 87.125 9.165 87.125 7.125 87.125 C7.125 89.435 7.125 91.745 7.125 94.125 C3.81251813 94.15388146 0.50006833 94.17175799 -2.8125 94.1875 C-3.75802734 94.19587891 -4.70355469 94.20425781 -5.67773438 94.21289062 C-7.02641602 94.21772461 -7.02641602 94.21772461 -8.40234375 94.22265625 C-9.23499756 94.22789307 -10.06765137 94.23312988 -10.92553711 94.23852539 C-12.875 94.125 -12.875 94.125 -13.875 93.125 C-13.97022418 90.26408182 -14.00053326 87.42736379 -13.98852539 84.56616211 C-13.98867142 83.66868759 -13.98881744 82.77121307 -13.9889679 81.84654236 C-13.98826842 78.86511866 -13.98047441 75.8837566 -13.97265625 72.90234375 C-13.97079219 70.84111058 -13.96936823 68.77987696 -13.96836853 66.71864319 C-13.96454237 61.2819599 -13.95471126 55.84530314 -13.94366455 50.40863037 C-13.93345253 44.86552286 -13.92887136 39.32241108 -13.92382812 33.77929688 C-13.91308908 22.89451957 -13.89601149 12.00976198 -13.875 1.125 C-9.19793238 0.42424013 -4.73240094 -0.01092933 0 0 Z M145.125 41.125 C145.125 43.105 145.125 45.085 145.125 47.125 C149.085 47.125 153.045 47.125 157.125 47.125 C157.125 45.145 157.125 43.165 157.125 41.125 C153.165 41.125 149.205 41.125 145.125 41.125 Z M289.125 41.125 C289.125 43.435 289.125 45.745 289.125 48.125 C287.145 48.125 285.165 48.125 283.125 48.125 C283.125 49.775 283.125 51.425 283.125 53.125 C289.065 53.125 295.005 53.125 301.125 53.125 C301.125 51.475 301.125 49.825 301.125 48.125 C299.145 48.125 297.165 48.125 295.125 48.125 C295.125 45.815 295.125 43.505 295.125 41.125 C293.145 41.125 291.165 41.125 289.125 41.125 Z M414.125 41.125 C414.125 43.105 414.125 45.085 414.125 47.125 C420.065 46.63 420.065 46.63 426.125 46.125 C426.125 44.475 426.125 42.825 426.125 41.125 C422.165 41.125 418.205 41.125 414.125 41.125 Z M532.125 41.125 C532.125 43.105 532.125 45.085 532.125 47.125 C538.065 46.63 538.065 46.63 544.125 46.125 C544.125 44.475 544.125 42.825 544.125 41.125 C540.165 41.125 536.205 41.125 532.125 41.125 Z M657.125 41.125 C657.125 43.105 657.125 45.085 657.125 47.125 C663.065 46.63 663.065 46.63 669.125 46.125 C669.125 44.475 669.125 42.825 669.125 41.125 C665.165 41.125 661.205 41.125 657.125 41.125 Z M118.125 48.125 C118.125 52.085 118.125 56.045 118.125 60.125 C120.105 60.125 122.085 60.125 124.125 60.125 C124.125 56.165 124.125 52.205 124.125 48.125 C122.145 48.125 120.165 48.125 118.125 48.125 Z M138.125 48.125 C138.125 49.775 138.125 51.425 138.125 53.125 C140.105 53.125 142.085 53.125 144.125 53.125 C144.125 51.475 144.125 49.825 144.125 48.125 C142.145 48.125 140.165 48.125 138.125 48.125 Z M210.125 48.125 C210.125 54.065 210.125 60.005 210.125 66.125 C212.435 66.125 214.745 66.125 217.125 66.125 C217.125 68.435 217.125 70.745 217.125 73.125 C219.105 73.125 221.085 73.125 223.125 73.125 C223.125 70.815 223.125 68.505 223.125 66.125 C225.105 66.125 227.085 66.125 229.125 66.125 C229.125 60.185 229.125 54.245 229.125 48.125 C222.855 48.125 216.585 48.125 210.125 48.125 Z M650.125 48.125 C650.125 49.775 650.125 51.425 650.125 53.125 C652.105 53.125 654.085 53.125 656.125 53.125 C656.125 51.475 656.125 49.825 656.125 48.125 C654.145 48.125 652.165 48.125 650.125 48.125 Z M145.125 67.125 C145.125 69.105 145.125 71.085 145.125 73.125 C149.085 73.125 153.045 73.125 157.125 73.125 C157.125 71.145 157.125 69.165 157.125 67.125 C153.165 67.125 149.205 67.125 145.125 67.125 Z M288.125 67.125 C288.125 69.105 288.125 71.085 288.125 73.125 C292.415 73.125 296.705 73.125 301.125 73.125 C301.125 71.145 301.125 69.165 301.125 67.125 C296.835 67.125 292.545 67.125 288.125 67.125 Z M414.125 67.125 C414.125 69.105 414.125 71.085 414.125 73.125 C416.105 73.125 418.085 73.125 420.125 73.125 C420.125 71.145 420.125 69.165 420.125 67.125 C418.145 67.125 416.165 67.125 414.125 67.125 Z M532.125 67.125 C532.125 69.105 532.125 71.085 532.125 73.125 C534.105 73.125 536.085 73.125 538.125 73.125 C538.125 71.145 538.125 69.165 538.125 67.125 C536.145 67.125 534.165 67.125 532.125 67.125 Z M657.125 67.125 C657.125 69.105 657.125 71.085 657.125 73.125 C661.085 73.125 665.045 73.125 669.125 73.125 C669.125 71.145 669.125 69.165 669.125 67.125 C665.165 67.125 661.205 67.125 657.125 67.125 Z " fill="#FFFFFF" transform="translate(1010.875,280.875)"/>
<path d="M0 0 C58.74 0 117.48 0 178 0 C178 6.6 178 13.2 178 20 C175.69 20 173.38 20 171 20 C171 23.96 171 27.92 171 32 C164.565 32.495 164.565 32.495 158 33 C158 35.31 158 37.62 158 40 C156.02 40 154.04 40 152 40 C152 41.98 152 43.96 152 46 C149.69 46 147.38 46 145 46 C145 48.31 145 50.62 145 53 C142.69 53 140.38 53 138 53 C138 57.29 138 61.58 138 66 C136.02 66 134.04 66 132 66 C132 68.31 132 70.62 132 73 C129.69 73 127.38 73 125 73 C125 79.27 125 85.54 125 92 C123.02 92 121.04 92 119 92 C119 104.87 119 117.74 119 131 C120.98 131 122.96 131 125 131 C125 135.29 125 139.58 125 144 C126.98 144 128.96 144 131 144 C131.33 148.29 131.66 152.58 132 157 C133.98 157 135.96 157 138 157 C138 159.31 138 161.62 138 164 C140.31 164 142.62 164 145 164 C145 167.96 145 171.92 145 176 C146.98 176 148.96 176 151 176 C152 177 152 177 152.0625 180.0625 C152.041875 181.031875 152.02125 182.00125 152 183 C153.98 183 155.96 183 158 183 C158 184.98 158 186.96 158 189 C162.29 189.33 166.58 189.66 171 190 C171 192.31 171 194.62 171 197 C173.31 197 175.62 197 178 197 C178.0292483 200.20831391 178.04688189 203.41659307 178.0625 206.625 C178.07087891 207.52863281 178.07925781 208.43226563 178.08789062 209.36328125 C178.10491895 214.02904289 177.96829423 218.41013285 177 223 C172.53904833 223.86183009 168.32716971 224.12358823 163.78665161 224.12025452 C162.73153061 224.12153615 162.73153061 224.12153615 161.65509403 224.12284368 C159.31056368 224.12448385 156.96610573 224.11900119 154.62158203 224.11352539 C152.9359894 224.11324318 151.25039664 224.11340192 149.56480408 224.1139679 C144.99711243 224.11425453 140.4294471 224.10837932 135.86176157 224.10139394 C131.08515971 224.09513824 126.30855723 224.09455485 121.5319519 224.09336853 C112.49044946 224.09026176 103.44895912 224.08205717 94.407462 224.07201904 C84.11247806 224.06083762 73.81749354 224.05534234 63.52250504 224.05032361 C42.34832994 224.03987402 21.17416573 224.02228722 0 224 C0 221.69 0 219.38 0 217 C-2.31 217 -4.62 217 -7 217 C-7 215.02 -7 213.04 -7 211 C-8.98 211 -10.96 211 -13 211 C-13 145.66 -13 80.32 -13 13 C-11.02 13 -9.04 13 -7 13 C-7 10.69 -7 8.38 -7 6 C-4.69 6 -2.38 6 0 6 C0 4.02 0 2.04 0 0 Z " fill="#FFFFFF" transform="translate(374,0)"/>
<path d="M0 0 C58.74 0 117.48 0 178 0 C178 1.98 178 3.96 178 6 C179.98 6 181.96 6 184 6 C184 77.94 184 149.88 184 224 C179.71 224 175.42 224 171 224 C171 221.69 171 219.38 171 217 C168.69 217 166.38 217 164 217 C164 215.02 164 213.04 164 211 C163.030625 211.020625 162.06125 211.04125 161.0625 211.0625 C158 211 158 211 157 210 C156.95919217 208.00041636 156.95745644 205.99954746 157 204 C155.02 204 153.04 204 151 204 C151 201.69 151 199.38 151 197 C148.69 197 146.38 197 144 197 C144 195.02 144 193.04 144 191 C142.02 191 140.04 191 138 191 C138 188.69 138 186.38 138 184 C135.69 184 133.38 184 131 184 C131 182.02 131 180.04 131 178 C129.02 178 127.04 178 125 178 C125 175.69 125 173.38 125 171 C123.60974609 171.01740234 123.60974609 171.01740234 122.19140625 171.03515625 C120.39509766 171.04869141 120.39509766 171.04869141 118.5625 171.0625 C117.36753906 171.07410156 116.17257813 171.08570313 114.94140625 171.09765625 C112 171 112 171 111 170 C110.95936168 168.33382885 110.957279 166.66611905 111 165 C109.02 165 107.04 165 105 165 C105 162.69 105 160.38 105 158 C102.69 158 100.38 158 98 158 C98 155.69 98 153.38 98 151 C96.02 151 94.04 151 92 151 C92 149.02 92 147.04 92 145 C89.69 145 87.38 145 85 145 C85 142.69 85 140.38 85 138 C81.04 137.67 77.08 137.34 73 137 C73 139.64 73 142.28 73 145 C70.69 145 68.38 145 66 145 C66 146.98 66 148.96 66 151 C64.02 151 62.04 151 60 151 C59.505 157.435 59.505 157.435 59 164 C57.02 164 55.04 164 53 164 C53 166.31 53 168.62 53 171 C51.02 171 49.04 171 47 171 C47 173.31 47 175.62 47 178 C44.36 178 41.72 178 39 178 C39 179.65 39 181.3 39 183 C37.35 183 35.7 183 34 183 C34 185.64 34 188.28 34 191 C31.69 191 29.38 191 27 191 C27 192.98 27 194.96 27 197 C24.69 197 22.38 197 20 197 C20 201.29 20 205.58 20 210 C18.02 210 16.04 210 14 210 C14 212.31 14 214.62 14 217 C11.69 217 9.38 217 7 217 C7 219.31 7 221.62 7 224 C2.38 224 -2.24 224 -7 224 C-7 152.06 -7 80.12 -7 6 C-4.69 6 -2.38 6 0 6 C0 4.02 0 2.04 0 0 Z " fill="#FFFFFF" transform="translate(26,0)"/>
<path d="M0 0 C61.05 0 122.1 0 185 0 C185 4.62 185 9.24 185 14 C182.69 14 180.38 14 178 14 C178 16.31 178 18.62 178 21 C176.02 21 174.04 21 172 21 C172 22.98 172 24.96 172 27 C167.71 27 163.42 27 159 27 C159 29.31 159 31.62 159 34 C156.36 34 153.72 34 151 34 C151 35.98 151 37.96 151 40 C145.06 40.495 145.06 40.495 139 41 C139 42.98 139 44.96 139 47 C136.69 47 134.38 47 132 47 C132 49.31 132 51.62 132 54 C127.71 54 123.42 54 119 54 C119 55.65 119 57.3 119 59 C140.78 59 162.56 59 185 59 C185 61.31 185 63.62 185 66 C186.98 66 188.96 66 191 66 C191 107.58 191 149.16 191 192 C186.71 192 182.42 192 178 192 C178 193.65 178 195.3 178 197 C173.72026813 197.81530636 169.68138217 198.12555681 165.32728577 198.12698364 C164.68189691 198.12854363 164.03650804 198.13010362 163.37156194 198.13171089 C161.22302608 198.13567875 159.0745617 198.13254765 156.92602539 198.12939453 C155.37986714 198.13075045 153.8337092 198.13253146 152.28755188 198.13470459 C148.09748008 198.13925655 143.90743296 198.13749845 139.71736073 198.1343255 C135.327071 198.1317899 130.93678335 198.13414283 126.54649353 198.13571167 C119.17332582 198.13753005 111.80016814 198.13513594 104.42700195 198.13037109 C95.91099368 198.12493113 87.39500936 198.12669054 78.87900168 198.1321975 C71.55993383 198.13674047 64.24087317 198.13737331 56.92180437 198.13475883 C52.55375713 198.13320232 48.18572114 198.13298509 43.81767464 198.13629532 C39.70957892 198.13919116 35.60151396 198.13716689 31.49342155 198.13140106 C29.98861619 198.13008256 28.48380822 198.13045208 26.97900391 198.13266373 C24.91920066 198.13541116 22.85949497 198.13195044 20.79969788 198.12698364 C19.07334657 198.1264181 19.07334657 198.1264181 17.31211948 198.12584114 C13.81706363 197.99304949 10.4516185 197.55232687 7 197 C7 195.02 7 193.04 7 191 C5.02 191 3.04 191 1 191 C1 189.02 1 187.04 1 185 C2.98 185 4.96 185 7 185 C7 182.69 7 180.38 7 178 C8.98 178 10.96 178 13 178 C13 175.69 13 173.38 13 171 C17.62 170.67 22.24 170.34 27 170 C27 168.02 27 166.04 27 164 C28.98 164 30.96 164 33 164 C33 162.02 33 160.04 33 158 C35.31 158 37.62 158 40 158 C40 155.69 40 153.38 40 151 C41.98 151 43.96 151 46 151 C46 149.02 46 147.04 46 145 C50.29 144.67 54.58 144.34 59 144 C59 142.02 59 140.04 59 138 C61.31 138 63.62 138 66 138 C66 136.02 66 134.04 66 132 C44.55 132 23.1 132 1 132 C0.31093034 127.86558201 -0.12433121 124.57986853 -0.12025452 120.49502563 C-0.12163201 119.42879786 -0.12300951 118.36257008 -0.12442875 117.26403236 C-0.12083064 116.10520735 -0.11723253 114.94638233 -0.11352539 113.75244141 C-0.11364593 112.5027828 -0.11376646 111.2531242 -0.11389065 109.96559715 C-0.11326889 106.59707104 -0.10833602 103.22860708 -0.10128021 99.86009216 C-0.095569 96.69473369 -0.09531621 93.52937669 -0.09460449 90.36401367 C-0.08936521 81.11767107 -0.07540399 71.87133508 -0.0625 62.625 C-0.041875 41.95875 -0.02125 21.2925 0 0 Z " fill="#FFFFFF" transform="translate(19,229)"/>
<path d="M0 0 C6.93 0 13.86 0 21 0 C21 2.31 21 4.62 21 7 C22.98 7 24.96 7 27 7 C27 9.31 27 11.62 27 14 C29.31 14 31.62 14 34 14 C34 15.98 34 17.96 34 20 C35.98 20 37.96 20 40 20 C40 22.31 40 24.62 40 27 C44.29 27 48.58 27 53 27 C53 28.98 53 30.96 53 33 C55.31 33 57.62 33 60 33 C60 34.98 60 36.96 60 39 C66.6 39.33 73.2 39.66 80 40 C80 41.98 80 43.96 80 46 C90.56 46 101.12 46 112 46 C112 44.02 112 42.04 112 40 C118.27 39.67 124.54 39.34 131 39 C131 37.02 131 35.04 131 33 C133.31 33 135.62 33 138 33 C138 31.02 138 29.04 138 27 C142.29 27 146.58 27 151 27 C151 24.69 151 22.38 151 20 C153.31 20 155.62 20 158 20 C158 17.69 158 15.38 158 13 C159.98 13 161.96 13 164 13 C164 11.02 164 9.04 164 7 C166.31 7 168.62 7 171 7 C171 4.69 171 2.38 171 0 C175.62 0 180.24 0 185 0 C185 63.36 185 126.72 185 192 C180.71 192 176.42 192 172 192 C172 193.98 172 195.96 172 198 C152.28528804 198.02336337 132.57057888 198.04099609 112.85585594 198.05181217 C103.70191358 198.05696781 94.54797981 198.0639966 85.39404297 198.07543945 C77.41520864 198.08540862 69.43638054 198.09185876 61.45754015 198.09408849 C57.23307246 198.0953918 53.00862259 198.09845367 48.78416061 198.10573006 C44.80665561 198.11252547 40.82917575 198.11460978 36.8516655 198.11310768 C35.39320743 198.11338242 33.93474851 198.11536664 32.47629547 198.11920547 C30.48154817 198.12419766 28.48678732 198.12238481 26.49203491 198.12025452 C25.3766654 198.12117631 24.26129589 198.1220981 23.1121273 198.12304783 C19.99685664 197.99987572 17.06020484 197.58093995 14 197 C14 195.35 14 193.7 14 192 C11.69 192 9.38 192 7 192 C7 189.69 7 187.38 7 185 C4.69 185 2.38 185 0 185 C0 123.95 0 62.9 0 0 Z " fill="#FFFFFF" transform="translate(367,229)"/>
<path d="M0 0 C34.98 0 69.96 0 106 0 C106 73.92 106 147.84 106 224 C71.02 224 36.04 224 0 224 C0 150.08 0 76.16 0 0 Z " fill="#FFFFFF" transform="translate(236,0)"/>
<path d="M0 0 C41.58 0 83.16 0 126 0 C126 8.91 126 17.82 126 27 C123.69 27 121.38 27 119 27 C119 31.62 119 36.24 119 41 C117.02 41 115.04 41 113 41 C113.01160156 41.85464844 113.02320313 42.70929688 113.03515625 43.58984375 C113.04417969 44.69457031 113.05320312 45.79929687 113.0625 46.9375 C113.07410156 48.03964844 113.08570313 49.14179688 113.09765625 50.27734375 C113 53 113 53 112 54 C110.00041636 54.04080783 107.99954746 54.04254356 106 54 C106 55.98 106 57.96 106 60 C104.02 60 102.04 60 100 60 C100 64.29 100 68.58 100 73 C97.69 73 95.38 73 93 73 C93 75.31 93 77.62 93 80 C91.02 80 89.04 80 87 80 C87 84.29 87 88.58 87 93 C84.69 93 82.38 93 80 93 C80 94.98 80 96.96 80 99 C82.31 99 84.62 99 87 99 C87 103.29 87 107.58 87 112 C88.98 112 90.96 112 93 112 C93 116.29 93 120.58 93 125 C95.31 125 97.62 125 100 125 C100 127.31 100 129.62 100 132 C101.98 132 103.96 132 106 132 C106 136.29 106 140.58 106 145 C108.31 145 110.62 145 113 145 C113 147.31 113 149.62 113 152 C114.98 152 116.96 152 119 152 C119 155.96 119 159.92 119 164 C121.31 164 123.62 164 126 164 C126 173.24 126 182.48 126 192 C123.69 192 121.38 192 119 192 C119 193.65 119 195.3 119 197 C113.70743126 198.08948349 108.60999808 198.14143058 103.234375 198.12939453 C102.26777954 198.13114685 101.30118408 198.13289917 100.30529785 198.13470459 C97.12018013 198.1390945 93.93511825 198.13619517 90.75 198.1328125 C88.53092437 198.13348636 86.31184881 198.13445707 84.09277344 198.13571167 C79.44595638 198.13718477 74.79915857 198.13504653 70.15234375 198.13037109 C64.20056628 198.12467406 58.24883392 198.12795513 52.29705811 198.13394356 C47.71597963 198.13755962 43.13491181 198.13640577 38.55383301 198.13381577 C36.35941564 198.13314939 34.16499729 198.1339648 31.97058105 198.13629532 C28.90223633 198.13883895 25.83396432 198.13495706 22.765625 198.12939453 C21.86154907 198.13141876 20.95747314 198.13344299 20.02600098 198.13552856 C15.56899705 198.12058435 11.38734196 197.90314116 7 197 C7 195.35 7 193.7 7 192 C2.71 191.67 -1.58 191.34 -6 191 C-6 130.28 -6 69.56 -6 7 C-4.02 7 -2.04 7 0 7 C0 4.69 0 2.38 0 0 Z " fill="#FFFFFF" transform="translate(229,229)"/>
<path d="M0 0 C8.91 0 17.82 0 27 0 C27 6.6 27 13.2 27 20 C25.02 20 23.04 20 21 20 C21 21.98 21 23.96 21 26 C24.96 26 28.92 26 33 26 C33 24.02 33 22.04 33 20 C37.62 20 42.24 20 47 20 C47 24.29 47 28.58 47 33 C48.98 33 50.96 33 53 33 C53 39.27 53 45.54 53 52 C54.98 52 56.96 52 59 52 C59 50.02 59 48.04 59 46 C61.31 46 63.62 46 66 46 C66 39.4 66 32.8 66 26 C67.98 26 69.96 26 72 26 C72 24.02 72 22.04 72 20 C76.62 20 81.24 20 86 20 C86 21.98 86 23.96 86 26 C88.31 26 90.62 26 93 26 C93 30.29 93 34.58 93 39 C94.65 39 96.3 39 98 39 C97.979375 38.030625 97.95875 37.06125 97.9375 36.0625 C98 33 98 33 99 32 C100.99958364 31.95919217 103.00045254 31.95745644 105 32 C105 30.02 105 28.04 105 26 C107.31 26 109.62 26 112 26 C112 24.02 112 22.04 112 20 C120.91 20 129.82 20 139 20 C139 21.98 139 23.96 139 26 C140.98 26 142.96 26 145 26 C145 28.31 145 30.62 145 33 C147.31 33 149.62 33 152 33 C152 35.31 152 37.62 152 40 C153.98 40 155.96 40 158 40 C158 35.38 158 30.76 158 26 C159.98 26 161.96 26 164 26 C164 24.02 164 22.04 164 20 C177.2 20 190.4 20 204 20 C204 21.98 204 23.96 204 26 C208.29 26 212.58 26 217 26 C217 24.02 217 22.04 217 20 C227.89 20 238.78 20 250 20 C250 21.98 250 23.96 250 26 C252.31 26 254.62 26 257 26 C257 28.31 257 30.62 257 33 C258.98 33 260.96 33 263 33 C263 50.49 263 67.98 263 86 C261.02 86 259.04 86 257 86 C257 88.31 257 90.62 257 93 C250.46721214 93.02527002 243.93443679 93.04283292 237.40161133 93.05493164 C235.17732268 93.05997317 232.95303737 93.06680623 230.72875977 93.07543945 C227.53921691 93.08751298 224.34971771 93.09322996 221.16015625 93.09765625 C219.65860741 93.10539818 219.65860741 93.10539818 218.12672424 93.11329651 C217.20584518 93.11337204 216.28496613 93.11344757 215.33618164 93.11352539 C214.52121719 93.115746 213.70625275 93.11796661 212.86659241 93.12025452 C211 93 211 93 210 92 C209.95919217 90.00041636 209.95745644 87.99954746 210 86 C208.02 86 206.04 86 204 86 C204 79.07 204 72.14 204 65 C205.98 65 207.96 65 210 65 C210 61.04 210 57.08 210 53 C208.02 53 206.04 53 204 53 C204 51.02 204 49.04 204 47 C197.73 47 191.46 47 185 47 C185 62.18 185 77.36 185 93 C176.09 93 167.18 93 158 93 C158 88.38 158 83.76 158 79 C156.02 79 154.04 79 152 79 C152 81.31 152 83.62 152 86 C149.69 86 147.38 86 145 86 C145 88.31 145 90.62 145 93 C131.8 93 118.6 93 105 93 C105 90.69 105 88.38 105 86 C102.69 86 100.38 86 98 86 C98 83.69 98 81.38 98 79 C96.02 79 94.04 79 92 79 C92 68.44 92 57.88 92 47 C90.02 47 88.04 47 86 47 C86 53.27 86 59.54 86 66 C84.02 66 82.04 66 80 66 C80 70.29 80 74.58 80 79 C77.69 79 75.38 79 73 79 C73 83.62 73 88.24 73 93 C64.09 93 55.18 93 46 93 C46 88.38 46 83.76 46 79 C43.69 79 41.38 79 39 79 C39 74.38 39 69.76 39 65 C37.02 65 35.04 65 33 65 C33 59.06 33 53.12 33 47 C31.02 47 29.04 47 27 47 C27 62.18 27 77.36 27 93 C18.09 93 9.18 93 0 93 C0 70.89 0 48.78 0 26 C2.31 26 4.62 26 7 26 C7 24.02 7 22.04 7 20 C4.69 20 2.38 20 0 20 C0 13.4 0 6.8 0 0 Z M119 40 C119 43.96 119 47.92 119 52 C122.96 52 126.92 52 131 52 C131 50.35 131 48.7 131 47 C129.02 47 127.04 47 125 47 C125 44.69 125 42.38 125 40 C123.02 40 121.04 40 119 40 Z M231 40 C231 41.65 231 43.3 231 45 C232.65 45 234.3 45 236 45 C236 43.35 236 41.7 236 40 C234.35 40 232.7 40 231 40 Z M119 66 C119 67.98 119 69.96 119 72 C125.27 72 131.54 72 138 72 C138 70.02 138 68.04 138 66 C131.73 66 125.46 66 119 66 Z " fill="#FFFFFF" transform="translate(1890,282)"/>
<path d="M0 0 C1.0621875 -0.00257813 2.124375 -0.00515625 3.21875 -0.0078125 C6.66375238 0.13162807 10.08682913 0.63740416 13.5 1.125 C13.5 9.705 13.5 18.285 13.5 27.125 C15.48 27.125 17.46 27.125 19.5 27.125 C19.5 25.145 19.5 23.165 19.5 21.125 C21.81 21.125 24.12 21.125 26.5 21.125 C26.5 18.815 26.5 16.505 26.5 14.125 C28.48 14.125 30.46 14.125 32.5 14.125 C32.5 11.815 32.5 9.505 32.5 7.125 C34.81 7.125 37.12 7.125 39.5 7.125 C39.5 5.145 39.5 3.165 39.5 1.125 C45.79992398 -0.02044072 52.1050535 -0.21794666 58.5 0.125 C59.5 1.125 59.5 1.125 59.61352539 3.71704102 C59.60567017 5.40591431 59.60567017 5.40591431 59.59765625 7.12890625 C59.59282227 8.95131836 59.59282227 8.95131836 59.58789062 10.81054688 C59.57532227 12.72963867 59.57532227 12.72963867 59.5625 14.6875 C59.55798828 15.97076172 59.55347656 17.25402344 59.54882812 18.57617188 C59.53699545 21.75916022 59.52051068 24.94205762 59.5 28.125 C57.19 28.125 54.88 28.125 52.5 28.125 C52.5 30.105 52.5 32.085 52.5 34.125 C50.52 34.125 48.54 34.125 46.5 34.125 C46.5 40.395 46.5 46.665 46.5 53.125 C48.81 53.125 51.12 53.125 53.5 53.125 C53.5 55.435 53.5 57.745 53.5 60.125 C55.48 60.125 57.46 60.125 59.5 60.125 C59.5 62.435 59.5 64.745 59.5 67.125 C61.48 67.125 63.46 67.125 65.5 67.125 C65.995 73.56 65.995 73.56 66.5 80.125 C68.15 80.125 69.8 80.125 71.5 80.125 C71.5 60.655 71.5 41.185 71.5 21.125 C85.03 21.125 98.56 21.125 112.5 21.125 C112.5 23.105 112.5 25.085 112.5 27.125 C114.48 27.125 116.46 27.125 118.5 27.125 C118.33628906 26.34898437 118.17257812 25.57296875 118.00390625 24.7734375 C117.355088 20.0757922 117.39359613 15.48486339 117.4375 10.75 C117.44201172 9.82316406 117.44652344 8.89632813 117.45117188 7.94140625 C117.46288426 5.66920291 117.47928628 3.39713612 117.5 1.125 C132.28132118 -0.20757403 132.28132118 -0.20757403 138.5 1.125 C138.5 3.105 138.5 5.085 138.5 7.125 C139.9540625 7.0940625 139.9540625 7.0940625 141.4375 7.0625 C144.5 7.125 144.5 7.125 145.5 8.125 C145.57258946 10.31139453 145.58373783 12.50000389 145.5625 14.6875 C145.55347656 15.88503906 145.54445313 17.08257812 145.53515625 18.31640625 C145.51775391 19.70666016 145.51775391 19.70666016 145.5 21.125 C143.19 21.125 140.88 21.125 138.5 21.125 C138.5 23.105 138.5 25.085 138.5 27.125 C140.48 27.125 142.46 27.125 144.5 27.125 C144.5 29.435 144.5 31.745 144.5 34.125 C146.48 34.125 148.46 34.125 150.5 34.125 C150.5 31.815 150.5 29.505 150.5 27.125 C152.81 27.125 155.12 27.125 157.5 27.125 C157.5 25.145 157.5 23.165 157.5 21.125 C168.39 21.125 179.28 21.125 190.5 21.125 C190.5 23.105 190.5 25.085 190.5 27.125 C192.81 27.125 195.12 27.125 197.5 27.125 C197.5 29.435 197.5 31.745 197.5 34.125 C199.81 34.125 202.12 34.125 204.5 34.125 C204.5 51.615 204.5 69.105 204.5 87.125 C202.19 87.125 199.88 87.125 197.5 87.125 C197.5 89.435 197.5 91.745 197.5 94.125 C181.99 94.125 166.48 94.125 150.5 94.125 C150.5 91.815 150.5 89.505 150.5 87.125 C148.52 87.125 146.54 87.125 144.5 87.125 C144.5 89.105 144.5 91.085 144.5 93.125 C139.04168388 94.26554367 133.73474458 94.27385912 128.1875 94.25 C127.26904297 94.25386719 126.35058594 94.25773437 125.40429688 94.26171875 C124.53224609 94.26042969 123.66019531 94.25914062 122.76171875 94.2578125 C121.57002075 94.25612061 121.57002075 94.25612061 120.35424805 94.25439453 C118.5 94.125 118.5 94.125 117.5 93.125 C117.4071274 91.71274954 117.38253228 90.29591066 117.38647461 88.88061523 C117.38655014 87.97975693 117.38662567 87.07889862 117.38670349 86.15074158 C117.39186478 85.17158279 117.39702606 84.19242401 117.40234375 83.18359375 C117.40446617 81.68748314 117.40446617 81.68748314 117.40663147 80.16114807 C117.41224886 76.96156876 117.42480429 73.76205831 117.4375 70.5625 C117.44251276 68.39908955 117.44707605 66.23567801 117.45117188 64.07226562 C117.46222394 58.75648371 117.47950021 53.44075354 117.5 48.125 C111.56 48.125 105.62 48.125 99.5 48.125 C99.5 50.105 99.5 52.085 99.5 54.125 C97.19 54.125 94.88 54.125 92.5 54.125 C92.5 67.325 92.5 80.525 92.5 94.125 C85.9 94.125 79.3 94.125 72.5 94.125 C71.5 93.125 71.5 93.125 71.4375 90.0625 C71.458125 89.093125 71.47875 88.12375 71.5 87.125 C69.85 87.125 68.2 87.125 66.5 87.125 C66.5 89.435 66.5 91.745 66.5 94.125 C59.57 94.125 52.64 94.125 45.5 94.125 C45.5 91.815 45.5 89.505 45.5 87.125 C43.52 87.125 41.54 87.125 39.5 87.125 C39.5 84.815 39.5 82.505 39.5 80.125 C37.19 80.125 34.88 80.125 32.5 80.125 C32.5 78.145 32.5 76.165 32.5 74.125 C30.52 74.125 28.54 74.125 26.5 74.125 C26.5 69.835 26.5 65.545 26.5 61.125 C24.52 61.125 22.54 61.125 20.5 61.125 C20.5 63.105 20.5 65.085 20.5 67.125 C18.19 67.125 15.88 67.125 13.5 67.125 C13.5 76.035 13.5 84.945 13.5 94.125 C10.344375 94.145625 7.18875 94.16625 3.9375 94.1875 C2.9570874 94.196604 1.9766748 94.20570801 0.96655273 94.21508789 C0.17192627 94.21758545 -0.6227002 94.22008301 -1.44140625 94.22265625 C-2.64325562 94.23051147 -2.64325562 94.23051147 -3.86938477 94.23852539 C-7.09797183 94.09919425 -10.30088702 93.58201614 -13.5 93.125 C-13.5 62.765 -13.5 32.405 -13.5 1.125 C-8.75218085 0.44674012 -4.7103782 -0.01143296 0 0 Z M171.5 41.125 C171.5 42.775 171.5 44.425 171.5 46.125 C173.15 46.125 174.8 46.125 176.5 46.125 C176.5 44.475 176.5 42.825 176.5 41.125 C174.85 41.125 173.2 41.125 171.5 41.125 Z M145.5 54.125 C145.5 58.085 145.5 62.045 145.5 66.125 C147.15 66.125 148.8 66.125 150.5 66.125 C150.5 62.165 150.5 58.205 150.5 54.125 C148.85 54.125 147.2 54.125 145.5 54.125 Z M164.5 67.125 C164.5 69.105 164.5 71.085 164.5 73.125 C166.48 73.125 168.46 73.125 170.5 73.125 C170.5 71.145 170.5 69.165 170.5 67.125 C168.52 67.125 166.54 67.125 164.5 67.125 Z " fill="#FFFFFF" transform="translate(787.5,280.875)"/>
<path d="M0 0 C17.82 0 35.64 0 54 0 C54 1.98 54 3.96 54 6 C55.30324219 5.98259766 55.30324219 5.98259766 56.6328125 5.96484375 C57.78523438 5.95582031 58.93765625 5.94679688 60.125 5.9375 C61.26195313 5.92589844 62.39890625 5.91429688 63.5703125 5.90234375 C66.8129156 5.994673 69.81932612 6.38610094 73 7 C74.05476516 12.16068491 74.12969365 17.09712007 74.09765625 22.3359375 C74.0962413 23.21528961 74.09482635 24.09464172 74.09336853 25.00064087 C74.08779877 27.79212942 74.0752519 30.58353594 74.0625 33.375 C74.05748109 35.27473842 74.05291887 37.1744781 74.04882812 39.07421875 C74.03783925 43.71617714 74.02059557 48.35807469 74 53 C71.69 53 69.38 53 67 53 C67 56.96 67 60.92 67 65 C69.31 65 71.62 65 74 65 C74 69.62 74 74.24 74 79 C75.65 79 77.3 79 79 79 C79 52.93 79 26.86 79 0 C101.11 0 123.22 0 146 0 C146 19.47 146 38.94 146 59 C147.98 59 149.96 59 152 59 C152 67.91 152 76.82 152 86 C150.02 86 148.04 86 146 86 C146 87.98 146 89.96 146 92 C113 92 80 92 46 92 C46 90.02 46 88.04 46 86 C44.02 86 42.04 86 40 86 C40 83.69 40 81.38 40 79 C38.02 79 36.04 79 34 79 C34 83.29 34 87.58 34 92 C22.78 92 11.56 92 0 92 C0 61.64 0 31.28 0 0 Z M113 27 C113 28.65 113 30.3 113 32 C116.96 32 120.92 32 125 32 C125 30.35 125 28.7 125 27 C121.04 27 117.08 27 113 27 Z M28 33 C28 34.98 28 36.96 28 39 C33.94 39 39.88 39 46 39 C46 37.02 46 35.04 46 33 C40.06 33 34.12 33 28 33 Z M119 60 C119 61.65 119 63.3 119 65 C120.98 65 122.96 65 125 65 C125 63.35 125 61.7 125 60 C123.02 60 121.04 60 119 60 Z " fill="#FFFFFF" transform="translate(2139,59)"/>
<path d="M0 0 C19.47 0 38.94 0 59 0 C59 1.98 59 3.96 59 6 C60.39025391 5.98259766 60.39025391 5.98259766 61.80859375 5.96484375 C63.00613281 5.95582031 64.20367188 5.94679688 65.4375 5.9375 C66.63246094 5.92589844 67.82742188 5.91429688 69.05859375 5.90234375 C72 6 72 6 73 7 C73.0928726 8.41225046 73.11746772 9.82908934 73.11352539 11.24438477 C73.11341209 12.59567223 73.11341209 12.59567223 73.11329651 13.97425842 C73.10813522 14.95341721 73.10297394 15.93257599 73.09765625 16.94140625 C73.0962413 17.93881332 73.09482635 18.9362204 73.09336853 19.96385193 C73.08775114 23.16343124 73.07519571 26.36294169 73.0625 29.5625 C73.05748724 31.72591045 73.05292395 33.88932199 73.04882812 36.05273438 C73.03777607 41.36851325 73.02102104 46.68425171 73 52 C74.98 52 76.96 52 79 52 C79 58.6 79 65.2 79 72 C80.98 72 82.96 72 85 72 C85 65.4 85 58.8 85 52 C86.98 52 88.96 52 91 52 C90.98839844 51.13117188 90.97679687 50.26234375 90.96484375 49.3671875 C90.95582031 48.21476562 90.94679688 47.06234375 90.9375 45.875 C90.92589844 44.73804688 90.91429687 43.60109375 90.90234375 42.4296875 C90.994673 39.1870844 91.38610094 36.18067388 92 33 C93.98 33 95.96 33 98 33 C97.98839844 32.05898437 97.97679687 31.11796875 97.96484375 30.1484375 C97.95582031 28.90320313 97.94679688 27.65796875 97.9375 26.375 C97.92589844 25.14523438 97.91429687 23.91546875 97.90234375 22.6484375 C97.99136076 19.32276209 98.36313913 16.25952412 99 13 C100.98 13 102.96 13 105 13 C105 8.71 105 4.42 105 0 C115.89 0 126.78 0 138 0 C138 4.29 138 8.58 138 13 C140.31 13 142.62 13 145 13 C145 17.29 145 21.58 145 26 C146.98 26 148.96 26 151 26 C151 30.29 151 34.58 151 39 C153.31 39 155.62 39 158 39 C158 45.6 158 52.2 158 59 C160.31 59 162.62 59 165 59 C165 65.27 165 71.54 165 78 C166.98 78 168.96 78 171 78 C171 82.62 171 87.24 171 92 C159.78 92 148.56 92 137 92 C137 90.02 137 88.04 137 86 C135.02 86 133.04 86 131 86 C131 83.69 131 81.38 131 79 C124.73 79 118.46 79 112 79 C112 83.29 112 87.58 112 92 C100.78 92 89.56 92 78 92 C78 85.4 78 78.8 78 72 C76.35 72 74.7 72 73 72 C73 76.62 73 81.24 73 86 C68.71 86 64.42 86 60 86 C60 87.98 60 89.96 60 92 C40.2 92 20.4 92 0 92 C0 61.64 0 31.28 0 0 Z M33 27 C33 28.65 33 30.3 33 32 C34.98 32 36.96 32 39 32 C39 30.35 39 28.7 39 27 C37.02 27 35.04 27 33 27 Z M33 60 C33 63.63 33 67.26 33 71 C34.98 71 36.96 71 39 71 C39 69.02 39 67.04 39 65 C41.31 65 43.62 65 46 65 C46 63.35 46 61.7 46 60 C41.71 60 37.42 60 33 60 Z " fill="#FFFFFF" transform="translate(1280,59)"/>
<path d="M0 0 C1.134375 0.10183594 2.26875 0.20367187 3.4375 0.30859375 C4.7059375 0.43427734 4.7059375 0.43427734 6 0.5625 C6 2.5425 6 4.5225 6 6.5625 C7.98 6.5625 9.96 6.5625 12 6.5625 C12 11.1825 12 15.8025 12 20.5625 C13.98 20.5625 15.96 20.5625 18 20.5625 C18 13.9625 18 7.3625 18 0.5625 C25.54670186 -0.1450033 31.38711083 -0.38911115 39 0.5625 C39 7.1625 39 13.7625 39 20.5625 C49.56 20.5625 60.12 20.5625 71 20.5625 C71 26.8325 71 33.1025 71 39.5625 C73.31 39.5625 75.62 39.5625 78 39.5625 C78 46.1625 78 52.7625 78 59.5625 C79.98 59.5625 81.96 59.5625 84 59.5625 C84 53.2925 84 47.0225 84 40.5625 C85.98 40.5625 87.96 40.5625 90 40.5625 C90 35.9425 90 31.3225 90 26.5625 C92.31 26.5625 94.62 26.5625 97 26.5625 C97 24.5825 97 22.6025 97 20.5625 C101.62 20.5625 106.24 20.5625 111 20.5625 C111 22.5425 111 24.5225 111 26.5625 C112.98 26.5625 114.96 26.5625 117 26.5625 C117 31.1825 117 35.8025 117 40.5625 C115.02 40.5625 113.04 40.5625 111 40.5625 C111 47.1625 111 53.7625 111 60.5625 C108.69 60.5625 106.38 60.5625 104 60.5625 C104 66.8325 104 73.1025 104 79.5625 C102.02 79.5625 100.04 79.5625 98 79.5625 C98.01160156 80.48933594 98.02320312 81.41617188 98.03515625 82.37109375 C98.04417969 83.56863281 98.05320312 84.76617187 98.0625 86 C98.07410156 87.19496094 98.08570312 88.38992188 98.09765625 89.62109375 C98 92.5625 98 92.5625 97 93.5625 C95.02 93.5625 93.04 93.5625 91 93.5625 C91 99.8325 91 106.1025 91 112.5625 C86.71 112.5625 82.42 112.5625 78 112.5625 C78 114.8725 78 117.1825 78 119.5625 C73.62501407 119.59163072 69.25005326 119.60934286 64.875 119.625 C63.6375 119.63337891 62.4 119.64175781 61.125 119.65039062 C59.32675781 119.65522461 59.32675781 119.65522461 57.4921875 119.66015625 C55.84259033 119.66801147 55.84259033 119.66801147 54.15966797 119.67602539 C51.02381895 119.5633558 48.07940617 119.14876376 45 118.5625 C43.69117467 111.86378769 43.93575563 105.37240273 44 98.5625 C50.6 98.5625 57.2 98.5625 64 98.5625 C64 96.5825 64 94.6025 64 92.5625 C65.98 92.5625 67.96 92.5625 70 92.5625 C70 90.5825 70 88.6025 70 86.5625 C68.02 86.5625 66.04 86.5625 64 86.5625 C64 79.9625 64 73.3625 64 66.5625 C61.69 66.5625 59.38 66.5625 57 66.5625 C57 64.2525 57 61.9425 57 59.5625 C55.02 59.5625 53.04 59.5625 51 59.5625 C51 53.2925 51 47.0225 51 40.5625 C47.04 40.5625 43.08 40.5625 39 40.5625 C39 49.1425 39 57.7225 39 66.5625 C40.65 66.5625 42.3 66.5625 44 66.5625 C44 68.5425 44 70.5225 44 72.5625 C48.62 72.5625 53.24 72.5625 58 72.5625 C58 79.4925 58 86.4225 58 93.5625 C44.8 93.5625 31.6 93.5625 18 93.5625 C18 76.0725 18 58.5825 18 40.5625 C16.02 40.5625 14.04 40.5625 12 40.5625 C12 57.7225 12 74.8825 12 92.5625 C3.11636792 94.04310535 -5.99382928 93.5625 -15 93.5625 C-15 62.8725 -15 32.1825 -15 0.5625 C-9.36371669 -0.14203541 -5.43430904 -0.50946647 0 0 Z M6 20.5625 C6 22.5425 6 24.5225 6 26.5625 C7.65 26.5625 9.3 26.5625 11 26.5625 C11 24.5825 11 22.6025 11 20.5625 C9.35 20.5625 7.7 20.5625 6 20.5625 Z " fill="#FFFFFF" transform="translate(2174,281.4375)"/>
<path d="M0 0 C1.084021 0.00523682 2.16804199 0.01047363 3.28491211 0.01586914 C4.45473633 0.0190918 5.62456055 0.02231445 6.82983398 0.02563477 C8.0615332 0.03401367 9.29323242 0.04239258 10.56225586 0.05102539 C12.41560547 0.05779297 12.41560547 0.05779297 14.30639648 0.06469727 C17.37089703 0.07652931 20.43530307 0.09301366 23.49975586 0.11352539 C23.49975586 2.42352539 23.49975586 4.73352539 23.49975586 7.11352539 C30.09975586 7.11352539 36.69975586 7.11352539 43.49975586 7.11352539 C43.49975586 11.40352539 43.49975586 15.69352539 43.49975586 20.11352539 C44.86596069 19.86904663 44.86596069 19.86904663 46.25976562 19.61962891 C51.60288722 18.86119911 56.95388518 18.99011748 62.33959961 19.01586914 C63.46169327 19.01728409 64.58378693 19.01869904 65.73988342 19.02015686 C69.30570194 19.02573139 72.87145648 19.03827923 76.43725586 19.05102539 C78.86238516 19.05604368 81.28751545 19.06060601 83.71264648 19.06469727 C89.6417074 19.07569248 95.5707208 19.09293956 101.49975586 19.11352539 C101.49975586 15.15352539 101.49975586 11.19352539 101.49975586 7.11352539 C108.42975586 7.11352539 115.35975586 7.11352539 122.49975586 7.11352539 C122.49975586 11.40352539 122.49975586 15.69352539 122.49975586 20.11352539 C124.22154053 19.95126465 125.9433252 19.78900391 127.71728516 19.62182617 C134.16259921 19.08689395 140.55472319 18.96854478 147.01928711 18.98071289 C148.73350105 18.9792778 148.73350105 18.9792778 150.48234558 18.97781372 C152.87641455 18.97713839 155.27048542 18.97894709 157.66455078 18.9831543 C161.3199473 18.98853672 164.97522235 18.98317449 168.63061523 18.97680664 C170.96850613 18.97746705 173.30639695 18.97874745 175.64428711 18.98071289 C177.27259209 18.97767654 177.27259209 18.97767654 178.93379211 18.97457886 C180.46655037 18.9793071 180.46655037 18.9793071 182.03027344 18.98413086 C183.36497429 18.98532425 183.36497429 18.98532425 184.72663879 18.98654175 C188.00249994 19.13654652 191.25342064 19.64976322 194.49975586 20.11352539 C194.49975586 31.33352539 194.49975586 42.55352539 194.49975586 54.11352539 C192.18975586 54.11352539 189.87975586 54.11352539 187.49975586 54.11352539 C187.49975586 56.09352539 187.49975586 58.07352539 187.49975586 60.11352539 C183.20975586 60.11352539 178.91975586 60.11352539 174.49975586 60.11352539 C174.49975586 64.40352539 174.49975586 68.69352539 174.49975586 73.11352539 C167.89975586 73.11352539 161.29975586 73.11352539 154.49975586 73.11352539 C154.49975586 68.82352539 154.49975586 64.53352539 154.49975586 60.11352539 C137.33975586 60.11352539 120.17975586 60.11352539 102.49975586 60.11352539 C101.8377266 56.14134981 101.3767799 53.05182242 101.40209961 49.15258789 C101.40693359 47.82807617 101.40693359 47.82807617 101.41186523 46.47680664 C101.42443359 45.12135742 101.42443359 45.12135742 101.43725586 43.73852539 C101.44176758 42.81168945 101.4462793 41.88485352 101.45092773 40.92993164 C101.46264012 38.6577283 101.47904214 36.38566151 101.49975586 34.11352539 C99.84975586 34.11352539 98.19975586 34.11352539 96.49975586 34.11352539 C96.50499268 34.68796387 96.51022949 35.26240234 96.515625 35.85424805 C96.53654162 38.48232916 96.54946245 41.11039268 96.56225586 43.73852539 C96.57063477 44.6421582 96.57901367 45.54579102 96.58764648 46.47680664 C96.59086914 47.35981445 96.5940918 48.24282227 96.59741211 49.15258789 C96.60264893 49.95905762 96.60788574 50.76552734 96.61328125 51.59643555 C96.48427721 54.45671875 95.97046154 57.2892913 95.49975586 60.11352539 C73.71975586 60.11352539 51.93975586 60.11352539 29.49975586 60.11352539 C29.49975586 58.13352539 29.49975586 56.15352539 29.49975586 54.11352539 C27.51975586 54.11352539 25.53975586 54.11352539 23.49975586 54.11352539 C23.49975586 56.09352539 23.49975586 58.07352539 23.49975586 60.11352539 C12.60975586 60.11352539 1.71975586 60.11352539 -9.50024414 60.11352539 C-9.50024414 58.13352539 -9.50024414 56.15352539 -9.50024414 54.11352539 C-11.81024414 54.11352539 -14.12024414 54.11352539 -16.50024414 54.11352539 C-16.50024414 51.47352539 -16.50024414 48.83352539 -16.50024414 46.11352539 C-14.19024414 46.11352539 -11.88024414 46.11352539 -9.50024414 46.11352539 C-9.50024414 44.13352539 -9.50024414 42.15352539 -9.50024414 40.11352539 C-5.21024414 40.11352539 -0.92024414 40.11352539 3.49975586 40.11352539 C3.49975586 38.13352539 3.49975586 36.15352539 3.49975586 34.11352539 C-0.79024414 34.11352539 -5.08024414 34.11352539 -9.50024414 34.11352539 C-9.50024414 25.20352539 -9.50024414 16.29352539 -9.50024414 7.11352539 C-7.52024414 7.11352539 -5.54024414 7.11352539 -3.50024414 7.11352539 C-3.52086914 6.14415039 -3.54149414 5.17477539 -3.56274414 4.17602539 C-3.48074456 0.15804572 -3.48074456 0.15804572 0 0 Z M174.49975586 34.11352539 C174.49975586 36.09352539 174.49975586 38.07352539 174.49975586 40.11352539 C176.47975586 40.11352539 178.45975586 40.11352539 180.49975586 40.11352539 C180.49975586 38.13352539 180.49975586 36.15352539 180.49975586 34.11352539 C178.51975586 34.11352539 176.53975586 34.11352539 174.49975586 34.11352539 Z " fill="#FFFFFF" transform="translate(22.500244140625,438.886474609375)"/>
<path d="M0 0 C0 4.29 0 8.58 0 13 C1.629375 12.835 3.25875 12.67 4.9375 12.5 C11.9175234 11.96010869 18.87570502 11.88720187 25.875 11.875 C26.95644287 11.87048828 28.03788574 11.86597656 29.15209961 11.86132812 C34.54181159 11.8713454 39.69170129 12.04722844 45 13 C45 8.71 45 4.42 45 0 C51.6 0 58.2 0 65 0 C65 6.6 65 13.2 65 20 C66.98 20 68.96 20 71 20 C71 17.69 71 15.38 71 13 C84.33688746 11.42382239 97.62729772 12.34644688 111 13 C111 19.6 111 26.2 111 33 C112.98 33 114.96 33 117 33 C117 26.4 117 19.8 117 13 C121.44328659 12.83228012 125.88627644 12.6694019 130.33007812 12.51782227 C131.83505655 12.46514802 133.33994755 12.40989919 134.84472656 12.35180664 C137.03431272 12.26776044 139.22406865 12.19364997 141.4140625 12.12109375 C142.7232666 12.0739624 144.0324707 12.02683105 145.38134766 11.97827148 C151.59683413 12.00751233 157.80024034 12.55716002 164 13 C164 24.22 164 35.44 164 47 C161.69 47 159.38 47 157 47 C157 48.98 157 50.96 157 53 C152.71 53 148.42 53 144 53 C144 57.29 144 61.58 144 66 C139.38 66 134.76 66 130 66 C130 61.71 130 57.42 130 53 C86.77 53 43.54 53 -1 53 C-1 51.02 -1 49.04 -1 47 C-2.98 47 -4.96 47 -7 47 C-7 48.98 -7 50.96 -7 53 C-17.89 53 -28.78 53 -40 53 C-40 48.38 -40 43.76 -40 39 C-38.02 39 -36.04 39 -34 39 C-34 37.02 -34 35.04 -34 33 C-31.69 33 -29.38 33 -27 33 C-27 31.02 -27 29.04 -27 27 C-29.31 27 -31.62 27 -34 27 C-34 18.09 -34 9.18 -34 0 C-22.55017306 -1.63568956 -11.49907239 -0.92921797 0 0 Z M13 27 C13 28.98 13 30.96 13 33 C14.98 33 16.96 33 19 33 C19 31.02 19 29.04 19 27 C17.02 27 15.04 27 13 27 Z " fill="#FFFFFF" transform="translate(401,446)"/>
<path d="M0 0 C9.24 0 18.48 0 28 0 C28 1.98 28 3.96 28 6 C29.98 6 31.96 6 34 6 C34 8.31 34 10.62 34 13 C36.31 13 38.62 13 41 13 C41 17.29 41 21.58 41 26 C42.98 26 44.96 26 47 26 C47 27.98 47 29.96 47 32 C48.98 32 50.96 32 53 32 C53 21.44 53 10.88 53 0 C64.22 0 75.44 0 87 0 C87 30.36 87 60.72 87 92 C75.78 92 64.56 92 53 92 C53 89.69 53 87.38 53 85 C51.02 85 49.04 85 47 85 C46.67 81.04 46.34 77.08 46 73 C44.02 73 42.04 73 40 73 C40 70.69 40 68.38 40 66 C38.02 66 36.04 66 34 66 C34 74.58 34 83.16 34 92 C22.78 92 11.56 92 0 92 C0 61.64 0 31.28 0 0 Z " fill="#FFFFFF" transform="translate(1673,59)"/>
<path d="M0 0 C9.24 0 18.48 0 28 0 C28 1.98 28 3.96 28 6 C29.98 6 31.96 6 34 6 C34 8.31 34 10.62 34 13 C36.31 13 38.62 13 41 13 C41 17.29 41 21.58 41 26 C42.98 26 44.96 26 47 26 C47 27.98 47 29.96 47 32 C48.98 32 50.96 32 53 32 C53 21.44 53 10.88 53 0 C64.22 0 75.44 0 87 0 C87 10.89 87 21.78 87 33 C84.69 33 82.38 33 80 33 C80 52.47 80 71.94 80 92 C71.09 92 62.18 92 53 92 C53 90.02 53 88.04 53 86 C50.69 86 48.38 86 46 86 C46 83.69 46 81.38 46 79 C44.02 79 42.04 79 40 79 C40 74.71 40 70.42 40 66 C37.69 66 35.38 66 33 66 C33 64.02 33 62.04 33 60 C31.35 60 29.7 60 28 60 C28 70.56 28 81.12 28 92 C18.76 92 9.52 92 0 92 C0 61.64 0 31.28 0 0 Z " fill="#FFFFFF" transform="translate(1010,59)"/>
<path d="M0 0 C8.91 0 17.82 0 27 0 C27 1.98 27 3.96 27 6 C28.98 6 30.96 6 33 6 C33 8.31 33 10.62 33 13 C35.31 13 37.62 13 40 13 C40 15.31 40 17.62 40 20 C41.98 20 43.96 20 46 20 C46.495 25.94 46.495 25.94 47 32 C48.65 32 50.3 32 52 32 C52 21.44 52 10.88 52 0 C63.22 0 74.44 0 86 0 C86 10.89 86 21.78 86 33 C83.69 33 81.38 33 79 33 C79 52.47 79 71.94 79 92 C70.42 92 61.84 92 53 92 C53 90.02 53 88.04 53 86 C50.69 86 48.38 86 46 86 C46 83.36 46 80.72 46 78 C44.02 78 42.04 78 40 78 C39.01751476 73.9472484 38.91840426 70.16138263 39 66 C37.02 66 35.04 66 33 66 C33 64.02 33 62.04 33 60 C31.02 60 29.04 60 27 60 C27 70.56 27 81.12 27 92 C18.09 92 9.18 92 0 92 C0 61.64 0 31.28 0 0 Z " fill="#FFFFFF" transform="translate(1969,59)"/>
<path d="M0 0 C13.2 0 26.4 0 40 0 C40 1.98 40 3.96 40 6 C44.29 6 48.58 6 53 6 C53 8.31 53 10.62 53 13 C55.31 13 57.62 13 60 13 C60 17.29 60 21.58 60 26 C61.98 26 63.96 26 66 26 C66 39.2 66 52.4 66 66 C64.02 66 62.04 66 60 66 C60 70.29 60 74.58 60 79 C57.69 79 55.38 79 53 79 C53 81.31 53 83.62 53 86 C48.71 86 44.42 86 40 86 C40 87.98 40 89.96 40 92 C26.8 92 13.6 92 0 92 C0 90.02 0 88.04 0 86 C-4.29 86 -8.58 86 -13 86 C-13 83.69 -13 81.38 -13 79 C-15.31 79 -17.62 79 -20 79 C-20 74.71 -20 70.42 -20 66 C-22.31 66 -24.62 66 -27 66 C-27.02465288 61.31860746 -27.04283739 56.63725241 -27.05493164 51.95581055 C-27.05997157 50.36205386 -27.0668035 48.76830181 -27.07543945 47.17456055 C-27.08751999 44.88849747 -27.09323155 42.60249533 -27.09765625 40.31640625 C-27.10281754 39.59973282 -27.10797882 38.88305939 -27.11329651 38.14466858 C-27.11349263 36.42936328 -27.06192007 34.71418734 -27 33 C-26.505 32.505 -26.505 32.505 -26 32 C-24.02 32 -22.04 32 -20 32 C-20 25.73 -20 19.46 -20 13 C-17.69 13 -15.38 13 -13 13 C-13 10.69 -13 8.38 -13 6 C-8.71 6 -4.42 6 0 6 C0 4.02 0 2.04 0 0 Z M13 33 C13 34.98 13 36.96 13 39 C11.02 39 9.04 39 7 39 C7 45.6 7 52.2 7 59 C15.25 59 23.5 59 32 59 C32 50.42 32 41.84 32 33 C25.73 33 19.46 33 13 33 Z " fill="#FFFFFF" transform="translate(1595,59)"/>
<path d="M0 0 C22.11 0 44.22 0 67 0 C67 30.36 67 60.72 67 92 C44.89 92 22.78 92 0 92 C0 61.64 0 31.28 0 0 Z M34 27 C34 28.65 34 30.3 34 32 C35.65 32 37.3 32 39 32 C39 30.35 39 28.7 39 27 C37.35 27 35.7 27 34 27 Z M34 60 C34 61.65 34 63.3 34 65 C37.96 65 41.92 65 46 65 C46 63.35 46 61.7 46 60 C42.04 60 38.08 60 34 60 Z " fill="#FFFFFF" transform="translate(1890,59)"/>
<path d="M0 0 C10.89 0 21.78 0 33 0 C33 19.47 33 38.94 33 59 C34.98 59 36.96 59 39 59 C39 60.98 39 62.96 39 65 C41.31 65 43.62 65 46 65 C46 43.55 46 22.1 46 0 C58.87 0 71.74 0 85 0 C85.65534387 3.93206321 86.12735889 7.05722728 86.1328125 10.92578125 C86.13410156 11.80427734 86.13539062 12.68277344 86.13671875 13.58789062 C86.13285156 14.48701172 86.12898438 15.38613281 86.125 16.3125 C86.12886719 17.23095703 86.13273437 18.14941406 86.13671875 19.09570312 C86.13542969 19.96775391 86.13414063 20.83980469 86.1328125 21.73828125 C86.13168457 22.53274658 86.13055664 23.32721191 86.12939453 24.14575195 C86 26 86 26 85 27 C83.02 27 81.04 27 79 27 C79 44.16 79 61.32 79 79 C77.02 79 75.04 79 73 79 C73 81.31 73 83.62 73 86 C70.69 86 68.38 86 66 86 C66 87.98 66 89.96 66 92 C48.51 92 31.02 92 13 92 C13 90.02 13 88.04 13 86 C10.69 86 8.38 86 6 86 C6 62.24 6 38.48 6 14 C4.02 14 2.04 14 0 14 C0 9.38 0 4.76 0 0 Z " fill="#FFFFFF" transform="translate(1188,59)"/>
<path d="M0 0 C10.89 0 21.78 0 33 0 C33 2.31 33 4.62 33 7 C34.98 7 36.96 7 39 7 C39.84023188 11.35332736 40.10770995 15.44442519 40.0625 19.875 C40.05347656 21.02742188 40.04445313 22.17984375 40.03515625 23.3671875 C40.02355469 24.23601562 40.01195312 25.10484375 40 26 C41.98 26 43.96 26 46 26 C46 32.6 46 39.2 46 46 C48.31 46 50.62 46 53 46 C53 50.29 53 54.58 53 59 C54.98 59 56.96 59 59 59 C59.80395025 63.22282518 60.11811363 67.19613764 60.09765625 71.4921875 C60.09515869 72.5735498 60.09266113 73.65491211 60.09008789 74.76904297 C60.08098389 76.12400879 60.07187988 77.47897461 60.0625 78.875 C60.041875 83.20625 60.02125 87.5375 60 92 C48.78 92 37.56 92 26 92 C26 87.71 26 83.42 26 79 C19.73 79 13.46 79 7 79 C7 83.29 7 87.58 7 92 C-4.22 92 -15.44 92 -27 92 C-27 85.4 -27 78.8 -27 72 C-24.69 72 -22.38 72 -20 72 C-20.00523682 71.42556152 -20.01047363 70.85112305 -20.01586914 70.25927734 C-20.03678576 67.63119623 -20.04970659 65.00313271 -20.0625 62.375 C-20.07087891 61.47136719 -20.07925781 60.56773438 -20.08789062 59.63671875 C-20.10491895 54.97095711 -19.96829423 50.58986715 -19 46 C-17.35 46 -15.7 46 -14 46 C-14.01160156 45.07316406 -14.02320313 44.14632812 -14.03515625 43.19140625 C-14.04417969 41.99386719 -14.05320312 40.79632813 -14.0625 39.5625 C-14.07410156 38.36753906 -14.08570313 37.17257813 -14.09765625 35.94140625 C-14 33 -14 33 -13 32 C-11.02 32 -9.04 32 -7 32 C-7 28.04 -7 24.08 -7 20 C-4.69 20 -2.38 20 0 20 C0 13.4 0 6.8 0 0 Z " fill="#FFFFFF" transform="translate(617,59)"/>
<path d="M0 0 C10.89 0 21.78 0 33 0 C33 2.31 33 4.62 33 7 C34.98 7 36.96 7 39 7 C39.84023188 11.35332736 40.10770995 15.44442519 40.0625 19.875 C40.05347656 21.02742188 40.04445313 22.17984375 40.03515625 23.3671875 C40.02355469 24.23601562 40.01195312 25.10484375 40 26 C41.98 26 43.96 26 46 26 C47.23839599 32.65637843 47.09139136 39.2471936 47 46 C48.98 46 50.96 46 53 46 C53 50.29 53 54.58 53 59 C54.98 59 56.96 59 59 59 C59.80395025 63.22282518 60.11811363 67.19613764 60.09765625 71.4921875 C60.09515869 72.5735498 60.09266113 73.65491211 60.09008789 74.76904297 C60.08098389 76.12400879 60.07187988 77.47897461 60.0625 78.875 C60.041875 83.20625 60.02125 87.5375 60 92 C48.78 92 37.56 92 26 92 C26 87.71 26 83.42 26 79 C19.73 79 13.46 79 7 79 C7 83.29 7 87.58 7 92 C-4.22 92 -15.44 92 -27 92 C-27 85.4 -27 78.8 -27 72 C-24.69 72 -22.38 72 -20 72 C-20.00523682 71.42556152 -20.01047363 70.85112305 -20.01586914 70.25927734 C-20.03678576 67.63119623 -20.04970659 65.00313271 -20.0625 62.375 C-20.07087891 61.47136719 -20.07925781 60.56773438 -20.08789062 59.63671875 C-20.10491895 54.97095711 -19.96829423 50.58986715 -19 46 C-17.02 46 -15.04 46 -13 46 C-13 43.69 -13 41.38 -13 39 C-11.02 39 -9.04 39 -7 39 C-7 32.73 -7 26.46 -7 20 C-4.69 20 -2.38 20 0 20 C0 13.4 0 6.8 0 0 Z " fill="#FFFFFF" transform="translate(781,59)"/>
<path d="M0 0 C2.16991129 0.00536684 4.33961643 0.00002649 6.50952148 -0.00634766 C7.90861048 -0.00568691 9.30769934 -0.00440582 10.70678711 -0.00244141 C11.95983643 -0.00131348 13.21288574 -0.00018555 14.50390625 0.00097656 C18.10431079 0.1301981 21.55505783 0.55502321 25.10913086 1.13037109 C25.10913086 3.11037109 25.10913086 5.09037109 25.10913086 7.13037109 C27.41913086 7.13037109 29.72913086 7.13037109 32.10913086 7.13037109 C32.10913086 9.44037109 32.10913086 11.75037109 32.10913086 14.13037109 C34.08913086 14.13037109 36.06913086 14.13037109 38.10913086 14.13037109 C38.10913086 21.06037109 38.10913086 27.99037109 38.10913086 35.13037109 C31.83913086 35.13037109 25.56913086 35.13037109 19.10913086 35.13037109 C19.10913086 36.78037109 19.10913086 38.43037109 19.10913086 40.13037109 C23.39913086 40.13037109 27.68913086 40.13037109 32.10913086 40.13037109 C32.10913086 42.44037109 32.10913086 44.75037109 32.10913086 47.13037109 C34.08913086 47.13037109 36.06913086 47.13037109 38.10913086 47.13037109 C38.10913086 60.33037109 38.10913086 73.53037109 38.10913086 87.13037109 C36.12913086 87.13037109 34.14913086 87.13037109 32.10913086 87.13037109 C32.10913086 89.11037109 32.10913086 91.09037109 32.10913086 93.13037109 C26.17735935 94.16078233 20.41078432 94.27577075 14.39819336 94.26318359 C13.3894516 94.26414032 12.38070984 94.26509705 11.34140015 94.26608276 C9.22182146 94.26676036 7.10224066 94.26493553 4.98266602 94.26074219 C1.72399311 94.25535433 -1.53454406 94.26071856 -4.79321289 94.26708984 C-6.85441111 94.26642965 -8.91560925 94.26514969 -10.97680664 94.26318359 C-12.44541641 94.26621994 -12.44541641 94.26621994 -13.94369507 94.26931763 C-14.84198029 94.26616547 -15.7402655 94.26301331 -16.66577148 94.25976562 C-17.4596225 94.25897003 -18.25347351 94.25817444 -19.07138062 94.25735474 C-20.89086914 94.13037109 -20.89086914 94.13037109 -21.89086914 93.13037109 C-21.93167697 91.13078746 -21.9334127 89.12991855 -21.89086914 87.13037109 C-23.87086914 87.13037109 -25.85086914 87.13037109 -27.89086914 87.13037109 C-27.89086914 84.82037109 -27.89086914 82.51037109 -27.89086914 80.13037109 C-30.20086914 80.13037109 -32.51086914 80.13037109 -34.89086914 80.13037109 C-34.92011744 76.92205719 -34.93775103 73.71377803 -34.95336914 70.50537109 C-34.96174805 69.60173828 -34.97012695 68.69810547 -34.97875977 67.76708984 C-34.99578809 63.10132821 -34.85916337 58.72023824 -33.89086914 54.13037109 C-27.95086914 53.63537109 -27.95086914 53.63537109 -21.89086914 53.13037109 C-21.89086914 51.48037109 -21.89086914 49.83037109 -21.89086914 48.13037109 C-23.87086914 48.13037109 -25.85086914 48.13037109 -27.89086914 48.13037109 C-27.89086914 45.82037109 -27.89086914 43.51037109 -27.89086914 41.13037109 C-30.20086914 41.13037109 -32.51086914 41.13037109 -34.89086914 41.13037109 C-34.89086914 32.22037109 -34.89086914 23.31037109 -34.89086914 14.13037109 C-32.58086914 14.13037109 -30.27086914 14.13037109 -27.89086914 14.13037109 C-27.89086914 11.82037109 -27.89086914 9.51037109 -27.89086914 7.13037109 C-25.91086914 7.13037109 -23.93086914 7.13037109 -21.89086914 7.13037109 C-21.89086914 5.15037109 -21.89086914 3.17037109 -21.89086914 1.13037109 C-14.61449886 -0.06496483 -7.35482848 -0.02166862 0 0 Z M-7.89086914 21.13037109 C-7.89086914 25.09037109 -7.89086914 29.05037109 -7.89086914 33.13037109 C-1.62086914 33.46037109 4.64913086 33.79037109 11.10913086 34.13037109 C11.10913086 29.84037109 11.10913086 25.55037109 11.10913086 21.13037109 C4.83913086 21.13037109 -1.43086914 21.13037109 -7.89086914 21.13037109 Z M-13.89086914 54.13037109 C-13.89086914 56.11037109 -13.89086914 58.09037109 -13.89086914 60.13037109 C-11.91086914 60.13037109 -9.93086914 60.13037109 -7.89086914 60.13037109 C-7.89086914 64.42037109 -7.89086914 68.71037109 -7.89086914 73.13037109 C-1.62086914 73.13037109 4.64913086 73.13037109 11.10913086 73.13037109 C11.10913086 69.17037109 11.10913086 65.21037109 11.10913086 61.13037109 C9.12913086 61.13037109 7.14913086 61.13037109 5.10913086 61.13037109 C5.10913086 58.82037109 5.10913086 56.51037109 5.10913086 54.13037109 C-1.16086914 54.13037109 -7.43086914 54.13037109 -13.89086914 54.13037109 Z " fill="#FFFFFF" transform="translate(624.890869140625,280.86962890625)"/>
<path d="M0 0 C13.2 0 26.4 0 40 0 C40 1.98 40 3.96 40 6 C40.85464844 5.98839844 41.70929688 5.97679688 42.58984375 5.96484375 C43.69457031 5.95582031 44.79929687 5.94679688 45.9375 5.9375 C47.03964844 5.92589844 48.14179687 5.91429688 49.27734375 5.90234375 C52 6 52 6 53 7 C53.08748207 8.92667507 53.10697334 10.85651861 53.09765625 12.78515625 C53.09282227 14.53989258 53.09282227 14.53989258 53.08789062 16.33007812 C53.07532227 18.17762695 53.07532227 18.17762695 53.0625 20.0625 C53.05798828 21.29806641 53.05347656 22.53363281 53.04882812 23.80664062 C53.03699608 26.87114117 53.02051173 29.93554721 53 33 C50.69 33 48.38 33 46 33 C46 35.31 46 37.62 46 40 C41.38 40 36.76 40 32 40 C32 37.69 32 35.38 32 33 C23.75 33 15.5 33 7 33 C7 39.6 7 46.2 7 53 C8.98 53 10.96 53 13 53 C13 54.98 13 56.96 13 59 C19.27 59 25.54 59 32 59 C32 57.02 32 55.04 32 53 C33 52 33 52 35.94140625 51.90234375 C37.13636719 51.91394531 38.33132813 51.92554688 39.5625 51.9375 C41.35880859 51.95103516 41.35880859 51.95103516 43.19140625 51.96484375 C44.11824219 51.97644531 45.04507812 51.98804688 46 52 C46 54.31 46 56.62 46 59 C48.31 59 50.62 59 53 59 C53.02886537 63.31248609 53.04675255 67.62494762 53.0625 71.9375 C53.07087891 73.16919922 53.07925781 74.40089844 53.08789062 75.66992188 C53.09111328 76.83974609 53.09433594 78.00957031 53.09765625 79.21484375 C53.10289307 80.29886475 53.10812988 81.38288574 53.11352539 82.49975586 C53 85 53 85 52 86 C49.98035801 86.07244053 47.95832876 86.08377188 45.9375 86.0625 C44.83277344 86.05347656 43.72804688 86.04445313 42.58984375 86.03515625 C41.73519531 86.02355469 40.88054687 86.01195312 40 86 C40 87.98 40 89.96 40 92 C26.8 92 13.6 92 0 92 C0 90.02 0 88.04 0 86 C-4.62 86 -9.24 86 -14 86 C-14 83.69 -14 81.38 -14 79 C-15.98 79 -17.96 79 -20 79 C-20 74.71 -20 70.42 -20 66 C-22.31 66 -24.62 66 -27 66 C-27 54.78 -27 43.56 -27 32 C-24.69 32 -22.38 32 -20 32 C-20 25.73 -20 19.46 -20 13 C-18.02 13 -16.04 13 -14 13 C-14.020625 12.030625 -14.04125 11.06125 -14.0625 10.0625 C-14 7 -14 7 -13 6 C-10.81360547 5.92741054 -8.62499611 5.91626217 -6.4375 5.9375 C-4.64119141 5.95103516 -4.64119141 5.95103516 -2.80859375 5.96484375 C-1.88175781 5.97644531 -0.95492188 5.98804687 0 6 C0 4.02 0 2.04 0 0 Z " fill="#FFFFFF" transform="translate(1129,59)"/>
<path d="M0 0 C1.0621875 -0.00257813 2.124375 -0.00515625 3.21875 -0.0078125 C6.66375238 0.13162807 10.08682913 0.63740416 13.5 1.125 C13.5 22.575 13.5 44.025 13.5 66.125 C15.48 66.125 17.46 66.125 19.5 66.125 C20.5 67.125 20.5 67.125 20.5 73.125 C26.44 72.63 26.44 72.63 32.5 72.125 C32.5 70.145 32.5 68.165 32.5 66.125 C34.81 66.125 37.12 66.125 39.5 66.125 C39.5 44.675 39.5 23.225 39.5 1.125 C44.24781915 0.44674012 48.2896218 -0.01143296 53 0 C54.0621875 -0.00257813 55.124375 -0.00515625 56.21875 -0.0078125 C59.70147389 0.1331549 63.05476039 0.61086896 66.5 1.125 C66.52319696 10.53938958 66.54095257 19.95376928 66.55181217 29.36818123 C66.55702491 33.73993059 66.56409332 38.11166035 66.57543945 42.48339844 C66.58632554 46.70441759 66.59228896 50.92541793 66.59487724 55.14645004 C66.59672118 56.75474214 66.60032191 58.36303323 66.60573006 59.97131729 C66.61301644 62.22845922 66.61398774 64.48552394 66.61352539 66.74267578 C66.615746 68.02618927 66.61796661 69.30970276 66.62025452 70.6321106 C66.50805193 73.89112514 66.12076394 76.9278822 65.5 80.125 C63.52 80.125 61.54 80.125 59.5 80.125 C59.5 82.435 59.5 84.745 59.5 87.125 C57.52 87.125 55.54 87.125 53.5 87.125 C53.520625 88.094375 53.54125 89.06375 53.5625 90.0625 C53.5 93.125 53.5 93.125 52.5 94.125 C50.84261557 94.21846915 49.18125356 94.24244977 47.52124023 94.23852539 C46.46021591 94.23844986 45.39919159 94.23837433 44.30601501 94.23829651 C42.57479149 94.23055458 42.57479149 94.23055458 40.80859375 94.22265625 C39.0461306 94.22053383 39.0461306 94.22053383 37.24806213 94.21836853 C33.47784936 94.21274992 29.70769496 94.20019426 25.9375 94.1875 C23.38867273 94.1824874 20.83984453 94.17792408 18.29101562 94.17382812 C12.02732367 94.16277444 5.76366601 94.14601821 -0.5 94.125 C-0.5 91.815 -0.5 89.505 -0.5 87.125 C-2.48 87.125 -4.46 87.125 -6.5 87.125 C-6.5 84.815 -6.5 82.505 -6.5 80.125 C-8.81 80.125 -11.12 80.125 -13.5 80.125 C-13.5 54.055 -13.5 27.985 -13.5 1.125 C-8.75218085 0.44674012 -4.7103782 -0.01143296 0 0 Z " fill="#FFFFFF" transform="translate(1752.5,280.875)"/>
<path d="M0 0 C13.2 0 26.4 0 40 0 C40 1.98 40 3.96 40 6 C44.29 6.33 48.58 6.66 53 7 C53 13.6 53 20.2 53 27 C51.02 27 49.04 27 47 27 C47 31.29 47 35.58 47 40 C42.38 40 37.76 40 33 40 C33 37.69 33 35.38 33 33 C24.42 33 15.84 33 7 33 C7 41.58 7 50.16 7 59 C15.58 59 24.16 59 33 59 C33 56.69 33 54.38 33 52 C35.14576637 51.97314062 37.29162645 51.95366912 39.4375 51.9375 C40.63246094 51.92589844 41.82742188 51.91429687 43.05859375 51.90234375 C46 52 46 52 47 53 C47.07244053 55.01964199 47.08377188 57.04167124 47.0625 59.0625 C47.05347656 60.16722656 47.04445313 61.27195313 47.03515625 62.41015625 C47.02355469 63.26480469 47.01195312 64.11945313 47 65 C48.98 65 50.96 65 53 65 C53 69.62 53 74.24 53 79 C51.02 79 49.04 79 47 79 C47 81.31 47 83.62 47 86 C44.69 86 42.38 86 40 86 C40 87.98 40 89.96 40 92 C26.8 92 13.6 92 0 92 C0 90.02 0 88.04 0 86 C-4.29 86 -8.58 86 -13 86 C-13 83.69 -13 81.38 -13 79 C-14.98 79 -16.96 79 -19 79 C-19.495 76.03 -19.495 76.03 -20 73 C-21.98 72.67 -23.96 72.34 -26 72 C-26 56.82 -26 41.64 -26 26 C-24.02 26 -22.04 26 -20 26 C-20 23.69 -20 21.38 -20 19 C-17.69 19 -15.38 19 -13 19 C-13 15.04 -13 11.08 -13 7 C-6.565 6.505 -6.565 6.505 0 6 C0 4.02 0 2.04 0 0 Z " fill="#FFFFFF" transform="translate(1831,59)"/>
<path d="M0 0 C4.62 0 9.24 0 14 0 C14 1.98 14 3.96 14 6 C15.98 6 17.96 6 20 6 C20 10.62 20 15.24 20 20 C18.02 20 16.04 20 14 20 C14 21.98 14 23.96 14 26 C15.2065625 25.9690625 15.2065625 25.9690625 16.4375 25.9375 C19 26 19 26 20 27 C20.09903867 28.8092468 20.12799196 30.62237124 20.12939453 32.43432617 C20.13254669 33.59610886 20.13569885 34.75789154 20.13894653 35.95487976 C20.13591019 37.85473381 20.13591019 37.85473381 20.1328125 39.79296875 C20.13376923 41.08689041 20.13472595 42.38081207 20.13571167 43.71394348 C20.1371892 46.46043077 20.13503406 49.20688562 20.13037109 51.95336914 C20.12470184 55.4626359 20.12793453 58.97182572 20.13394356 62.48108959 C20.13844505 65.83505532 20.13528329 69.18900084 20.1328125 72.54296875 C20.13483673 73.79941696 20.13686096 75.05586517 20.13894653 76.35038757 C20.13421829 78.1167028 20.13421829 78.1167028 20.12939453 79.91870117 C20.12859894 80.95048996 20.12780334 81.98227875 20.12698364 83.04533386 C19.99566465 86.10087528 19.56390853 88.99663345 19 92 C14.64667264 92.84023188 10.55557481 93.10770995 6.125 93.0625 C4.39636719 93.04896484 4.39636719 93.04896484 2.6328125 93.03515625 C1.32957031 93.01775391 1.32957031 93.01775391 0 93 C0 90.69 0 88.38 0 86 C-2.31 86 -4.62 86 -7 86 C-7 73.13 -7 60.26 -7 47 C-13.27 47 -19.54 47 -26 47 C-26 48.98 -26 50.96 -26 53 C-27.98 53 -29.96 53 -32 53 C-32 66.2 -32 79.4 -32 93 C-38.93 93 -45.86 93 -53 93 C-53 70.89 -53 48.78 -53 26 C-50.69 26 -48.38 26 -46 26 C-46 24.02 -46 22.04 -46 20 C-33.13 20 -20.26 20 -7 20 C-7 15.38 -7 10.76 -7 6 C-4.69 6 -2.38 6 0 6 C0 4.02 0 2.04 0 0 Z M-6 20 C-6 22.31 -6 24.62 -6 27 C-4.02 27 -2.04 27 0 27 C0 24.69 0 22.38 0 20 C-1.98 20 -3.96 20 -6 20 Z " fill="#FFFFFF" transform="translate(722,282)"/>
<path d="M0 0 C8.58 0 17.16 0 26 0 C26 1.65 26 3.3 26 5 C32.27 5 38.54 5 45 5 C45 3.35 45 1.7 45 0 C53.91 0 62.82 0 72 0 C72 8.91 72 17.82 72 27 C65.73 27 59.46 27 53 27 C53 48.45 53 69.9 53 92 C41.78 92 30.56 92 19 92 C19 70.55 19 49.1 19 27 C12.4 27 5.8 27 -1 27 C-1.02707263 23.62494572 -1.04687449 20.2501106 -1.0625 16.875 C-1.07087891 15.92367187 -1.07925781 14.97234375 -1.08789062 13.9921875 C-1.09272461 12.6 -1.09272461 12.6 -1.09765625 11.1796875 C-1.10289307 10.33132324 -1.10812988 9.48295898 -1.11352539 8.60888672 C-1 6 -1 6 0 0 Z " fill="#FFFFFF" transform="translate(683,59)"/>
<path d="M0 0 C4.62 0 9.24 0 14 0 C14 2.31 14 4.62 14 7 C16.31 7 18.62 7 21 7 C21 9.31 21 11.62 21 14 C18.69 14 16.38 14 14 14 C14 15.98 14 17.96 14 20 C16.31 20 18.62 20 21 20 C21 21.98 21 23.96 21 26 C29.25 26 37.5 26 46 26 C46 19.73 46 13.46 46 7 C48.31 7 50.62 7 53 7 C53 4.69 53 2.38 53 0 C57.62 0 62.24 0 67 0 C67 9.24 67 18.48 67 28 C64.69 28 62.38 28 60 28 C60.01160156 28.88042969 60.02320313 29.76085937 60.03515625 30.66796875 C60.04417969 31.82941406 60.05320312 32.99085938 60.0625 34.1875 C60.07410156 35.33605469 60.08570313 36.48460937 60.09765625 37.66796875 C60.01192832 40.59300586 59.67849023 43.16316291 59 46 C55.13792926 46.90816798 51.56851344 47.11643845 47.60546875 47.09765625 C46.40341797 47.09443359 45.20136719 47.09121094 43.96289062 47.08789062 C42.71701172 47.07951172 41.47113281 47.07113281 40.1875 47.0625 C38.92228516 47.05798828 37.65707031 47.05347656 36.35351562 47.04882812 C33.2356568 47.03706262 30.11782235 47.01912774 27 47 C27 50.96 27 54.92 27 59 C25.02 59 23.04 59 21 59 C21 61.64 21 64.28 21 67 C12.42 67 3.84 67 -5 67 C-5 68.98 -5 70.96 -5 73 C-11.93 73 -18.86 73 -26 73 C-26 70.69 -26 68.38 -26 66 C-23.69 66 -21.38 66 -19 66 C-19 55.44 -19 44.88 -19 34 C-21.31 34 -23.62 34 -26 34 C-26 29.38 -26 24.76 -26 20 C-21.71 20 -17.42 20 -13 20 C-13 15.71 -13 11.42 -13 7 C-8.71 7 -4.42 7 0 7 C0 4.69 0 2.38 0 0 Z " fill="#FFFFFF" transform="translate(275,439)"/>
<path d="M0 0 C6.6 0 13.2 0 20 0 C20 1.65 20 3.3 20 5 C24.29 5 28.58 5 33 5 C33 3.35 33 1.7 33 0 C41.91 0 50.82 0 60 0 C60 4.29 60 8.58 60 13 C61.98 13 63.96 13 66 13 C66 17.62 66 22.24 66 27 C59.73 27 53.46 27 47 27 C47 48.45 47 69.9 47 92 C35.78 92 24.56 92 13 92 C13 70.55 13 49.1 13 27 C6.4 27 -0.2 27 -7 27 C-7 22.38 -7 17.76 -7 13 C-4.69 13 -2.38 13 0 13 C0 8.71 0 4.42 0 0 Z " fill="#FFFFFF" transform="translate(1457,59)"/>
<path d="M0 0 C6.6 0 13.2 0 20 0 C20 1.65 20 3.3 20 5 C26.27 5 32.54 5 39 5 C39 3.35 39 1.7 39 0 C47.91 0 56.82 0 66 0 C66 8.91 66 17.82 66 27 C61.71 27 57.42 27 53 27 C53 48.45 53 69.9 53 92 C41.78 92 30.56 92 19 92 C19 70.55 19 49.1 19 27 C12.73 27 6.46 27 0 27 C0 18.09 0 9.18 0 0 Z " fill="#FFFFFF" transform="translate(2061,59)"/>
<path d="M0 0 C10.89 0 21.78 0 33 0 C33 4.62 33 9.24 33 14 C31.02 14 29.04 14 27 14 C27 30.83 27 47.66 27 65 C28.98 65 30.96 65 33 65 C33 63.02 33 61.04 33 59 C43.89 59 54.78 59 66 59 C66 69.89 66 80.78 66 92 C44.22 92 22.44 92 0 92 C0 61.64 0 31.28 0 0 Z " fill="#FFFFFF" transform="translate(853,59)"/>
<path d="M0 0 C4.29 0 8.58 0 13 0 C13 1.98 13 3.96 13 6 C17.29 6 21.58 6 26 6 C26 4.02 26 2.04 26 0 C32.6 0 39.2 0 46 0 C46 1.98 46 3.96 46 6 C48.31 6 50.62 6 53 6 C53 8.31 53 10.62 53 13 C54.98 13 56.96 13 59 13 C59 32.8 59 52.6 59 73 C52.4 73 45.8 73 39 73 C39 59.8 39 46.6 39 33 C37.02 33 35.04 33 33 33 C32 32 32 32 31.9375 29.4375 C31.958125 28.633125 31.97875 27.82875 32 27 C30.35 27 28.7 27 27 27 C27 39.87 27 52.74 27 66 C24.69 66 22.38 66 20 66 C20 68.31 20 70.62 20 73 C16.68751813 73.02888146 13.37506833 73.04675799 10.0625 73.0625 C9.11697266 73.07087891 8.17144531 73.07925781 7.19726562 73.08789062 C5.84858398 73.09272461 5.84858398 73.09272461 4.47265625 73.09765625 C3.64000244 73.10289307 2.80734863 73.10812988 1.94946289 73.11352539 C0 73 0 73 -1 72 C-1.0993895 69.97634532 -1.12799547 67.94918913 -1.12939453 65.9230957 C-1.13254669 64.62116776 -1.13569885 63.31923981 -1.13894653 61.9778595 C-1.13715582 60.54383308 -1.13510464 59.10980696 -1.1328125 57.67578125 C-1.1334859 56.21184778 -1.13445623 54.74791441 -1.13571167 53.28398132 C-1.13718926 50.20794618 -1.1350337 47.13193999 -1.13037109 44.0559082 C-1.12469883 40.12290521 -1.12793644 36.18997083 -1.13394356 32.25697041 C-1.137569 29.22942088 -1.13640105 26.20188742 -1.13381577 23.17433739 C-1.13315067 21.72514017 -1.13396027 20.27594147 -1.13629532 18.82674599 C-1.13885156 16.79245661 -1.13426093 14.75816211 -1.12939453 12.72387695 C-1.12820114 10.9896624 -1.12820114 10.9896624 -1.12698364 9.22041321 C-1 6 -1 6 0 0 Z " fill="#FFFFFF" transform="translate(1825,302)"/>
<path d="M0 0 C11.22 0 22.44 0 34 0 C34 30.36 34 60.72 34 92 C22.78 92 11.56 92 0 92 C0 61.64 0 31.28 0 0 Z " fill="#FFFFFF" transform="translate(1529,59)"/>
<path d="M0 0 C11.22 0 22.44 0 34 0 C34 30.36 34 60.72 34 92 C22.78 92 11.56 92 0 92 C0 61.64 0 31.28 0 0 Z " fill="#FFFFFF" transform="translate(964,59)"/>
</svg>
