<?xml version="1.0" encoding="UTF-8"?>
<svg version="1.1" xmlns="http://www.w3.org/2000/svg" width="170" height="64">
<path d="M0 0 C3.0625 2.1875 3.0625 2.1875 5 5 C5.50933746 8.49259972 5.26601617 10.41196426 3.8125 13.625 C3.544375 14.40875 3.27625 15.1925 3 16 C4.39698828 18.15102443 4.39698828 18.15102443 6 20 C6.07476562 19.14277344 6.14953125 18.28554688 6.2265625 17.40234375 C6.99081193 10.75637075 7.73670276 6.05721761 12.46484375 1.171875 C16.0069286 -1.53200656 19.7356343 -1.29409419 24 -1 C26.87305972 0.40460697 28.74510999 1.74510999 31 4 C31.1875 6.5625 31.1875 6.5625 31 9 C30 10 30 10 27.4375 10.0625 C26.633125 10.041875 25.82875 10.02125 25 10 C24.34 8.68 23.68 7.36 23 6 C21.35 6 19.7 6 18 6 C17.01 8.31 16.02 10.62 15 13 C15.66 12.67 16.32 12.34 17 12 C21.50728651 11.45983403 24.94994123 11.39677475 28.9375 13.6875 C31.90176828 17.01107353 33 19.55206501 33 24 C33.928125 23.896875 34.85625 23.79375 35.8125 23.6875 C36.864375 23.790625 37.91625 23.89375 39 24 C40.5 26.5 40.5 26.5 42 29 C45.12635209 29.41746608 45.12635209 29.41746608 48 29 C49.80411967 26.24075815 50.0127245 25.11027897 49.625 21.75 C49.315625 20.38875 49.315625 20.38875 49 19 C46.14221967 18.31506627 46.14221967 18.31506627 43 18 C42.01 18.66 41.02 19.32 40 20 C36.8125 20.125 36.8125 20.125 34 20 C33.78774988 13.42024642 34.26699897 7.37541983 36 1 C37 0 37 0 38.85766602 -0.11352539 C40.04380493 -0.10567017 40.04380493 -0.10567017 41.25390625 -0.09765625 C42.53491211 -0.09282227 42.53491211 -0.09282227 43.84179688 -0.08789062 C44.73962891 -0.07951172 45.63746094 -0.07113281 46.5625 -0.0625 C47.46419922 -0.05798828 48.36589844 -0.05347656 49.29492188 -0.04882812 C51.53001314 -0.03700225 53.76497437 -0.0205222 56 0 C56.38218767 1.65614657 56.71395102 3.32457024 57 5 C56 6 56 6 52.83984375 6.09765625 C51.55207031 6.08605469 50.26429688 6.07445312 48.9375 6.0625 C47.00197266 6.04896484 47.00197266 6.04896484 45.02734375 6.03515625 C44.02832031 6.02355469 43.02929688 6.01195312 42 6 C42 7.98 42 9.96 42 12 C42.66 11.67 43.32 11.34 44 11 C49.27725011 10.40031249 51.88707202 11.72835275 56 15 C58.8416328 19.26244919 58.50403317 22.99967088 58 28 C56.6465856 31.53391537 55.4775883 32.67023665 52.375 34.8125 C48.09963848 36.31679387 44.48279874 36.73777725 40 36 C36.1973971 33.9949912 34.38209159 32.57313738 32 29 C31.236875 29.969375 30.47375 30.93875 29.6875 31.9375 C27.73251185 34.42086332 27.14349841 34.9521672 24 36 C18.64765358 36.34531267 15.34468232 36.47574585 11 33 C8.61753391 30.3710719 8 29.61165822 8 26 C7.34 26 6.68 26 6 26 C5.9071875 27.11375 5.9071875 27.11375 5.8125 28.25 C4.74919061 31.84889332 3.04777533 32.91859246 0 35 C-3.4972334 36.7486167 -7.18413328 36.5570141 -11 36 C-13.87274328 34.67640134 -14.85418097 33.52133736 -17 31 C-18 27.3125 -18 27.3125 -18 24 C-17.34 23.34 -16.68 22.68 -16 22 C-14.0625 22 -14.0625 22 -12 23 C-10.25 26.0625 -10.25 26.0625 -9 29 C-6.58354218 29.16687448 -6.58354218 29.16687448 -4 29 C-1.7508092 27.17296773 -1.7508092 27.17296773 -1.75 24.5 C-1.7508092 21.82703227 -1.7508092 21.82703227 -4 20 C-6.31765729 19.28072705 -8.65095874 18.6090107 -11 18 C-10.125 14.125 -10.125 14.125 -9 13 C-7.33382885 12.95936168 -5.66611905 12.957279 -4 13 C-3.67 10.69 -3.34 8.38 -3 6 C-5.87364791 5.58253392 -5.87364791 5.58253392 -9 6 C-10.03013277 7.64821244 -11.03114628 9.31503702 -12 11 C-14.6875 11.3125 -14.6875 11.3125 -17 11 C-17.75 8.8125 -17.75 8.8125 -18 6 C-16.25682683 3.11705976 -14.66186283 1.41602806 -11.8125 -0.375 C-7.69442716 -1.2901273 -4.0679806 -1.13285536 0 0 Z M16.8125 18.5625 C14.62183113 20.97915558 14.62183113 20.97915558 15.125 24.625 C15.70740714 28.04542055 15.70740714 28.04542055 18 30 C21.06991681 29.83557723 21.06991681 29.83557723 24 29 C25.54163175 25.9167365 25.29747535 23.39121901 25 20 C23.2515605 17.97891823 23.2515605 17.97891823 21 17 C18.82320672 16.80625394 18.82320672 16.80625394 16.8125 18.5625 Z " fill="#2591D0" transform="translate(106,10)"/>
<path d="M0 0 C4.57909828 3.81591523 7.22170742 6.22350655 8.625 12.1875 C9.12361832 17.67230148 8.22941437 21.33790082 5.625 26.1875 C1.99938272 30.49904487 -1.77082625 33.63816497 -7.4765625 34.5078125 C-13.24080656 34.80493848 -17.6424968 33.49274033 -22.375 30.1875 C-26.52822765 25.92497688 -28.21081806 22.22335607 -28.6875 16.3125 C-28.520987 10.78634971 -26.61612706 6.70443308 -23.125 2.4375 C-15.86320363 -3.50396976 -8.25926191 -4.43552954 0 0 Z M-18.375 10.1875 C-19.72272903 13.30883744 -19.72272903 13.30883744 -20.375 16.1875 C-19.14324712 17.79027574 -19.14324712 17.79027574 -17.375 19.1875 C-15.34869901 19.37055519 -15.34869901 19.37055519 -13.1875 18.9375 C-12.39988281 18.81761719 -11.61226562 18.69773437 -10.80078125 18.57421875 C-10.00027344 18.44660156 -9.19976562 18.31898437 -8.375 18.1875 C-6.87523377 18.0392819 -5.3752473 17.89326686 -3.875 17.75 C-2.72 17.564375 -1.565 17.37875 -0.375 17.1875 C-0.045 16.5275 0.285 15.8675 0.625 15.1875 C-1.00083032 10.92330448 -1.00083032 10.92330448 -4.375 8.1875 C-4.375 10.1675 -4.375 12.1475 -4.375 14.1875 C-5.365 14.1875 -6.355 14.1875 -7.375 14.1875 C-7.045 11.5475 -6.715 8.9075 -6.375 6.1875 C-11.8400929 5.75886526 -14.59327885 6.08163133 -18.375 10.1875 Z M-10.5 22.6875 C-11.58667969 23.10515625 -11.58667969 23.10515625 -12.6953125 23.53125 C-13.24960938 23.7478125 -13.80390625 23.964375 -14.375 24.1875 C-12.71225801 25.43874046 -12.71225801 25.43874046 -10.375 26.1875 C-7.16601437 25.3961563 -7.16601437 25.3961563 -4.375 24.1875 C-4.375 23.1975 -4.375 22.2075 -4.375 21.1875 C-6.74043716 21.1875 -8.29804264 21.83512941 -10.5 22.6875 Z " fill="#00A651" transform="translate(79.375,11.8125)"/>
<path d="M0 0 C1.02802734 -0.01224609 2.05605469 -0.02449219 3.11523438 -0.03710938 C4.58766602 -0.04000977 4.58766602 -0.04000977 6.08984375 -0.04296875 C6.99468506 -0.04707764 7.89952637 -0.05118652 8.83178711 -0.05541992 C11.0625 0.1875 11.0625 0.1875 13.0625 2.1875 C13.3125 4.6875 13.3125 4.6875 13.0625 7.1875 C11.0625 9.1875 11.0625 9.1875 7.5859375 9.3828125 C6.20299032 9.36951493 4.82011346 9.34566232 3.4375 9.3125 C2.73109375 9.30347656 2.0246875 9.29445313 1.296875 9.28515625 C-0.44806098 9.26157603 -2.19282295 9.22570461 -3.9375 9.1875 C-3.9375 10.8375 -3.9375 12.4875 -3.9375 14.1875 C-3.33421875 14.14109375 -2.7309375 14.0946875 -2.109375 14.046875 C4.4998928 13.74839194 4.4998928 13.74839194 7.625 16.1875 C8.099375 16.8475 8.57375 17.5075 9.0625 18.1875 C8.0725 20.6625 8.0725 20.6625 7.0625 23.1875 C3.4325 23.1875 -0.1975 23.1875 -3.9375 23.1875 C-3.9375 25.1675 -3.9375 27.1475 -3.9375 29.1875 C-2.79410156 29.17589844 -1.65070312 29.16429688 -0.47265625 29.15234375 C1.01822754 29.14296712 2.50911309 29.13386679 4 29.125 C4.75474609 29.11662109 5.50949219 29.10824219 6.28710938 29.09960938 C8.21244313 29.09097559 10.13785581 29.13525667 12.0625 29.1875 C13.0625 30.1875 13.0625 30.1875 13.25 32.625 C13.0625 35.1875 13.0625 35.1875 11.0625 37.1875 C8.72412109 37.41455078 8.72412109 37.41455078 5.8359375 37.3828125 C4.2890625 37.37314453 4.2890625 37.37314453 2.7109375 37.36328125 C1.63070313 37.34652344 0.55046875 37.32976563 -0.5625 37.3125 C-1.65046875 37.30347656 -2.7384375 37.29445312 -3.859375 37.28515625 C-6.55230152 37.26153409 -9.24479255 37.22859556 -11.9375 37.1875 C-11.9621501 32.07886104 -11.98033607 26.97025641 -11.99243164 21.86157227 C-11.99747204 20.12230832 -12.0043043 18.38304864 -12.01293945 16.64379883 C-12.02501792 14.14924063 -12.03073108 11.65473827 -12.03515625 9.16015625 C-12.04031754 8.37786148 -12.04547882 7.59556671 -12.05079651 6.78956604 C-12.05099226 4.92182886 -11.99949694 3.05420796 -11.9375 1.1875 C-9.51933834 -1.23066166 -3.24972181 0.00202981 0 0 Z " fill="#00A651" transform="translate(11.9375,8.8125)"/>
<path d="M0 0 C0.495 0.33 0.99 0.66 1.5 1 C1.54254356 2.99954746 1.54080783 5.00041636 1.5 7 C-0.11277984 8.61277984 -2.02547624 8.23678994 -4.25 8.375 C-8.37884972 8.74712809 -11.19019417 9.33080175 -14.5 12 C-16.06935594 15.13871188 -15.85201103 17.53855822 -15.5 21 C-13.7539921 24.08088544 -13.7539921 24.08088544 -10.5 26 C-7.87958322 26.5183242 -5.37478658 26.74738527 -2.70703125 26.859375 C-0.5 27 -0.5 27 1.5 28 C2.3125 30.375 2.3125 30.375 2.5 33 C1.3671875 34.63671875 1.3671875 34.63671875 -0.5 36 C-6.97741824 37.06517544 -13.18099894 36.55149854 -18.87890625 33.2109375 C-22.3087258 30.64890362 -24.15949529 28.02151414 -25.5 24 C-26.44599075 11.39285403 -26.44599075 11.39285403 -22.5 6 C-16.33854261 -0.02453612 -8.459315 -3.383726 0 0 Z " fill="#00A651" transform="translate(50.5,10)"/>
<path d="M0 0 C0.66 0 1.32 0 2 0 C2.66 0.66 3.32 1.32 4 2 C7.08347826 2.16681109 7.08347826 2.16681109 10 2 C10 4.64 10 7.28 10 10 C6.66666667 10 3.33333333 10 0 10 C-0.33 8.68 -0.66 7.36 -1 6 C-1.33 7.32 -1.66 8.64 -2 10 C-2.886875 9.814375 -3.77375 9.62875 -4.6875 9.4375 C-7.86450218 9.01789594 -9.92408923 9.29693468 -13 10 C-14 9 -14 9 -14.0625 5.4375 C-14.041875 4.303125 -14.02125 3.16875 -14 2 C-13.34 2 -12.68 2 -12 2 C-12 3.65 -12 5.3 -12 7 C-11.34 7 -10.68 7 -10 7 C-10 5.35 -10 3.7 -10 2 C-7.03 2 -4.06 2 -1 2 C-0.67 1.34 -0.34 0.68 0 0 Z M6 5 C6 5.66 6 6.32 6 7 C6.66 7 7.32 7 8 7 C8 6.34 8 5.68 8 5 C7.34 5 6.68 5 6 5 Z " fill="#2591D0" transform="translate(76,49)"/>
<path d="M0 0 C0.99 0 1.98 0 3 0 C3 1.32 3 2.64 3 4 C4.32 4.33 5.64 4.66 7 5 C7.33 3.35 7.66 1.7 8 0 C8.99 0 9.98 0 11 0 C11.33 1.65 11.66 3.3 12 5 C12.78375 4.79375 13.5675 4.5875 14.375 4.375 C15.674375 4.189375 15.674375 4.189375 17 4 C17.66 4.66 18.32 5.32 19 6 C18.625 8.625 18.625 8.625 18 11 C11.98019802 12.26732673 11.98019802 12.26732673 8.9375 11.4375 C8.298125 11.293125 7.65875 11.14875 7 11 C6.67 11.33 6.34 11.66 6 12 C4.02 12 2.04 12 0 12 C0 8.04 0 4.08 0 0 Z M3 7 C3 7.66 3 8.32 3 9 C3.66 9 4.32 9 5 9 C5 8.34 5 7.68 5 7 C4.34 7 3.68 7 3 7 Z " fill="#2591D0" transform="translate(106,47)"/>
<path d="M0 0 C0.99 0 1.98 0 3 0 C3 2.64 3 5.28 3 8 C4.32 8 5.64 8 7 8 C7 5.36 7 2.72 7 0 C7.66 0 8.32 0 9 0 C9 0.99 9 1.98 9 3 C9.99 3 10.98 3 12 3 C12 3.66 12 4.32 12 5 C12.66 5 13.32 5 14 5 C14 4.34 14 3.68 14 3 C15.375 1.375 15.375 1.375 17 0 C17.66 0 18.32 0 19 0 C19 3.63 19 7.26 19 11 C18.34 11 17.68 11 17 11 C16.67 9.68 16.34 8.36 16 7 C15.34 8.32 14.68 9.64 14 11 C13.34 11 12.68 11 12 11 C11.34 9.68 10.68 8.36 10 7 C9.67 8.32 9.34 9.64 9 11 C6.03 11 3.06 11 0 11 C0 7.37 0 3.74 0 0 Z " fill="#2591D0" transform="translate(129,48)"/>
<path d="M0 0 C4.66666667 0 9.33333333 0 14 0 C14 2.64 14 5.28 14 8 C10.66666667 8 7.33333333 8 4 8 C3.67 6.35 3.34 4.7 3 3 C2.67 4.65 2.34 6.3 2 8 C1.34 8 0.68 8 0 8 C0 5.36 0 2.72 0 0 Z M10 3 C10 3.66 10 4.32 10 5 C10.66 5 11.32 5 12 5 C12 4.34 12 3.68 12 3 C11.34 3 10.68 3 10 3 Z " fill="#2591D0" transform="translate(91,51)"/>
<path d="M0 0 C1.8871875 0.0309375 1.8871875 0.0309375 3.8125 0.0625 C3.4825 1.7125 3.1525 3.3625 2.8125 5.0625 C0.89097932 5.29847622 -1.03068607 5.53334391 -2.953125 5.76171875 C-4.98066811 6.03465725 -6.99264148 6.4176098 -9 6.8125 C-12.1875 7.0625 -12.1875 7.0625 -14.125 5.8125 C-15.1875 4.0625 -15.1875 4.0625 -15.1875 1.0625 C-12.20898438 1.11132812 -12.20898438 1.11132812 -9.23046875 1.16015625 C-6.0110074 1.0062623 -3.29869865 -0.05407703 0 0 Z " fill="#2EC2F0" transform="translate(75.1875,28.9375)"/>
<path d="M0 0 C1.4540625 0.0309375 1.4540625 0.0309375 2.9375 0.0625 C2.9375 3.0325 2.9375 6.0025 2.9375 9.0625 C0.5625 10.125 0.5625 10.125 -2.0625 11.0625 C-2.7225 10.7325 -3.3825 10.4025 -4.0625 10.0625 C-4.08939216 8.58343108 -4.10884621 7.10422517 -4.125 5.625 C-4.13660156 4.80128906 -4.14820313 3.97757813 -4.16015625 3.12890625 C-4.00103255 -0.23815127 -3.43619093 0.07012635 0 0 Z M-2.0625 3.0625 C-2.0625 3.7225 -2.0625 4.3825 -2.0625 5.0625 C-1.4025 5.0625 -0.7425 5.0625 -0.0625 5.0625 C-0.0625 4.4025 -0.0625 3.7425 -0.0625 3.0625 C-0.7225 3.0625 -1.3825 3.0625 -2.0625 3.0625 Z " fill="#2591D0" transform="translate(161.0625,50.9375)"/>
<path d="M0 0 C1.65 0 3.3 0 5 0 C5 0.99 5 1.98 5 3 C4.67 3.33 4.34 3.66 4 4 C4.66 4.33 5.32 4.66 6 5 C6.042721 6.66611905 6.04063832 8.33382885 6 10 C5 11 5 11 2.4375 11.0625 C1.633125 11.041875 0.82875 11.02125 0 11 C-0.33 9.68 -0.66 8.36 -1 7 C-0.01 7 0.98 7 2 7 C1.01 6.34 0.02 5.68 -1 5 C-0.67 3.35 -0.34 1.7 0 0 Z " fill="#2591D0" transform="translate(55,48)"/>
<path d="M0 0 C1.99954746 -0.04254356 4.00041636 -0.04080783 6 0 C7 1 7 1 7.0625 4.0625 C7.041875 5.031875 7.02125 6.00125 7 7 C4.6875 7.6875 4.6875 7.6875 2 8 C0.125 6.875 0.125 6.875 -1 5 C-0.6875 2.3125 -0.6875 2.3125 0 0 Z M1 2 C2 5 2 5 2 5 Z " fill="#231F20" transform="translate(163,3)"/>
<path d="M0 0 C1.99954746 -0.04254356 4.00041636 -0.04080783 6 0 C7 1 7 1 7.0625 4.5625 C7.041875 5.696875 7.02125 6.83125 7 8 C6.34 8 5.68 8 5 8 C5 6.35 5 4.7 5 3 C4.34 3 3.68 3 3 3 C3 4.65 3 6.3 3 8 C2.01 8 1.02 8 0 8 C0 5.36 0 2.72 0 0 Z " fill="#2591D0" transform="translate(149,51)"/>
<path d="M0 0 C-0.33 0.99 -0.66 1.98 -1 3 C-2.7634375 3.2165625 -2.7634375 3.2165625 -4.5625 3.4375 C-8.38212272 3.91410176 -12.19110019 4.44453544 -16 5 C-11.43615233 0.43615233 -6.3670576 -1.91011728 0 0 Z " fill="#89D6F5" transform="translate(79,31)"/>
<path d="M0 0 C0.99 0 1.98 0 3 0 C3 3.63 3 7.26 3 11 C2.01 11 1.02 11 0 11 C0 7.37 0 3.74 0 0 Z " fill="#2591D0" transform="translate(87,48)"/>
<path d="M0 0 C1.5625 1.1875 1.5625 1.1875 3 3 C2.6875 5.6875 2.6875 5.6875 2 8 C0.68 7.67 -0.64 7.34 -2 7 C-1.125 1.125 -1.125 1.125 0 0 Z " fill="#00AEEF" transform="translate(73,19)"/>
</svg>
