<?xml version="1.0" encoding="UTF-8"?>
<svg version="1.1" xmlns="http://www.w3.org/2000/svg" width="500" height="54">
<path d="M0 0 C2.64 0 5.28 0 8 0 C8.26554688 0.99902344 8.53109375 1.99804688 8.8046875 3.02734375 C9.16103998 4.33084361 9.51783368 5.6342229 9.875 6.9375 C10.04902344 7.59685547 10.22304687 8.25621094 10.40234375 8.93554688 C10.87476237 10.641503 11.43215028 12.32339261 12 14 C12.66 14.33 13.32 14.66 14 15 C13.938125 16.03125 13.87625 17.0625 13.8125 18.125 C14.01135595 22.23468973 14.94467803 24.48882496 17 28 C17.66 28 18.32 28 19 28 C19.04898438 27.36191406 19.09796875 26.72382813 19.1484375 26.06640625 C19.22320312 25.24011719 19.29796875 24.41382812 19.375 23.5625 C19.44460937 22.73878906 19.51421875 21.91507813 19.5859375 21.06640625 C19.72257812 20.38449219 19.85921875 19.70257812 20 19 C20.66 18.67 21.32 18.34 22 18 C22.76015349 16.02646943 23.43603014 14.01994846 24.0625 12 C25.90909091 6.09090909 25.90909091 6.09090909 27 5 C29.33297433 4.95907063 31.66705225 4.95758277 34 5 C34.50512244 6.60256108 35.00391627 8.20711792 35.5 9.8125 C35.7784375 10.70582031 36.056875 11.59914063 36.34375 12.51953125 C37 15 37 15 37 18 C37.66 18 38.32 18 39 18 C39.99 20.64 40.98 23.28 42 26 C42.99 25.67 43.98 25.34 45 25 C45.78831765 23.18666364 45.78831765 23.18666364 46.16796875 20.96484375 C46.42416992 19.75151367 46.42416992 19.75151367 46.68554688 18.51367188 C46.85119141 17.66353516 47.01683594 16.81339844 47.1875 15.9375 C47.36474609 15.08349609 47.54199219 14.22949219 47.72460938 13.34960938 C48.1616059 11.23549105 48.58233206 9.11802166 49 7 C49.66 7 50.32 7 51 7 C51.33 4.69 51.66 2.38 52 0 C54.97 0 57.94 0 61 0 C58.2969563 12.25379813 58.2969563 12.25379813 56.59765625 17.078125 C54.86090475 22.22827334 53.63523075 27.45278073 52.4375 32.75 C49.95422511 43.71331265 49.95422511 43.71331265 48 48 C42.04296875 48.48828125 42.04296875 48.48828125 40 48 C36.44293623 43.73329757 35.35896455 37.99980423 33.875 32.75 C33.35433853 30.93149456 32.83104404 29.11374021 32.3046875 27.296875 C32.07765137 26.49604492 31.85061523 25.69521484 31.61669922 24.87011719 C31.15825334 23.00822441 31.15825334 23.00822441 30 22 C29.01 25.63 28.02 29.26 27 33 C26.34 33 25.68 33 25 33 C24.96261719 33.83144531 24.92523438 34.66289063 24.88671875 35.51953125 C24.82097656 36.60621094 24.75523437 37.69289062 24.6875 38.8125 C24.62949219 39.89144531 24.57148438 40.97039063 24.51171875 42.08203125 C24 45 24 45 22.75 46.875 C20.46808978 48.34194228 19.00313803 48.30448426 16.3125 48.1875 C15.10013672 48.14689453 15.10013672 48.14689453 13.86328125 48.10546875 C13.24839844 48.07066406 12.63351563 48.03585938 12 48 C11.51891725 46.58398286 11.04021859 45.16715563 10.5625 43.75 C10.29566406 42.96109375 10.02882812 42.1721875 9.75390625 41.359375 C9.07995682 39.25022756 8.51096794 37.1533649 8 35 C7.814375 34.2575 7.62875 33.515 7.4375 32.75 C7.293125 32.1725 7.14875 31.595 7 31 C6.67 31 6.34 31 6 31 C6.061875 30.195625 6.12375 29.39125 6.1875 28.5625 C5.98990141 24.80812675 5.11670178 22.07880881 3.8671875 18.57421875 C1.83232833 12.53380348 0 6.39016553 0 0 Z M42 29 C42.33 30.65 42.66 32.3 43 34 C43.33 32.68 43.66 31.36 44 30 C43.34 29.67 42.68 29.34 42 29 Z M17 32 C18 34 18 34 18 34 Z " fill="#FAFEF9" transform="translate(146,3)"/>
<path d="M0 0 C3.3 0 6.6 0 10 0 C10.66 1.32 11.32 2.64 12 4 C12.66 4.33 13.32 4.66 14 5 C15.03261823 6.74020621 16.00319678 8.51759177 16.9375 10.3125 C19.22815097 14.70047335 21.49061151 18.49061151 25 22 C25.99 24.31 26.98 26.62 28 29 C28.33 19.43 28.66 9.86 29 0 C29.33 0 29.66 0 30 0 C30 10.56 30 21.12 30 32 C30.33 21.44 30.66 10.88 31 0 C33.64 0 36.28 0 39 0 C39 15.84 39 31.68 39 48 C35.37 48 31.74 48 28 48 C27.505 45.525 27.505 45.525 27 43 C25.75657434 40.75089938 25.75657434 40.75089938 24.1875 38.625 C22.25213475 35.84696376 20.43649739 33.09603399 18.8125 30.125 C17.07097914 26.81407798 17.07097914 26.81407798 14 24 C12.35 21.03 10.7 18.06 9 15 C8.67 25.89 8.34 36.78 8 48 C5.36 48 2.72 48 0 48 C0 32.16 0 16.32 0 0 Z " fill="#FAFEF9" transform="translate(381,3)"/>
<path d="M0 0 C6.27 0 12.54 0 19 0 C19 0.66 19 1.32 19 2 C19.556875 2.061875 20.11375 2.12375 20.6875 2.1875 C23.97199875 3.34151307 25.65442984 5.47400137 28 8 C28.53625 8.45375 29.0725 8.9075 29.625 9.375 C33.95394881 14.49103042 35.29963036 21.26212664 35.2265625 27.77734375 C34.65017446 33.43190917 32.54590065 40.78922852 28.16015625 44.59765625 C27.46792969 45.08105469 26.77570313 45.56445312 26.0625 46.0625 C23.15466361 48.09052369 23.15466361 48.09052369 20.64819336 50.56665039 C18.54186763 52.39841433 17.4179035 52.38616089 14.65625 52.3984375 C13.82222656 52.40230469 12.98820312 52.40617187 12.12890625 52.41015625 C10.82759766 52.39275391 10.82759766 52.39275391 9.5 52.375 C8.19869141 52.39240234 8.19869141 52.39240234 6.87109375 52.41015625 C5.62005859 52.40435547 5.62005859 52.40435547 4.34375 52.3984375 C3.20196289 52.39336182 3.20196289 52.39336182 2.03710938 52.38818359 C-0.52026582 51.90086018 -1.30423289 50.92119172 -3 49 C-3.825 48.505 -4.65 48.01 -5.5 47.5 C-7.772879 46.1362726 -9.26578747 44.97069606 -11 43 C-11.7734375 42.13375 -11.7734375 42.13375 -12.5625 41.25 C-17.07446136 34.18779962 -16.86120465 25.51682584 -15.60546875 17.47265625 C-13.61765599 9.97026614 -8.3624888 6.1015555 -2 2.125 C-1.34 1.75375 -0.68 1.3825 0 1 C0 0.67 0 0.34 0 0 Z M4 8 C4 8.66 4 9.32 4 10 C3.2575 10.061875 2.515 10.12375 1.75 10.1875 C-1.86782848 11.25640387 -2.93843714 12.90765572 -5 16 C-5.33 16.99 -5.66 17.98 -6 19 C-6.66 19.99 -7.32 20.98 -8 22 C-8.64350939 28.32784232 -7.61439116 32.7299845 -4 38 C-0.58711518 41.41546236 -0.58711518 41.41546236 4 42 C4.33 42.66 4.66 43.32 5 44 C11.82297766 44.6498074 15.6020756 43.8425451 21.11328125 39.6875 C24.70730719 36.47296748 25.8475252 33.89068747 26.234375 29.09375 C26.39611452 22.43008175 26.24347578 18.4860137 21.6875 13.4375 C16.34184103 8.58911163 13.14037083 7.67598863 6.01171875 7.89453125 C5.01591797 7.94673828 5.01591797 7.94673828 4 8 Z " fill="#FAFEF9" transform="translate(109,1)"/>
<path d="M0 0 C1.7109375 1.48046875 1.7109375 1.48046875 3 3 C2.9375 5 2.9375 5 2 7 C-0.0625 8.75 -0.0625 8.75 -2 10 C-2.47308594 9.6390625 -2.94617187 9.278125 -3.43359375 8.90625 C-7.85741507 5.80181399 -11.29718372 4.18659904 -16.7578125 4.5078125 C-21.71114665 5.59512975 -25.51338626 8.4174757 -28.9375 12.0625 C-31.34658047 16.4555291 -31.50802219 21.05832962 -31 26 C-29.08762596 32.03907593 -26.57478581 34.91915453 -21.16796875 38.06640625 C-18.63950511 39.15524014 -16.48881711 39.4087776 -13.75 39.625 C-12.85796875 39.69976562 -11.9659375 39.77453125 -11.046875 39.8515625 C-10.37140625 39.90054688 -9.6959375 39.94953125 -9 40 C-9 39.34 -9 38.68 -9 38 C-8.071875 37.62875 -7.14375 37.2575 -6.1875 36.875 C-2.43779696 34.66929233 -1.75025967 32.87895386 0 29 C-1.07121094 28.93941406 -2.14242187 28.87882812 -3.24609375 28.81640625 C-4.64324391 28.73201463 -6.04037857 28.64736594 -7.4375 28.5625 C-8.14455078 28.52318359 -8.85160156 28.48386719 -9.58007812 28.44335938 C-14.88671875 28.11328125 -14.88671875 28.11328125 -16 27 C-16 24.69 -16 22.38 -16 20 C-7.75 20 0.5 20 9 20 C10 32 10 32 8 36 C4.90291035 39.34820503 1.57341683 42.17888145 -2 45 C-2.56654297 45.80050781 -2.56654297 45.80050781 -3.14453125 46.6171875 C-6.16603185 48.86900058 -9.47420812 48.25924053 -13.0625 48 C-14.2067041 47.922052 -14.2067041 47.922052 -15.37402344 47.8425293 C-23.06445419 47.1548932 -29.5595394 44.95973924 -34.9375 39.1875 C-39.78639732 31.6937496 -41.01288914 24.93184063 -40 16 C-38.29602095 8.7783745 -35.22711773 4.03165956 -29 0 C-20.427898 -5.24822571 -8.7710733 -4.46828262 0 0 Z " fill="#FAFEF9" transform="translate(40,5)"/>
<path d="M0 0 C23.42424242 0 23.42424242 0 31.875 6.0625 C34.67559557 9.93391152 34.70850258 12.72020219 34.48828125 17.4140625 C33.76784662 21.2294843 32.04738222 22.69753344 29 25 C27.31989806 26.6531222 25.65133235 28.31813882 24 30 C25.45525521 32.29367386 26.91403843 34.58496515 28.375 36.875 C28.7875 37.52597656 29.2 38.17695312 29.625 38.84765625 C31.28002854 41.43697509 32.81997379 43.81997379 35 46 C34.505 46.99 34.505 46.99 34 48 C26.48850633 48.36941772 26.48850633 48.36941772 24.4296875 46.8125 C22.04562404 43.79008075 20.28488435 40.43036682 18.40234375 37.08203125 C17.93957031 36.39496094 17.47679687 35.70789062 17 35 C16.34 35 15.68 35 15 35 C14.67 33.68 14.34 32.36 14 31 C12.68 30.67 11.36 30.34 10 30 C10 35.94 10 41.88 10 48 C6.7 48 3.4 48 0 48 C0 32.16 0 16.32 0 0 Z M8 7 C8 11.95 8 16.9 8 22 C11.96 22 15.92 22 20 22 C20 21.67 20 21.34 20 21 C16.37 21 12.74 21 9 21 C9 16.38 9 11.76 9 7 C8.67 7 8.34 7 8 7 Z M10 8 C10 11.96 10 15.92 10 20 C13.96 20.33 17.92 20.66 22 21 C24.71232939 16.93150591 24.30699887 14.83523216 24 10 C22.1371051 7.69939466 22.1371051 7.69939466 19.1796875 7.8046875 C14.58984375 7.90234375 14.58984375 7.90234375 10 8 Z " fill="#FAFEF9" transform="translate(304,3)"/>
<path d="M0 0 C3.35136077 1.4028952 3.57151266 2.4376913 5 5.6875 C5.5809927 7.15950128 6.14934413 8.6368036 6.6875 10.125 C7.0175 10.125 7.3475 10.125 7.6875 10.125 C8.05101562 11.3934375 8.05101562 11.3934375 8.421875 12.6875 C10.72124823 20.46999402 13.16376653 27.33939979 17.6875 34.125 C18.60157022 36.86721066 19.19826205 39.48024518 19.75 42.3125 C19.92660156 43.21355469 20.10320312 44.11460938 20.28515625 45.04296875 C20.48431641 46.07357422 20.48431641 46.07357422 20.6875 47.125 C17.33769333 48.21665022 15.90508534 48.20969217 12.56640625 46.91015625 C11.47199219 46.34167969 10.37757813 45.77320313 9.25 45.1875 C4.79829254 42.88018055 1.73218584 41.56753813 -3.3125 42.125 C-5.64789845 42.93531609 -5.64789845 42.93531609 -7.6875 44.125 C-8.37585938 44.49625 -9.06421875 44.8675 -9.7734375 45.25 C-10.28132813 45.53875 -10.78921875 45.8275 -11.3125 46.125 C-11.3125 46.785 -11.3125 47.445 -11.3125 48.125 C-14.69067425 48.96954356 -16.98715243 49.23344919 -20.3125 48.125 C-19.86605616 40.53545469 -17.19749438 34.10860263 -14.3125 27.125 C-13.6525 27.125 -12.9925 27.125 -12.3125 27.125 C-12.51875 26.526875 -12.725 25.92875 -12.9375 25.3125 C-13.3125 23.125 -13.3125 23.125 -11.3125 20.125 C-8.61540394 14.58348751 -6.36924178 8.83722579 -4.14453125 3.09375 C-2.90337916 0.15693941 -2.90337916 0.15693941 0 0 Z " fill="#FAFEF9" transform="translate(276.3125,2.875)"/>
<path d="M0 0 C0.33 0.99 0.66 1.98 1 3 C1.639375 3.28875 2.27875 3.5775 2.9375 3.875 C5 5 5 5 6.3125 7 C7.57957097 12.52903696 6.96793806 17.93787108 4.5625 23.0625 C3 25 3 25 1 26 C-0.0194119 26.98020375 -1.02246356 27.97803008 -2 29 C-1.34 29.99 -0.68 30.98 0 32 C2 35 2 35 2.875 36.8125 C4.05752564 39.22109419 4.05752564 39.22109419 6.125 42.125 C8 45 8 45 8 47 C6.56344146 47.08131463 5.1255517 47.13933559 3.6875 47.1875 C2.48673828 47.23970703 2.48673828 47.23970703 1.26171875 47.29296875 C-1.51528954 46.93325265 -2.29266582 46.1643744 -4 44 C-4.6837045 42.67532254 -5.34964186 41.34136367 -6 40 C-6.45375 39.401875 -6.9075 38.80375 -7.375 38.1875 C-9.54326475 35.26868207 -11.22907657 32.17544891 -13 29 C-14.65 29.33 -16.3 29.66 -18 30 C-18 35.61 -18 41.22 -18 47 C-20.64 47 -23.28 47 -26 47 C-26 31.16 -26 15.32 -26 -1 C-4 -2 -4 -2 0 0 Z M-18 7 C-18 10.96 -18 14.92 -18 19 C-13.05 19 -8.1 19 -3 19 C-1.47508002 15.95016004 -1.76437452 13.3576631 -2 10 C-3.02399571 8.1567572 -3.02399571 8.1567572 -5 7 C-8.20138068 6.6363838 -8.20138068 6.6363838 -11.6875 6.8125 C-12.86699219 6.83957031 -14.04648437 6.86664063 -15.26171875 6.89453125 C-16.61716797 6.94673828 -16.61716797 6.94673828 -18 7 Z M-19 20 C-19 20.33 -19 20.66 -19 21 C-14.71 21 -10.42 21 -6 21 C-6 20.67 -6 20.34 -6 20 C-10.29 20 -14.58 20 -19 20 Z M-4 27 C-3 29 -3 29 -3 29 Z " fill="#FAFEF9" transform="translate(491,4)"/>
<path d="M0 0 C24.7037037 0 24.7037037 0 30.8125 5.6875 C32.9476559 9.84543518 33.63226627 14.46607135 32.4921875 19.03515625 C31.19067495 22.26153736 29.66737028 24.77719143 27 27 C26.443125 27.556875 25.88625 28.11375 25.3125 28.6875 C24.879375 29.120625 24.44625 29.55375 24 30 C24.66 30.99 25.32 31.98 26 33 C26.30679688 33.62648437 26.61359375 34.25296875 26.9296875 34.8984375 C28.57289066 38.12487291 30.69563032 41.00662548 32.7578125 43.9765625 C34 46 34 46 34 48 C30.87444584 48.49028301 28.10363238 48.69375312 25 48 C23.21955656 46.14158093 22.20309322 44.34628956 21.0703125 42.04296875 C19.95179294 39.90798434 18.71187075 38.67185299 17 37 C15.54321123 34.72468109 14.29838196 32.37290496 13 30 C11.68 30 10.36 30 9 30 C8.67 35.94 8.34 41.88 8 48 C5.36 48 2.72 48 0 48 C0 32.16 0 16.32 0 0 Z M8 7 C8 11.95 8 16.9 8 22 C11.96 22 15.92 22 20 22 C20 21.67 20 21.34 20 21 C16.37 21 12.74 21 9 21 C9.33 20.67 9.66 20.34 10 20 C12.02408755 20.09002398 14.04544287 20.24641038 16.0625 20.4375 C17.16722656 20.53933594 18.27195312 20.64117187 19.41015625 20.74609375 C20.26480469 20.82988281 21.11945313 20.91367187 22 21 C24.46324069 17.30513897 24.38991688 15.36706908 24 11 C22.96066717 9.19307053 22.96066717 9.19307053 21 8 C17.80754002 7.41907008 17.80754002 7.41907008 14.3125 7.3125 C11.1878125 7.1578125 11.1878125 7.1578125 8 7 Z M22 28 C23 30 23 30 23 30 Z " fill="#FAFEF9" transform="translate(56,3)"/>
<path d="M0 0 C9.9 0 19.8 0 30 0 C30 2.64 30 5.28 30 8 C23.4 8 16.8 8 10 8 C10 11.63 10 15.26 10 19 C15.28 19 20.56 19 26 19 C26 19.33 26 19.66 26 20 C24.78441406 19.98839844 23.56882812 19.97679688 22.31640625 19.96484375 C20.73177236 19.95546722 19.14713682 19.94636687 17.5625 19.9375 C16.35883789 19.92493164 16.35883789 19.92493164 15.13085938 19.91210938 C13.08704779 19.9034857 11.04316098 19.9477185 9 20 C8.67 20.33 8.34 20.66 8 21 C14.6 21 21.2 21 28 21 C28 22.98 28 24.96 28 27 C21.4 27 14.8 27 8 27 C9.21428988 28.44388571 9.21428988 28.44388571 12.81640625 28.09765625 C14.39846682 28.09098089 15.98051159 28.07901875 17.5625 28.0625 C18.77196289 28.05573242 18.77196289 28.05573242 20.00585938 28.04882812 C22.00393756 28.03700518 24.00197783 28.01906914 26 28 C26 28.33 26 28.66 26 29 C20.72 29 15.44 29 10 29 C10 32.63 10 36.26 10 40 C16.6 40 23.2 40 30 40 C30 42.64 30 45.28 30 48 C20.1 48 10.2 48 0 48 C0 32.16 0 16.32 0 0 Z " fill="#FAFEF9" transform="translate(428,3)"/>
<path d="M0 0 C24.375 0 24.375 0 31.3125 6 C33.16267699 8.19280235 33.58502366 9.19890973 34 12 C33.29316811 17.32903596 32.18420784 22.55631714 28 26.1875 C25 28 25 28 22 28 C22 28.66 22 29.32 22 30 C18.04 30 14.08 30 10 30 C10 35.94 10 41.88 10 48 C6.7 48 3.4 48 0 48 C0 32.16 0 16.32 0 0 Z M8 7 C8 11.95 8 16.9 8 22 C11.96 22 15.92 22 20 22 C20 21.67 20 21.34 20 21 C16.37 21 12.74 21 9 21 C9 16.38 9 11.76 9 7 C8.67 7 8.34 7 8 7 Z M10 8 C10 11.96 10 15.92 10 20 C13.96 20.33 17.92 20.66 22 21 C24.71232939 16.93150591 24.30699887 14.83523216 24 10 C22.1371051 7.69939466 22.1371051 7.69939466 19.1796875 7.8046875 C14.58984375 7.90234375 14.58984375 7.90234375 10 8 Z " fill="#FAFEF9" transform="translate(225,3)"/>
<path d="M0 0 C1.43352212 0.00015908 2.86704998 0.00585132 4.30053711 0.01586914 C5.43041298 0.01799156 5.43041298 0.01799156 6.58311462 0.02015686 C8.99807646 0.02577163 11.41294687 0.03832656 13.82788086 0.05102539 C15.46134307 0.05603849 17.09480672 0.06060173 18.72827148 0.06469727 C22.74067671 0.07574585 26.75301326 0.09302033 30.76538086 0.11352539 C30.80779809 2.44647314 30.80631023 4.78055106 30.76538086 7.11352539 C30.43538086 7.44352539 30.10538086 7.77352539 29.76538086 8.11352539 C25.80538086 8.11352539 21.84538086 8.11352539 17.76538086 8.11352539 C17.76538086 21.31352539 17.76538086 34.51352539 17.76538086 48.11352539 C15.12538086 48.11352539 12.48538086 48.11352539 9.76538086 48.11352539 C9.76538086 34.91352539 9.76538086 21.71352539 9.76538086 8.11352539 C5.47538086 8.11352539 1.18538086 8.11352539 -3.23461914 8.11352539 C-3.61525135 5.78743969 -3.94731859 3.45297275 -4.23461914 1.11352539 C-3.23461914 0.11352539 -3.23461914 0.11352539 0 0 Z " fill="#FAFEF9" transform="translate(344.234619140625,2.886474609375)"/>
<path d="M0 0 C0.33 0 0.66 0 1 0 C1 15.84 1 31.68 1 48 C0.67 48 0.34 48 0 48 C0 32.16 0 16.32 0 0 Z " fill="#FAFFFA" transform="translate(379,3)"/>
<path d="M0 0 C0.33 0 0.66 0 1 0 C1 15.84 1 31.68 1 48 C0.67 48 0.34 48 0 48 C0 32.16 0 16.32 0 0 Z " fill="#FAFFFA" transform="translate(463,3)"/>
<path d="M0 0 C0.33 0 0.66 0 1 0 C1 15.84 1 31.68 1 48 C0.67 48 0.34 48 0 48 C0 32.16 0 16.32 0 0 Z " fill="#FAFFF9" transform="translate(223,3)"/>
<path d="M0 0 C0.33 0 0.66 0 1 0 C1 15.84 1 31.68 1 48 C0.67 48 0.34 48 0 48 C0 32.16 0 16.32 0 0 Z " fill="#FAFFF9" transform="translate(54,3)"/>
<path d="M0 0 C0.33 0 0.66 0 1 0 C1 15.18 1 30.36 1 46 C0.67 46 0.34 46 0 46 C0 30.82 0 15.64 0 0 Z " fill="#FAFFF9" transform="translate(421,4)"/>
<path d="M0 0 C0.33 0 0.66 0 1 0 C1 15.18 1 30.36 1 46 C0.67 46 0.34 46 0 46 C0 30.82 0 15.64 0 0 Z " fill="#FAFFF9" transform="translate(302,4)"/>
<path d="M0 0 C2.45409801 3.68114701 2.16723151 5.27039848 1.9765625 9.63671875 C1.925 10.93544922 1.8734375 12.23417969 1.8203125 13.57226562 C1.75543549 14.94402118 1.69032837 16.31576587 1.625 17.6875 C1.56674379 19.07092326 1.50944085 20.45438702 1.453125 21.83789062 C1.31147124 25.22577631 1.16003846 28.61294104 1 32 C0.67 32 0.34 32 0 32 C0 21.44 0 10.88 0 0 Z " fill="#FAFFF9" transform="translate(390,19)"/>
<path d="M0 0 C10.89 0 21.78 0 33 0 C33 0.33 33 0.66 33 1 C22.11 1 11.22 1 0 1 C0 0.67 0 0.34 0 0 Z " fill="#FAFFF9" transform="translate(341,1)"/>
<path d="M0 0 C9.24 0 18.48 0 28 0 C28 0.33 28 0.66 28 1 C18.76 1 9.52 1 0 1 C0 0.67 0 0.34 0 0 Z " fill="#FBFFFA" transform="translate(429,52)"/>
<path d="M0 0 C9.24 0 18.48 0 28 0 C28 0.33 28 0.66 28 1 C18.76 1 9.52 1 0 1 C0 0.67 0 0.34 0 0 Z " fill="#FBFFFA" transform="translate(429,1)"/>
<path d="M0 0 C7.92 0 15.84 0 24 0 C24 0.33 24 0.66 24 1 C16.08 1 8.16 1 0 1 C0 0.67 0 0.34 0 0 Z " fill="#FBFFFA" transform="translate(25,23)"/>
<path d="M0 0 C7.26 0 14.52 0 22 0 C22 0.33 22 0.66 22 1 C14.74 1 7.48 1 0 1 C0 0.67 0 0.34 0 0 Z " fill="#FAFFF9" transform="translate(465,1)"/>
<path d="M0 0 C7.26 0 14.52 0 22 0 C22 0.33 22 0.66 22 1 C14.74 1 7.48 1 0 1 C0 0.67 0 0.34 0 0 Z " fill="#FAFFF9" transform="translate(56,1)"/>
<path d="M0 0 C6.93 0 13.86 0 21 0 C21 0.33 21 0.66 21 1 C14.07 1 7.14 1 0 1 C0 0.67 0 0.34 0 0 Z " fill="#FAFFF9" transform="translate(305,1)"/>
<path d="M0 0 C6.93 0 13.86 0 21 0 C21 0.33 21 0.66 21 1 C14.07 1 7.14 1 0 1 C0 0.67 0 0.34 0 0 Z " fill="#FAFFF9" transform="translate(226,1)"/>
<path d="M0 0 C0.33 0 0.66 0 1 0 C1 5.28 1 10.56 1 16 C0.67 16 0.34 16 0 16 C0 10.72 0 5.44 0 0 Z " fill="#FAFFF9" transform="translate(65,34)"/>
<path d="M0 0 C3.63 0 7.26 0 11 0 C11 0.33 11 0.66 11 1 C7.37 1 3.74 1 0 1 C0 0.67 0 0.34 0 0 Z " fill="#FAFFF9" transform="translate(113,53)"/>
<path d="M0 0 C3.63 0 7.26 0 11 0 C11 0.33 11 0.66 11 1 C7.37 1 3.74 1 0 1 C0 0.67 0 0.34 0 0 Z " fill="#FAFFF9" transform="translate(20,53)"/>
<path d="M0 0 C3.63 0 7.26 0 11 0 C11 0.33 11 0.66 11 1 C7.37 1 3.74 1 0 1 C0 0.67 0 0.34 0 0 Z " fill="#FAFFF9" transform="translate(113,0)"/>
<path d="M0 0 C3.63 0 7.26 0 11 0 C11 0.33 11 0.66 11 1 C7.37 1 3.74 1 0 1 C0 0.67 0 0.34 0 0 Z " fill="#FAFFF9" transform="translate(20,0)"/>
<path d="M0 0 C0.33 0 0.66 0 1 0 C1 3.3 1 6.6 1 10 C0.67 10 0.34 10 0 10 C0 6.7 0 3.4 0 0 Z " fill="#FAFFFA" transform="translate(91,22)"/>
<path d="M0 0 C2.64 0 5.28 0 8 0 C8 0.33 8 0.66 8 1 C5.36 1 2.72 1 0 1 C0 0.67 0 0.34 0 0 Z " fill="#FAFFF9" transform="translate(490,52)"/>
<path d="M0 0 C2.64 0 5.28 0 8 0 C8 0.33 8 0.66 8 1 C5.36 1 2.72 1 0 1 C0 0.67 0 0.34 0 0 Z " fill="#FAFFF9" transform="translate(411,52)"/>
<path d="M0 0 C2.64 0 5.28 0 8 0 C8 0.33 8 0.66 8 1 C5.36 1 2.72 1 0 1 C0 0.67 0 0.34 0 0 Z " fill="#FBFFFA" transform="translate(330,52)"/>
<path d="M0 0 C2.64 0 5.28 0 8 0 C8 0.33 8 0.66 8 1 C5.36 1 2.72 1 0 1 C0 0.67 0 0.34 0 0 Z " fill="#FBFFFA" transform="translate(82,52)"/>
<path d="M0 0 C0.33 0 0.66 0 1 0 C1 2.64 1 5.28 1 8 C0.67 8 0.34 8 0 8 C0 5.36 0 2.72 0 0 Z " fill="#FBFFF9" transform="translate(102,23)"/>
<path d="M0 0 C2.64 0 5.28 0 8 0 C8 0.33 8 0.66 8 1 C5.36 1 2.72 1 0 1 C0 0.67 0 0.34 0 0 Z " fill="#FBFFFA" transform="translate(382,1)"/>
<path d="M0 0 C2.31 0 4.62 0 7 0 C7 0.33 7 0.66 7 1 C4.69 1 2.38 1 0 1 C0 0.67 0 0.34 0 0 Z " fill="#FAFFF9" transform="translate(465,52)"/>
<path d="M0 0 C2.31 0 4.62 0 7 0 C7 0.33 7 0.66 7 1 C4.69 1 2.38 1 0 1 C0 0.67 0 0.34 0 0 Z " fill="#FBFFFA" transform="translate(305,52)"/>
<path d="M0 0 C2.31 0 4.62 0 7 0 C7 0.33 7 0.66 7 1 C4.69 1 2.38 1 0 1 C0 0.67 0 0.34 0 0 Z " fill="#FBFFFA" transform="translate(186,52)"/>
<path d="M0 0 C2.31 0 4.62 0 7 0 C7 0.33 7 0.66 7 1 C4.69 1 2.38 1 0 1 C0 0.67 0 0.34 0 0 Z " fill="#FAFFF9" transform="translate(159,52)"/>
<path d="M0 0 C2.31 0 4.62 0 7 0 C7 0.33 7 0.66 7 1 C4.69 1 2.38 1 0 1 C0 0.67 0 0.34 0 0 Z " fill="#FAFFF9" transform="translate(56,52)"/>
<path d="M0 0 C2.31 0 4.62 0 7 0 C7 0.33 7 0.66 7 1 C4.69 1 2.38 1 0 1 C0 0.67 0 0.34 0 0 Z " fill="#FAFFF9" transform="translate(412,1)"/>
<path d="M0 0 C2.31 0 4.62 0 7 0 C7 0.33 7 0.66 7 1 C4.69 1 2.38 1 0 1 C0 0.67 0 0.34 0 0 Z " fill="#FAFFF9" transform="translate(198,1)"/>
<path d="M0 0 C2.31 0 4.62 0 7 0 C7 0.33 7 0.66 7 1 C4.69 1 2.38 1 0 1 C0 0.67 0 0.34 0 0 Z " fill="#FAFFF9" transform="translate(146,1)"/>
<path d="M0 0 C1.98 0 3.96 0 6 0 C6 0.33 6 0.66 6 1 C4.02 1 2.04 1 0 1 C0 0.67 0 0.34 0 0 Z " fill="#FBFFFA" transform="translate(382,52)"/>
<path d="M0 0 C1.98 0 3.96 0 6 0 C6 0.33 6 0.66 6 1 C4.02 1 2.04 1 0 1 C0 0.67 0 0.34 0 0 Z " fill="#FBFFFA" transform="translate(355,52)"/>
<path d="M0 0 C1.98 0 3.96 0 6 0 C6 0.33 6 0.66 6 1 C4.02 1 2.04 1 0 1 C0 0.67 0 0.34 0 0 Z " fill="#FBFFFA" transform="translate(226,52)"/>
<path d="M0 0 C0.33 0 0.66 0 1 0 C1 1.98 1 3.96 1 6 C0.67 6 0.34 6 0 6 C0 4.02 0 2.04 0 0 Z " fill="#FAFFFA" transform="translate(459,45)"/>
<path d="M0 0 C0.33 0 0.66 0 1 0 C1 1.98 1 3.96 1 6 C0.67 6 0.34 6 0 6 C0 4.02 0 2.04 0 0 Z " fill="#FAFFF9" transform="translate(22,25)"/>
<path d="M0 0 C0.33 0 0.66 0 1 0 C1 1.98 1 3.96 1 6 C0.67 6 0.34 6 0 6 C0 4.02 0 2.04 0 0 Z " fill="#FAFFF9" transform="translate(9,24)"/>
<path d="M0 0 C0.33 0 0.66 0 1 0 C1 1.98 1 3.96 1 6 C0.67 6 0.34 6 0 6 C0 4.02 0 2.04 0 0 Z " fill="#FAFFF9" transform="translate(457,24)"/>
<path d="M0 0 C0.33 0 0.66 0 1 0 C1 1.98 1 3.96 1 6 C0.67 6 0.34 6 0 6 C0 4.02 0 2.04 0 0 Z " fill="#FAFFFA" transform="translate(376,3)"/>
<path d="M0 0 C0.33 0 0.66 0 1 0 C1 1.98 1 3.96 1 6 C0.67 6 0.34 6 0 6 C0 4.02 0 2.04 0 0 Z " fill="#FAFFFA" transform="translate(459,3)"/>
<path d="M0 0 C0.33 0 0.66 0 1 0 C1 1.65 1 3.3 1 5 C0.67 5 0.34 5 0 5 C0 3.35 0 1.7 0 0 Z " fill="#FAFFFA" transform="translate(254,46)"/>
<path d="M0 0 C1 4 1 4 1 4 Z " fill="#FAFFF9" transform="translate(144,31)"/>
<path d="M0 0 C1 4 1 4 1 4 Z " fill="#FAFFFA" transform="translate(133,29)"/>
<path d="M0 0 C1 4 1 4 1 4 Z " fill="#FBFFF9" transform="translate(201,25)"/>
<path d="M0 0 C1 4 1 4 1 4 Z " fill="#FAFFFA" transform="translate(145,25)"/>
<path d="M0 0 C1 4 1 4 1 4 Z " fill="#FAFFF9" transform="translate(202,21)"/>
<path d="M0 0 C1 4 1 4 1 4 Z " fill="#FAFFFA" transform="translate(133,21)"/>
<path d="M0 0 C1 4 1 4 1 4 Z " fill="#FAFFF9" transform="translate(144,19)"/>
<path d="M0 0 C3 1 3 1 3 1 Z " fill="#FAFFF9" transform="translate(292,52)"/>
<path d="M0 0 C3 1 3 1 3 1 Z " fill="#FAFFF9" transform="translate(257,52)"/>
<path d="" fill="#FBFFFA" transform="translate(0,0)"/>
<path d="" fill="#FAFFF9" transform="translate(0,0)"/>
<path d="" fill="#FAFFF9" transform="translate(0,0)"/>
<path d="" fill="#FBFFF9" transform="translate(0,0)"/>
<path d="" fill="#FBFFFA" transform="translate(0,0)"/>
<path d="" fill="#FBFFFA" transform="translate(0,0)"/>
<path d="" fill="#FAFFF9" transform="translate(0,0)"/>
<path d="" fill="#FAFFFA" transform="translate(0,0)"/>
<path d="" fill="#FAFFF9" transform="translate(0,0)"/>
<path d="" fill="#FAFFF9" transform="translate(0,0)"/>
<path d="" fill="#FBFFFA" transform="translate(0,0)"/>
<path d="" fill="#FCFFFB" transform="translate(0,0)"/>
<path d="" fill="#FBFFFA" transform="translate(0,0)"/>
<path d="" fill="#FBFFFA" transform="translate(0,0)"/>
<path d="" fill="#FBFFFA" transform="translate(0,0)"/>
<path d="" fill="#FBFFFA" transform="translate(0,0)"/>
<path d="" fill="#FBFFFB" transform="translate(0,0)"/>
<path d="" fill="#FAFFF9" transform="translate(0,0)"/>
<path d="" fill="#FAFFF9" transform="translate(0,0)"/>
<path d="" fill="#FAFFF9" transform="translate(0,0)"/>
<path d="" fill="#FAFFF9" transform="translate(0,0)"/>
<path d="" fill="#FAFFF9" transform="translate(0,0)"/>
<path d="" fill="#FAFFF9" transform="translate(0,0)"/>
<path d="" fill="#FAFFF9" transform="translate(0,0)"/>
<path d="" fill="#FAFFF9" transform="translate(0,0)"/>
<path d="" fill="#FAFFF9" transform="translate(0,0)"/>
<path d="" fill="#FAFFFA" transform="translate(0,0)"/>
<path d="M0 0 C3 1 3 1 3 1 Z " fill="#FBFFFA" transform="translate(32,1)"/>
<path d="M0 0 C2 1 2 1 2 1 Z " fill="#FBFFFA" transform="translate(16,52)"/>
<path d="M0 0 C2 1 2 1 2 1 Z " fill="#FAFFFA" transform="translate(290,51)"/>
<path d="M0 0 C2 1 2 1 2 1 Z " fill="#FBFFFA" transform="translate(13,51)"/>
<path d="M0 0 C2 1 2 1 2 1 Z " fill="#FBFFFA" transform="translate(288,50)"/>
<path d="" fill="#FBFFFA" transform="translate(0,0)"/>
<path d="" fill="#FBFFFA" transform="translate(0,0)"/>
<path d="M0 0 C2 1 2 1 2 1 Z " fill="#FAFFF9" transform="translate(11,50)"/>
<path d="M0 0 C2 1 2 1 2 1 Z " fill="#FCFFFA" transform="translate(265,49)"/>
<path d="M0 0 C2 1 2 1 2 1 Z " fill="#FAFFF9" transform="translate(267,48)"/>
<path d="" fill="#FCFFFA" transform="translate(0,0)"/>
<path d="" fill="#FAFFF9" transform="translate(0,0)"/>
<path d="" fill="#FBFFFA" transform="translate(0,0)"/>
<path d="" fill="#FAFFF9" transform="translate(0,0)"/>
<path d="" fill="#FBFFFB" transform="translate(0,0)"/>
<path d="" fill="#FAFFFA" transform="translate(0,0)"/>
<path d="" fill="#FCFFFB" transform="translate(0,0)"/>
<path d="" fill="#FAFFF9" transform="translate(0,0)"/>
<path d="" fill="#FBFFFA" transform="translate(0,0)"/>
<path d="" fill="#FAFFFA" transform="translate(0,0)"/>
<path d="" fill="#FBFFFA" transform="translate(0,0)"/>
<path d="" fill="#FAFFF9" transform="translate(0,0)"/>
<path d="" fill="#FBFFFA" transform="translate(0,0)"/>
<path d="" fill="#FAFFFA" transform="translate(0,0)"/>
<path d="" fill="#FAFFF9" transform="translate(0,0)"/>
<path d="" fill="#FAFFF9" transform="translate(0,0)"/>
<path d="" fill="#FAFFFA" transform="translate(0,0)"/>
<path d="" fill="#FAFFF9" transform="translate(0,0)"/>
<path d="" fill="#FBFFFA" transform="translate(0,0)"/>
<path d="" fill="#FBFFFA" transform="translate(0,0)"/>
<path d="" fill="#FBFFFA" transform="translate(0,0)"/>
<path d="" fill="#FAFFFA" transform="translate(0,0)"/>
<path d="" fill="#FAFFF9" transform="translate(0,0)"/>
<path d="" fill="#FAFFF9" transform="translate(0,0)"/>
<path d="" fill="#FBFFFA" transform="translate(0,0)"/>
<path d="" fill="#FAFFF9" transform="translate(0,0)"/>
<path d="" fill="#FAFFF9" transform="translate(0,0)"/>
<path d="" fill="#FAFFF9" transform="translate(0,0)"/>
<path d="" fill="#FBFFFA" transform="translate(0,0)"/>
<path d="" fill="#FBFFFA" transform="translate(0,0)"/>
<path d="" fill="#FBFFFA" transform="translate(0,0)"/>
<path d="" fill="#FAFFFA" transform="translate(0,0)"/>
<path d="" fill="#FBFFFA" transform="translate(0,0)"/>
<path d="" fill="#FBFFFA" transform="translate(0,0)"/>
<path d="" fill="#FCFFFB" transform="translate(0,0)"/>
<path d="" fill="#FAFFFA" transform="translate(0,0)"/>
<path d="" fill="#FAFFF9" transform="translate(0,0)"/>
<path d="" fill="#FBFFFA" transform="translate(0,0)"/>
<path d="" fill="#FBFFFA" transform="translate(0,0)"/>
<path d="" fill="#FBFFFA" transform="translate(0,0)"/>
<path d="" fill="#FCFFFA" transform="translate(0,0)"/>
<path d="M0 0 C2 1 2 1 2 1 Z " fill="#FAFFF9" transform="translate(329,3)"/>
<path d="M0 0 C2 1 2 1 2 1 Z " fill="#FBFFFA" transform="translate(11,3)"/>
<path d="M0 0 C2 1 2 1 2 1 Z " fill="#FAFFF9" transform="translate(327,2)"/>
<path d="M0 0 C2 1 2 1 2 1 Z " fill="#FAFFF9" transform="translate(248,2)"/>
<path d="M0 0 C2 1 2 1 2 1 Z " fill="#FAFFF9" transform="translate(128,2)"/>
<path d="M0 0 C2 1 2 1 2 1 Z " fill="#FBFFFA" transform="translate(13,2)"/>
<path d="M0 0 C2 1 2 1 2 1 Z " fill="#FAFFF9" transform="translate(16,1)"/>
<path d="" fill="#FAFFF9" transform="translate(0,0)"/>
<path d="" fill="#FBFFFB" transform="translate(0,0)"/>
<path d="" fill="#FAFFF9" transform="translate(0,0)"/>
<path d="" fill="#FBFFFB" transform="translate(0,0)"/>
<path d="" fill="#FBFFFA" transform="translate(0,0)"/>
<path d="" fill="#FBFFFB" transform="translate(0,0)"/>
<path d="" fill="#FAFFF9" transform="translate(0,0)"/>
<path d="" fill="#FBFFFA" transform="translate(0,0)"/>
<path d="" fill="#FBFFFA" transform="translate(0,0)"/>
<path d="" fill="#FBFFFA" transform="translate(0,0)"/>
<path d="" fill="#FBFFFA" transform="translate(0,0)"/>
<path d="" fill="#FAFFF9" transform="translate(0,0)"/>
<path d="" fill="#FBFFFA" transform="translate(0,0)"/>
<path d="" fill="#FBFFFA" transform="translate(0,0)"/>
<path d="" fill="#FBFFFB" transform="translate(0,0)"/>
<path d="" fill="#FAFFF9" transform="translate(0,0)"/>
<path d="" fill="#FEFFFB" transform="translate(0,0)"/>
<path d="" fill="#FAFFF9" transform="translate(0,0)"/>
<path d="" fill="#FBFFFA" transform="translate(0,0)"/>
<path d="" fill="#FBFFFA" transform="translate(0,0)"/>
<path d="" fill="#FBFFFB" transform="translate(0,0)"/>
<path d="" fill="#FBFFFA" transform="translate(0,0)"/>
<path d="" fill="#FBFFFA" transform="translate(0,0)"/>
<path d="" fill="#FAFFF9" transform="translate(0,0)"/>
<path d="" fill="#FDFFFB" transform="translate(0,0)"/>
<path d="" fill="#FAFFF9" transform="translate(0,0)"/>
<path d="" fill="#FAFFF9" transform="translate(0,0)"/>
<path d="" fill="#FAFFF9" transform="translate(0,0)"/>
<path d="" fill="#FAFFF9" transform="translate(0,0)"/>
<path d="" fill="#FAFFF9" transform="translate(0,0)"/>
<path d="" fill="#FBFFFA" transform="translate(0,0)"/>
<path d="" fill="#FBFFFA" transform="translate(0,0)"/>
<path d="" fill="#FAFFF9" transform="translate(0,0)"/>
<path d="" fill="#FAFFF9" transform="translate(0,0)"/>
<path d="" fill="#FAFFF9" transform="translate(0,0)"/>
<path d="" fill="#FBFFFA" transform="translate(0,0)"/>
<path d="" fill="#FBFFFB" transform="translate(0,0)"/>
<path d="" fill="#FBFFFB" transform="translate(0,0)"/>
<path d="" fill="#FBFFFA" transform="translate(0,0)"/>
<path d="" fill="#FBFFFB" transform="translate(0,0)"/>
<path d="" fill="#FAFFF9" transform="translate(0,0)"/>
<path d="" fill="#FBFFFA" transform="translate(0,0)"/>
<path d="" fill="#FAFFF9" transform="translate(0,0)"/>
<path d="" fill="#FAFFF9" transform="translate(0,0)"/>
<path d="" fill="#FBFFFA" transform="translate(0,0)"/>
<path d="" fill="#FAFFF9" transform="translate(0,0)"/>
<path d="" fill="#FBFFFB" transform="translate(0,0)"/>
<path d="" fill="#FBFFFB" transform="translate(0,0)"/>
<path d="" fill="#FBFFFA" transform="translate(0,0)"/>
<path d="" fill="#FEFFFB" transform="translate(0,0)"/>
<path d="" fill="#FAFFF9" transform="translate(0,0)"/>
<path d="" fill="#FAFFF9" transform="translate(0,0)"/>
<path d="" fill="#FBFFFA" transform="translate(0,0)"/>
<path d="" fill="#FBFFFB" transform="translate(0,0)"/>
<path d="" fill="#FAFFF9" transform="translate(0,0)"/>
<path d="" fill="#FAFFF9" transform="translate(0,0)"/>
<path d="" fill="#FAFFF9" transform="translate(0,0)"/>
<path d="" fill="#FAFFF9" transform="translate(0,0)"/>
<path d="" fill="#FBFFFA" transform="translate(0,0)"/>
<path d="" fill="#FBFFFB" transform="translate(0,0)"/>
<path d="" fill="#FAFFF9" transform="translate(0,0)"/>
<path d="" fill="#FAFFF9" transform="translate(0,0)"/>
<path d="" fill="#FBFFFA" transform="translate(0,0)"/>
<path d="" fill="#FBFFFB" transform="translate(0,0)"/>
<path d="" fill="#FAFFF9" transform="translate(0,0)"/>
<path d="" fill="#FBFFFA" transform="translate(0,0)"/>
<path d="" fill="#FBFFFB" transform="translate(0,0)"/>
<path d="" fill="#FBFFFA" transform="translate(0,0)"/>
<path d="" fill="#FAFFF9" transform="translate(0,0)"/>
<path d="" fill="#FAFFF9" transform="translate(0,0)"/>
<path d="" fill="#FAFFF9" transform="translate(0,0)"/>
<path d="" fill="#FDFFFB" transform="translate(0,0)"/>
<path d="" fill="#FAFFF9" transform="translate(0,0)"/>
<path d="" fill="#FBFFFB" transform="translate(0,0)"/>
<path d="" fill="#FAFFF9" transform="translate(0,0)"/>
<path d="" fill="#FBFFFA" transform="translate(0,0)"/>
<path d="" fill="#FBFFFA" transform="translate(0,0)"/>
<path d="" fill="#FBFFFA" transform="translate(0,0)"/>
<path d="" fill="#FBFFFA" transform="translate(0,0)"/>
<path d="" fill="#FBFFFB" transform="translate(0,0)"/>
<path d="" fill="#FAFFF9" transform="translate(0,0)"/>
<path d="" fill="#FAFFF9" transform="translate(0,0)"/>
<path d="" fill="#FAFFF9" transform="translate(0,0)"/>
<path d="" fill="#FAFFF9" transform="translate(0,0)"/>
<path d="" fill="#FAFFF9" transform="translate(0,0)"/>
<path d="" fill="#FAFFF9" transform="translate(0,0)"/>
<path d="" fill="#FBFFFA" transform="translate(0,0)"/>
<path d="" fill="#FBFFFA" transform="translate(0,0)"/>
<path d="" fill="#FBFFFA" transform="translate(0,0)"/>
<path d="" fill="#FBFFFA" transform="translate(0,0)"/>
<path d="" fill="#FBFFFA" transform="translate(0,0)"/>
<path d="" fill="#FBFFFA" transform="translate(0,0)"/>
<path d="" fill="#FAFFF9" transform="translate(0,0)"/>
<path d="" fill="#FAFFF9" transform="translate(0,0)"/>
<path d="" fill="#FBFFFA" transform="translate(0,0)"/>
<path d="" fill="#FBFFFA" transform="translate(0,0)"/>
<path d="" fill="#FAFFF9" transform="translate(0,0)"/>
<path d="" fill="#FBFFFA" transform="translate(0,0)"/>
<path d="" fill="#FBFFFA" transform="translate(0,0)"/>
<path d="" fill="#FAFFF9" transform="translate(0,0)"/>
<path d="" fill="#FBFFFB" transform="translate(0,0)"/>
<path d="" fill="#FBFFFA" transform="translate(0,0)"/>
<path d="" fill="#FAFFF9" transform="translate(0,0)"/>
<path d="" fill="#FBFFFB" transform="translate(0,0)"/>
<path d="" fill="#FBFFFB" transform="translate(0,0)"/>
<path d="" fill="#FAFFF9" transform="translate(0,0)"/>
<path d="" fill="#FAFFF9" transform="translate(0,0)"/>
<path d="" fill="#FBFFFB" transform="translate(0,0)"/>
<path d="" fill="#FAFFF9" transform="translate(0,0)"/>
<path d="" fill="#FBFFFB" transform="translate(0,0)"/>
<path d="" fill="#FBFFFA" transform="translate(0,0)"/>
<path d="" fill="#FAFFF9" transform="translate(0,0)"/>
<path d="" fill="#FBFFFA" transform="translate(0,0)"/>
<path d="" fill="#FAFFF9" transform="translate(0,0)"/>
<path d="" fill="#FAFFF9" transform="translate(0,0)"/>
<path d="" fill="#FAFFF9" transform="translate(0,0)"/>
<path d="" fill="#FBFFFA" transform="translate(0,0)"/>
<path d="" fill="#FBFFFA" transform="translate(0,0)"/>
<path d="" fill="#FBFFFA" transform="translate(0,0)"/>
<path d="" fill="#FBFFFB" transform="translate(0,0)"/>
<path d="" fill="#FBFFFA" transform="translate(0,0)"/>
<path d="" fill="#FAFFF9" transform="translate(0,0)"/>
<path d="" fill="#FAFFF9" transform="translate(0,0)"/>
<path d="" fill="#FAFFF9" transform="translate(0,0)"/>
<path d="" fill="#FAFFF9" transform="translate(0,0)"/>
<path d="" fill="#FAFFF9" transform="translate(0,0)"/>
<path d="" fill="#FBFFFA" transform="translate(0,0)"/>
<path d="" fill="#FAFFF9" transform="translate(0,0)"/>
<path d="" fill="#FBFFFB" transform="translate(0,0)"/>
<path d="" fill="#FBFFFA" transform="translate(0,0)"/>
<path d="" fill="#FAFFF9" transform="translate(0,0)"/>
<path d="" fill="#FBFFFB" transform="translate(0,0)"/>
<path d="" fill="#FBFFFA" transform="translate(0,0)"/>
<path d="" fill="#FAFFF9" transform="translate(0,0)"/>
<path d="" fill="#FAFFF9" transform="translate(0,0)"/>
<path d="" fill="#FAFFF9" transform="translate(0,0)"/>
<path d="" fill="#FAFFF9" transform="translate(0,0)"/>
<path d="" fill="#FAFFF9" transform="translate(0,0)"/>
<path d="" fill="#FEFFFB" transform="translate(0,0)"/>
<path d="" fill="#FAFFF9" transform="translate(0,0)"/>
<path d="" fill="#FAFFF9" transform="translate(0,0)"/>
<path d="" fill="#FBFFFB" transform="translate(0,0)"/>
<path d="" fill="#FBFFFA" transform="translate(0,0)"/>
<path d="" fill="#FAFFF9" transform="translate(0,0)"/>
<path d="" fill="#FBFFFB" transform="translate(0,0)"/>
<path d="" fill="#FBFFFB" transform="translate(0,0)"/>
<path d="" fill="#FAFFF9" transform="translate(0,0)"/>
<path d="" fill="#FAFFF9" transform="translate(0,0)"/>
<path d="" fill="#FAFFF9" transform="translate(0,0)"/>
<path d="" fill="#FAFFF9" transform="translate(0,0)"/>
<path d="" fill="#FAFFF9" transform="translate(0,0)"/>
<path d="" fill="#FAFFF9" transform="translate(0,0)"/>
<path d="" fill="#FBFFFA" transform="translate(0,0)"/>
<path d="" fill="#FAFFF9" transform="translate(0,0)"/>
<path d="" fill="#FAFFF9" transform="translate(0,0)"/>
<path d="" fill="#FAFFF9" transform="translate(0,0)"/>
<path d="" fill="#FEFFFB" transform="translate(0,0)"/>
<path d="" fill="#FBFFFA" transform="translate(0,0)"/>
<path d="" fill="#FBFFFB" transform="translate(0,0)"/>
<path d="" fill="#FBFFFB" transform="translate(0,0)"/>
<path d="" fill="#FAFFF9" transform="translate(0,0)"/>
<path d="" fill="#FEFFFB" transform="translate(0,0)"/>
<path d="" fill="#FBFFFA" transform="translate(0,0)"/>
<path d="" fill="#FBFFFA" transform="translate(0,0)"/>
<path d="" fill="#FBFFFA" transform="translate(0,0)"/>
<path d="" fill="#FBFFFA" transform="translate(0,0)"/>
<path d="" fill="#FBFFFA" transform="translate(0,0)"/>
<path d="" fill="#FAFFF9" transform="translate(0,0)"/>
<path d="" fill="#FBFFFA" transform="translate(0,0)"/>
<path d="" fill="#FBFFFA" transform="translate(0,0)"/>
<path d="" fill="#FBFFFA" transform="translate(0,0)"/>
</svg>
