<?xml version="1.0" encoding="UTF-8"?>
<svg version="1.1" xmlns="http://www.w3.org/2000/svg" width="1627" height="512">
<path d="M0 0 C5.61 0 11.22 0 17 0 C17 2.64 17 5.28 17 8 C19.64 8 22.28 8 25 8 C25 10.97 25 13.94 25 17 C27.64 17 30.28 17 33 17 C33 35.81 33 54.62 33 74 C27.39 74 21.78 74 16 74 C16 58.16 16 42.32 16 26 C11.05 26 6.1 26 1 26 C1 33.92 1 41.84 1 50 C-1.64 50 -4.28 50 -7 50 C-7 57.92 -7 65.84 -7 74 C-9.64 74 -12.28 74 -15 74 C-15 76.64 -15 79.28 -15 82 C-7.08 82 0.84 82 9 82 C9 84.64 9 87.28 9 90 C16.92 90 24.84 90 33 90 C33 92.64 33 95.28 33 98 C38.61 98 44.22 98 50 98 C50 100.64 50 103.28 50 106 C55.28 106 60.56 106 66 106 C66 108.64 66 111.28 66 114 C71.28 114 76.56 114 82 114 C82 116.64 82 119.28 82 122 C84.64 122 87.28 122 90 122 C90 124.64 90 127.28 90 130 C92.64 130 95.28 130 98 130 C98 135.94 98 141.88 98 148 C95.36 148 92.72 148 90 148 C90 150.64 90 153.28 90 156 C84.72 156 79.44 156 74 156 C74 158.64 74 161.28 74 164 C65.75 164 57.5 164 49 164 C49 161.36 49 158.72 49 156 C40.75 156 32.5 156 24 156 C24 153.36 24 150.72 24 148 C21.69 148 19.38 148 17 148 C17 155.92 17 163.84 17 172 C14.36 172 11.72 172 9 172 C9 179.92 9 187.84 9 196 C6.36 196 3.72 196 1 196 C1 201.61 1 207.22 1 213 C-1.64 213 -4.28 213 -7 213 C-7 218.28 -7 223.56 -7 229 C-9.64 229 -12.28 229 -15 229 C-15 231.64 -15 234.28 -15 237 C-17.97 237 -20.94 237 -24 237 C-24 239.64 -24 242.28 -24 245 C-32.25 245 -40.5 245 -49 245 C-49 239.72 -49 234.44 -49 229 C-51.64 229 -54.28 229 -57 229 C-57 209.86 -57 190.72 -57 171 C-51.39 171 -45.78 171 -40 171 C-40 187.17 -40 203.34 -40 220 C-37.69 220 -35.38 220 -33 220 C-33 217.36 -33 214.72 -33 212 C-30.03 212 -27.06 212 -24 212 C-24 203.75 -24 195.5 -24 187 C-21.36 187 -18.72 187 -16 187 C-16 179.41 -16 171.82 -16 164 C-21.61 164 -27.22 164 -33 164 C-33 161.36 -33 158.72 -33 156 C-40.92 156 -48.84 156 -57 156 C-57 153.36 -57 150.72 -57 148 C-58.0621875 148.01160156 -59.124375 148.02320313 -60.21875 148.03515625 C-74.15671621 148.1405473 -74.15671621 148.1405473 -81 147 C-81 144.36 -81 141.72 -81 139 C-86.61 139 -92.22 139 -98 139 C-98 136.36 -98 133.72 -98 131 C-100.64 131 -103.28 131 -106 131 C-106 128.36 -106 125.72 -106 123 C-108.64 123 -111.28 123 -114 123 C-114 120.36 -114 117.72 -114 115 C-116.64 115 -119.28 115 -122 115 C-122 106.75 -122 98.5 -122 90 C-116.39 90 -110.78 90 -105 90 C-105 87.36 -105 84.72 -105 82 C-94.11 82 -83.22 82 -72 82 C-72 84.64 -72 87.28 -72 90 C-61.77 90 -51.54 90 -41 90 C-41 81.75 -41 73.5 -41 65 C-38.36 65 -35.72 65 -33 65 C-33 59.72 -33 54.44 -33 49 C-30.03 49 -27.06 49 -24 49 C-24 43.72 -24 38.44 -24 33 C-21.36 33 -18.72 33 -16 33 C-16 27.72 -16 22.44 -16 17 C-13.36 17 -10.72 17 -8 17 C-8 14.03 -8 11.06 -8 8 C-5.36 8 -2.72 8 0 8 C0 5.36 0 2.72 0 0 Z M-97 99 C-97 103.95 -97 108.9 -97 114 C-88.75 114 -80.5 114 -72 114 C-72 116.64 -72 119.28 -72 122 C-64.41 122 -56.82 122 -49 122 C-49 119.69 -49 117.38 -49 115 C-51.64 115 -54.28 115 -57 115 C-57 112.36 -57 109.72 -57 107 C-62.28 107 -67.56 107 -73 107 C-73 104.36 -73 101.72 -73 99 C-80.92 99 -88.84 99 -97 99 Z M-56 99 C-56 101.31 -56 103.62 -56 106 C-53.69 106 -51.38 106 -49 106 C-49 103.69 -49 101.38 -49 99 C-51.31 99 -53.62 99 -56 99 Z M-24 107 C-24 109.64 -24 112.28 -24 115 C-29.28 115 -34.56 115 -40 115 C-40 117.64 -40 120.28 -40 123 C-42.64 123 -45.28 123 -48 123 C-48 125.31 -48 127.62 -48 130 C-28.2 130.495 -28.2 130.495 -8 131 C-7.505 134.465 -7.505 134.465 -7 138 C-4.69 138 -2.38 138 0 138 C0 135.36 0 132.72 0 130 C8.25 130 16.5 130 25 130 C25 132.64 25 135.28 25 138 C32.92 138.33 40.84 138.66 49 139 C49.495 142.96 49.495 142.96 50 147 C57.59 147 65.18 147 73 147 C73 144.36 73 141.72 73 139 C70.36 139 67.72 139 65 139 C65 136.36 65 133.72 65 131 C59.72 131 54.44 131 49 131 C49 128.36 49 125.72 49 123 C38.11 123 27.22 123 16 123 C16 120.36 16 117.72 16 115 C5.44 115 -5.12 115 -16 115 C-16 112.36 -16 109.72 -16 107 C-18.64 107 -21.28 107 -24 107 Z " fill="#FFFFFF" transform="translate(154,113)"/>
<path d="M0 0 C30.03 0 60.06 0 91 0 C91 2.64 91 5.28 91 8 C96.28 8 101.56 8 107 8 C107 10.64 107 13.28 107 16 C112.28 16 117.56 16 123 16 C123 18.64 123 21.28 123 24 C125.64 24 128.28 24 131 24 C131 29.61 131 35.22 131 41 C133.64 41 136.28 41 139 41 C139 46.28 139 51.56 139 57 C141.97 57 144.94 57 148 57 C148.02464201 63.96003966 148.04283222 70.92005416 148.05493164 77.88012695 C148.05997341 80.24992312 148.06680665 82.61971615 148.07543945 84.98950195 C148.0875119 88.38754039 148.09322971 91.78553785 148.09765625 95.18359375 C148.10281754 96.25024765 148.10797882 97.31690155 148.11329651 98.4158783 C148.11337204 99.39681961 148.11344757 100.37776093 148.11352539 101.38842773 C148.115746 102.25668686 148.11796661 103.12494598 148.12025452 104.01951599 C148 106 148 106 147 107 C144.36 107 141.72 107 139 107 C139 112.28 139 117.56 139 123 C136.36 123 133.72 123 131 123 C131 128.28 131 133.56 131 139 C128.36 139 125.72 139 123 139 C123 141.64 123 144.28 123 147 C117.72 147 112.44 147 107 147 C107 149.64 107 152.28 107 155 C101.72 155 96.44 155 91 155 C91 157.64 91 160.28 91 163 C60.97 163 30.94 163 0 163 C0 109.21 0 55.42 0 0 Z M34 25 C34 62.29 34 99.58 34 138 C44.23 138 54.46 138 65 138 C65.33 135.69 65.66 133.38 66 131 C73.92 130.67 81.84 130.34 90 130 C90 127.36 90 124.72 90 122 C92.64 122 95.28 122 98 122 C98 119.36 98 116.72 98 114 C100.64 114 103.28 114 106 114 C106 111.36 106 108.72 106 106 C108.64 106 111.28 106 114 106 C114 90.16 114 74.32 114 58 C111.36 58 108.72 58 106 58 C106 52.39 106 46.78 106 41 C100.72 41 95.44 41 90 41 C90 38.36 90 35.72 90 33 C81.75 33 73.5 33 65 33 C65 30.36 65 27.72 65 25 C54.77 25 44.54 25 34 25 Z " fill="#FFFFFF" transform="translate(755,154)"/>
<path d="M0 0 C29.7 0 59.4 0 90 0 C90 2.64 90 5.28 90 8 C92.64 8 95.28 8 98 8 C98 10.64 98 13.28 98 16 C100.97 16 103.94 16 107 16 C107 18.64 107 21.28 107 24 C109.64 24 112.28 24 115 24 C115 40.5 115 57 115 74 C112.36 74 109.72 74 107 74 C107 76.64 107 79.28 107 82 C104.03 82 101.06 82 98 82 C98 84.64 98 87.28 98 90 C92.72 90 87.44 90 82 90 C82 92.64 82 95.28 82 98 C84.64 98 87.28 98 90 98 C90 103.28 90 108.56 90 114 C92.64 114 95.28 114 98 114 C98 119.28 98 124.56 98 130 C100.97 130 103.94 130 107 130 C107 132.64 107 135.28 107 138 C109.64 138 112.28 138 115 138 C115 140.64 115 143.28 115 146 C117.64 146 120.28 146 123 146 C123 151.61 123 157.22 123 163 C109.47 163 95.94 163 82 163 C81.67 157.72 81.34 152.44 81 147 C78.36 147 75.72 147 73 147 C73 141.72 73 136.44 73 131 C70.36 131 67.72 131 65 131 C65 125.72 65 120.44 65 115 C62.36 115 59.72 115 57 115 C57 112.03 57 109.06 57 106 C54.36 106 51.72 106 49 106 C49 103.36 49 100.72 49 98 C43.72 98 38.44 98 33 98 C33 119.45 33 140.9 33 163 C22.11 163 11.22 163 0 163 C0 109.21 0 55.42 0 0 Z M33 25 C33 38.2 33 51.4 33 65 C48.84 65 64.68 65 81 65 C81 54.44 81 43.88 81 33 C78.36 33 75.72 33 73 33 C73 30.36 73 27.72 73 25 C59.8 25 46.6 25 33 25 Z " fill="#FFFFFF" transform="translate(1308,154)"/>
<path d="M0 0 C10.89 0 21.78 0 33 0 C33 21.45 33 42.9 33 65 C56.76 65 80.52 65 105 65 C105 43.55 105 22.1 105 0 C115.89 0 126.78 0 138 0 C138 53.79 138 107.58 138 163 C127.11 163 116.22 163 105 163 C105 138.91 105 114.82 105 90 C81.24 90 57.48 90 33 90 C33 114.09 33 138.18 33 163 C22.11 163 11.22 163 0 163 C-0.63383099 157.92935208 -1.1252113 153.52347218 -1.12698364 148.5111084 C-1.12980347 147.27479172 -1.13262329 146.03847504 -1.13552856 144.76469421 C-1.13358482 143.41799912 -1.13153668 142.07130417 -1.12939453 140.72460938 C-1.13075146 139.28815161 -1.13253303 137.85169419 -1.13470459 136.41523743 C-1.13924424 132.53305767 -1.13750367 128.65090464 -1.1343255 124.76872444 C-1.13178394 120.69522152 -1.13414444 116.62172079 -1.13571167 112.54821777 C-1.13752813 105.7090616 -1.1351408 98.86991625 -1.13037109 92.03076172 C-1.12492948 84.13729978 -1.12669251 76.24386367 -1.1321975 68.35040236 C-1.13674355 61.55866256 -1.13737187 54.76693051 -1.13475883 47.97518969 C-1.13320427 43.92516183 -1.13297974 39.87514609 -1.13629532 35.82511902 C-1.13919573 32.01657598 -1.13715862 28.20806608 -1.13140106 24.3995266 C-1.13008507 23.00640607 -1.13044773 21.61328273 -1.13266373 20.22016335 C-1.13542113 18.30974048 -1.13134098 16.39931149 -1.12698364 14.4888916 C-1.12660662 13.42262794 -1.12622959 12.35636429 -1.12584114 11.25778961 C-0.98027223 7.48928516 -0.46777404 3.74219235 0 0 Z " fill="#FFFFFF" transform="translate(301,154)"/>
<path d="M0 0 C11.22 0 22.44 0 34 0 C34 5.28 34 10.56 34 16 C36.64 16 39.28 16 42 16 C42 21.28 42 26.56 42 32 C44.31 32 46.62 32 49 32 C50 33 50 33 50.11352539 35.31665039 C50.10567017 36.81699829 50.10567017 36.81699829 50.09765625 38.34765625 C50.09282227 39.96704102 50.09282227 39.96704102 50.08789062 41.61914062 C50.07532227 43.32360352 50.07532227 43.32360352 50.0625 45.0625 C50.05798828 46.20267578 50.05347656 47.34285156 50.04882812 48.51757812 C50.03699747 51.34510351 50.0205141 54.1725264 50 57 C52.64 57 55.28 57 58 57 C58 62.28 58 67.56 58 73 C60.64 73 63.28 73 66 73 C66 78.61 66 84.22 66 90 C68.64 90 71.28 90 74 90 C74 97.92 74 105.84 74 114 C76.97 114 79.94 114 83 114 C83 119.28 83 124.56 83 130 C85.64 130 88.28 130 91 130 C91 135.28 91 140.56 91 146 C93.64 146 96.28 146 99 146 C99 151.61 99 157.22 99 163 C87.78 163 76.56 163 65 163 C65 160.36 65 157.72 65 155 C62.36 155 59.72 155 57 155 C57 147.08 57 139.16 57 131 C30.6 131 4.2 131 -23 131 C-23 136.28 -23 141.56 -23 147 C-25.64 147 -28.28 147 -31 147 C-31 152.28 -31 157.56 -31 163 C-42.22 163 -53.44 163 -65 163 C-65 157.39 -65 151.78 -65 146 C-62.36 146 -59.72 146 -57 146 C-57 140.72 -57 135.44 -57 130 C-54.03 130 -51.06 130 -48 130 C-48 124.72 -48 119.44 -48 114 C-45.36 114 -42.72 114 -40 114 C-40 105.75 -40 97.5 -40 89 C-37.36 89 -34.72 89 -32 89 C-32 83.72 -32 78.44 -32 73 C-29.36 73 -26.72 73 -24 73 C-24 67.72 -24 62.44 -24 57 C-21.36 57 -18.72 57 -16 57 C-16 49.08 -16 41.16 -16 33 C-13.36 33 -10.72 33 -8 33 C-8 27.39 -8 21.78 -8 16 C-5.36 16 -2.72 16 0 16 C0 10.72 0 5.44 0 0 Z M9 41 C9 51.89 9 62.78 9 74 C6.36 74 3.72 74 1 74 C1 79.28 1 84.56 1 90 C-1.64 90 -4.28 90 -7 90 C-7 92.31 -7 94.62 -7 97 C8.84 97 24.68 97 41 97 C41 94.69 41 92.38 41 90 C38.36 90 35.72 90 33 90 C33 84.72 33 79.44 33 74 C30.36 74 27.72 74 25 74 C25 68.39 25 62.78 25 57 C22.36 57 19.72 57 17 57 C17 51.72 17 46.44 17 41 C14.36 41 11.72 41 9 41 Z " fill="#FFFFFF" transform="translate(1202,154)"/>
<path d="M0 0 C8.25 0 16.5 0 25 0 C25 2.64 25 5.28 25 8 C27.64 8 30.28 8 33 8 C33 13.28 33 18.56 33 24 C35.64 24 38.28 24 41 24 C41 29.61 41 35.22 41 41 C43.64 41 46.28 41 49 41 C49 48.92 49 56.84 49 65 C51.64 65 54.28 65 57 65 C57 70.28 57 75.56 57 81 C59.97 81 62.94 81 66 81 C66 86.28 66 91.56 66 97 C68.31 97 70.62 97 73 97 C74 98 74 98 74.11352539 100.31665039 C74.10828857 101.31688232 74.10305176 102.31711426 74.09765625 103.34765625 C74.09443359 104.42724609 74.09121094 105.50683594 74.08789062 106.61914062 C74.07951172 107.75544922 74.07113281 108.89175781 74.0625 110.0625 C74.05798828 111.20267578 74.05347656 112.34285156 74.04882812 113.51757812 C74.03699747 116.34510351 74.0205141 119.1725264 74 122 C76.64 122 79.28 122 82 122 C82 127.28 82 132.56 82 138 C84.64 138 87.28 138 90 138 C90 143.28 90 148.56 90 154 C92.64 154 95.28 154 98 154 C98.12036664 159.77759884 97.8320582 165.27959989 97 171 C94.69 171 92.38 171 90 171 C90 168.36 90 165.72 90 163 C79.11 163 68.22 163 57 163 C57 155.08 57 147.16 57 139 C54.03 139 51.06 139 48 139 C48 136.36 48 133.72 48 131 C24.24 131 0.48 131 -24 131 C-24 133.64 -24 136.28 -24 139 C-26.64 139 -29.28 139 -32 139 C-32 146.92 -32 154.84 -32 163 C-42.89 163 -53.78 163 -65 163 C-65 154.75 -65 146.5 -65 138 C-62.36 138 -59.72 138 -57 138 C-57 132.72 -57 127.44 -57 122 C-54.36 122 -51.72 122 -49 122 C-49 116.72 -49 111.44 -49 106 C-46.36 106 -43.72 106 -41 106 C-41.00785522 104.91730835 -41.00785522 104.91730835 -41.01586914 103.81274414 C-41.03657358 100.56267151 -41.04963918 97.31261272 -41.0625 94.0625 C-41.07087891 92.92619141 -41.07925781 91.78988281 -41.08789062 90.61914062 C-41.09272461 88.99975586 -41.09272461 88.99975586 -41.09765625 87.34765625 C-41.10551147 85.84730835 -41.10551147 85.84730835 -41.11352539 84.31665039 C-41 82 -41 82 -40 81 C-37.69 81 -35.38 81 -33 81 C-33 75.72 -33 70.44 -33 65 C-30.36 65 -27.72 65 -25 65 C-25 59.72 -25 54.44 -25 49 C-22.36 49 -19.72 49 -17 49 C-17.01160156 47.85660156 -17.02320313 46.71320313 -17.03515625 45.53515625 C-17.04453288 44.04427246 -17.05363321 42.55338691 -17.0625 41.0625 C-17.07087891 40.30775391 -17.07925781 39.55300781 -17.08789062 38.77539062 C-17.09652441 36.85005687 -17.05224333 34.92464419 -17 33 C-16.67 32.67 -16.34 32.34 -16 32 C-13.36 32 -10.72 32 -8 32 C-8 24.08 -8 16.16 -8 8 C-5.36 8 -2.72 8 0 8 C0 5.36 0 2.72 0 0 Z M9 41 C9 49.25 9 57.5 9 66 C6.36 66 3.72 66 1 66 C1 71.28 1 76.56 1 82 C-1.97 82 -4.94 82 -8 82 C-8 86.95 -8 91.9 -8 97 C5.2 97 18.4 97 32 97 C32 92.05 32 87.1 32 82 C29.36 82 26.72 82 24 82 C24 74.08 24 66.16 24 58 C21.36 58 18.72 58 16 58 C16 52.39 16 46.78 16 41 C13.69 41 11.38 41 9 41 Z " fill="#FFFFFF" transform="translate(650,154)"/>
<path d="M0 0 C37.62 0 75.24 0 114 0 C114 8.25 114 16.5 114 25 C87.27 25 60.54 25 33 25 C33 38.2 33 51.4 33 65 C57.09 65 81.18 65 106 65 C106 75.89 106 86.78 106 98 C81.91 98 57.82 98 33 98 C33 111.2 33 124.4 33 138 C59.73 138 86.46 138 114 138 C114 146.25 114 154.5 114 163 C76.38 163 38.76 163 0 163 C0 109.21 0 55.42 0 0 Z " fill="#FFFFFF" transform="translate(455,154)"/>
<path d="M0 0 C19.14 0 38.28 0 58 0 C58 2.64 58 5.28 58 8 C63.28 8 68.56 8 74 8 C74 16.25 74 24.5 74 33 C68.72 33 63.44 33 58 33 C58 35.64 58 38.28 58 41 C55.03 41 52.06 41 49 41 C49 38.36 49 35.72 49 33 C46.36 33 43.72 33 41 33 C41 30.36 41 27.72 41 25 C33.08 25 25.16 25 17 25 C17 27.64 17 30.28 17 33 C11.72 33 6.44 33 1 33 C1 40.92 1 48.84 1 57 C6.28 57 11.56 57 17 57 C17 59.64 17 62.28 17 65 C25.25 65 33.5 65 42 65 C42 67.64 42 70.28 42 73 C47.28 73 52.56 73 58 73 C58 75.64 58 78.28 58 81 C60.64 81 63.28 81 66 81 C66 83.64 66 86.28 66 89 C68.64 89 71.28 89 74 89 C74 91.64 74 94.28 74 97 C76.64 97 79.28 97 82 97 C82 108.22 82 119.44 82 131 C79.36 131 76.72 131 74 131 C74 136.28 74 141.56 74 147 C71.36 147 68.72 147 66 147 C66 149.64 66 152.28 66 155 C60.72 155 55.44 155 50 155 C50 157.64 50 160.28 50 163 C30.86 163 11.72 163 -8 163 C-8 160.36 -8 157.72 -8 155 C-13.28 155 -18.56 155 -24 155 C-24 152.36 -24 149.72 -24 147 C-26.64 147 -29.28 147 -32 147 C-32 141.39 -32 135.78 -32 130 C-29.36 130 -26.72 130 -24 130 C-24 127.36 -24 124.72 -24 122 C-18.39 122 -12.78 122 -7 122 C-7 124.64 -7 127.28 -7 130 C-1.72 130 3.56 130 9 130 C9 132.64 9 135.28 9 138 C16.92 138 24.84 138 33 138 C33 135.36 33 132.72 33 130 C38.28 130 43.56 130 49 130 C49 122.41 49 114.82 49 107 C43.72 107 38.44 107 33 107 C33 104.03 33 101.06 33 98 C24.75 98 16.5 98 8 98 C8 95.36 8 92.72 8 90 C2.72 90 -2.56 90 -8 90 C-8 87.36 -8 84.72 -8 82 C-10.64 82 -13.28 82 -16 82 C-16 79.36 -16 76.72 -16 74 C-18.64 74 -21.28 74 -24 74 C-24 68.72 -24 63.44 -24 58 C-26.64 58 -29.28 58 -32 58 C-32 49.42 -32 40.84 -32 32 C-29.36 32 -26.72 32 -24 32 C-24 26.72 -24 21.44 -24 16 C-21.36 16 -18.72 16 -16 16 C-16 13.36 -16 10.72 -16 8 C-10.72 8 -5.44 8 0 8 C0 5.36 0 2.72 0 0 Z " fill="#FFFFFF" transform="translate(942,154)"/>
<path d="M0 0 C42.9 0 85.8 0 130 0 C130 8.25 130 16.5 130 25 C114.16 25 98.32 25 82 25 C82 70.54 82 116.08 82 163 C70.78 163 59.56 163 48 163 C48 117.46 48 71.92 48 25 C32.16 25 16.32 25 0 25 C0 16.75 0 8.5 0 0 Z " fill="#FFFFFF" transform="translate(1024,154)"/>
<path d="M0 0 C43.23 0 86.46 0 131 0 C131 8.25 131 16.5 131 25 C114.83 25 98.66 25 82 25 C82 70.54 82 116.08 82 163 C71.11 163 60.22 163 49 163 C49 117.46 49 71.92 49 25 C32.83 25 16.66 25 0 25 C0 16.75 0 8.5 0 0 Z " fill="#FFFFFF" transform="translate(1430,154)"/>
<path d="M0 0 C13.86 0 27.72 0 42 0 C42.020625 6.744375 42.04125 13.48875 42.0625 20.4375 C42.071604 22.56888428 42.08070801 24.70026855 42.09008789 26.89624023 C42.093007 28.57535743 42.09555557 30.25447533 42.09765625 31.93359375 C42.10277222 32.81374146 42.10788818 33.69388916 42.11315918 34.60070801 C42.11346896 36.73413879 42.06244067 38.86748314 42 41 C41 42 41 42 39.15234375 42.09765625 C37.1015625 42.06510417 35.05078125 42.03255208 33 42 C33 44.64 33 47.28 33 50 C24.75 50 16.5 50 8 50 C8 47.36 8 44.72 8 42 C2.72 41.67 -2.56 41.34 -8 41 C-8 30.11 -8 19.22 -8 8 C-5.36 8 -2.72 8 0 8 C0 5.36 0 2.72 0 0 Z " fill="#FFFFFF" transform="translate(1568,105)"/>
</svg>
