<?xml version="1.0" encoding="UTF-8"?>
<svg version="1.1" xmlns="http://www.w3.org/2000/svg" width="1380" height="512">
<path d="M0 0 C0 58.41 0 116.82 0 177 C10.95753672 175.05464664 10.95753672 175.05464664 19 169 C19.68897369 168.36748322 20.37794739 167.73496643 21.08779907 167.08328247 C23.35085692 164.944834 25.5646842 162.76478477 27.76953125 160.56640625 C28.57235031 159.77024399 29.37516937 158.97408173 30.20231628 158.15379333 C31.88643137 156.4797454 33.56789863 154.80302986 35.24682617 153.1237793 C37.81201495 150.56298422 40.39280453 148.01863769 42.97460938 145.47460938 C44.6155614 143.83952265 46.25556845 142.20348691 47.89453125 140.56640625 C48.66328079 139.81202774 49.43203033 139.05764923 50.22407532 138.28041077 C55.3952657 133.06469988 58.58505076 128.94201775 59.375 121.4375 C58.96263374 117.65747599 57.86615898 115.28443981 56 112 C55.67 111.01 55.34 110.02 55 109 C47.81085858 105.18076862 38.9543235 104.67219635 31 104 C31 100.37 31 96.74 31 93 C60.04 93 89.08 93 119 93 C119 96.96 119 100.92 119 105 C117.329375 105.37125 117.329375 105.37125 115.625 105.75 C100.91655879 109.51742529 89.95913201 117.74911122 79 128 C77.67129951 129.15120233 76.33819973 130.29735383 75 131.4375 C70.95555548 134.95192659 67.22771717 138.75140974 63.47265625 142.5703125 C60.61880774 145.37456807 57.61768241 147.92990423 54.49609375 150.4296875 C52.63551746 152.38256392 52.09231935 153.28872635 52 156 C53.28787149 158.85981397 53.28787149 158.85981397 55.375 162 C56.21025268 163.33945904 57.04482767 164.67934079 57.87890625 166.01953125 C58.36375488 166.78990723 58.84860352 167.5602832 59.34814453 168.35400391 C62.34789479 173.15910194 65.26942596 178.01210625 68.20358276 182.85742188 C69.31932105 184.69875698 70.43682255 186.53900992 71.55493164 188.37890625 C75.82632137 195.40797926 80.0837264 202.4451818 84.3125 209.5 C84.78792236 210.29293457 85.26334473 211.08586914 85.75317383 211.90283203 C88.16784325 215.9332207 90.57651932 219.96711499 92.98046875 224.00390625 C106.85091673 251.4290096 106.85091673 251.4290096 128 272 C132.91350468 272.86434076 136.90954199 272.54522901 141.375 270.3125 C148.11360738 264.37610778 149.95902802 258.77063747 151 250 C151.13475451 247.06272575 151.13943029 244.13063345 151.13371277 241.19062805 C151.1371111 239.89578712 151.1371111 239.89578712 151.14057809 238.5747878 C151.14688618 235.69478291 151.14609078 232.81482547 151.14526367 229.93481445 C151.14825719 227.86460815 151.15166017 225.7944024 151.15544128 223.72419739 C151.16426681 218.10827981 151.16661882 212.49237748 151.16725707 206.87645364 C151.16796851 203.36447953 151.17010463 199.85250927 151.17275429 196.34053612 C151.18200361 184.07866546 151.18608978 171.81680567 151.18530273 159.55493164 C151.18470237 148.14143249 151.19524721 136.72798066 151.2110464 125.31449348 C151.22414226 115.50277876 151.22948576 105.69107947 151.22884732 95.87935609 C151.2285929 90.02500029 151.23141345 84.17068655 151.24202538 78.31633949 C151.25174055 72.80631484 151.25176213 67.29637215 151.24450874 61.78634453 C151.24346708 59.77084355 151.2458008 57.75533738 151.2518692 55.73984528 C152.15440947 35.58084063 152.15440947 35.58084063 144 18 C140.0799436 14.85845947 135.98874915 13.48670723 131 13 C131 9.7 131 6.4 131 3 C132.96114746 3.02356567 132.96114746 3.02356567 134.96191406 3.04760742 C139.96445168 3.10324582 144.96696439 3.13681944 149.96972656 3.16479492 C152.10649254 3.17958498 154.24322998 3.19981853 156.37988281 3.22631836 C173.60228733 3.4340626 189.70111155 1.85345233 207 0 C207 58.41 207 116.82 207 177 C217.78691872 173.40436043 223.21952085 169.10012165 231.046875 161.32421875 C231.89928772 160.4808345 232.75170044 159.63745026 233.62994385 158.76850891 C235.42446358 156.98845647 237.21621937 155.20561382 239.00537109 153.42016602 C241.74247822 150.694989 244.4976898 147.98903395 247.25390625 145.28320312 C248.99854288 143.54802754 250.74207072 141.81173625 252.484375 140.07421875 C253.3083075 139.26981857 254.13223999 138.4654184 254.98114014 137.63664246 C260.0807094 132.4963611 262.83651879 128.93557548 263.08203125 121.5234375 C262.52350485 117.07141549 262.06582629 113.46141678 259 110 C251.75984304 105.03126483 243.52295146 104.78609746 235 104 C235 100.37 235 96.74 235 93 C264.04 93 293.08 93 323 93 C323 96.96 323 100.92 323 105 C321.88625 105.2475 320.7725 105.495 319.625 105.75 C304.39533262 109.67077251 293.3063364 118.43442357 282 129 C280.65043697 130.17198895 279.29649877 131.33896562 277.9375 132.5 C274.19170396 135.75590319 270.72773492 139.25095024 267.25 142.7890625 C264.47185155 145.5189792 261.53978115 148.02089406 258.53125 150.4921875 C256.73772159 152.03000526 256.73772159 152.03000526 256 155 C257.32177601 157.79210024 258.70448893 160.39724467 260.25 163.0625 C260.70818115 163.8683252 261.1663623 164.67415039 261.63842773 165.50439453 C266.04276334 173.19569306 270.67020254 180.74648469 275.32910156 188.28515625 C278.34945575 193.19256983 281.33755674 198.11962942 284.32727051 203.04574585 C285.43745636 204.8749281 286.5483101 206.70370363 287.65917969 208.5324707 C291.41293194 214.71522855 295.14896519 220.9080515 298.85449219 227.11987305 C312.44100843 254.29982339 312.44100843 254.29982339 334.3125 272.6875 C334.869375 272.790625 335.42625 272.89375 336 273 C336.09765625 279.15234375 336.09765625 279.15234375 336 281 C334.20011601 282.79988399 331.75000124 282.11993004 329.35444641 282.12442017 C328.13956795 282.11902725 328.13956795 282.11902725 326.90014648 282.11352539 C326.05143982 282.11367142 325.20273315 282.11381744 324.32830811 282.1139679 C321.50921109 282.11326848 318.69017929 282.10547478 315.87109375 282.09765625 C313.92196183 282.09579217 311.97282945 282.09436822 310.0236969 282.09336853 C304.88293168 282.08954255 299.74219453 282.07971159 294.60144043 282.06866455 C289.35994852 282.05845215 284.1184521 282.05387128 278.87695312 282.04882812 C268.58462306 282.03808939 258.29231386 282.02101201 248 282 C248 279.03 248 276.06 248 273 C250.97 272.34 253.94 271.68 257 271 C257.42040743 265.86947224 256.11729638 262.54507423 253.625 258.1875 C253.26269287 257.53064209 252.90038574 256.87378418 252.52709961 256.19702148 C249.58627567 250.9100416 246.47186185 245.7262459 243.34619141 240.54711914 C240.35885167 235.51759613 237.61403308 230.38840116 234.93359375 225.19140625 C234.57084854 224.49227615 234.20810333 223.79314606 233.83436584 223.0728302 C230.84045758 217.30181349 230.84045758 217.30181349 229.44876099 214.53518677 C221.35681314 198.21691743 221.35681314 198.21691743 207 188 C207.08476999 196.17201714 207.17979149 204.34382618 207.28752708 212.51556969 C207.33725107 216.31096187 207.38358094 220.10632939 207.421875 223.90185547 C207.45903259 227.57189974 207.50547023 231.24172477 207.55806351 234.91157913 C207.57644707 236.30440001 207.59161267 237.69726758 207.60334396 239.09016037 C207.71794666 254.87693506 207.71794666 254.87693506 214 269 C217.63195496 271.42130331 219.38349348 271.21022785 223.6875 271.125 C224.86699219 271.10695313 226.04648438 271.08890625 227.26171875 271.0703125 C228.16535156 271.04710937 229.06898438 271.02390625 230 271 C230 274.96 230 278.92 230 283 C219.43750659 283.03139718 208.87503358 283.05157274 198.3125 283.0625 C197.49125767 283.06335602 196.67001534 283.06421204 195.82388687 283.06509399 C161.7764884 283.09621968 127.73311963 282.82910074 93.6875 282.5 C92.45001133 282.48804218 91.21252266 282.47608437 89.93753433 282.46376419 C74.62495995 282.3152426 59.31245242 282.16058921 44 282 C44 279.03 44 276.06 44 273 C46.97 272.34 49.94 271.68 53 271 C53.73101566 264.90820285 51.26939418 261.14078626 48.3125 256.0625 C47.82064209 255.19351074 47.32878418 254.32452148 46.82202148 253.42919922 C45.76770447 251.56930131 44.70770949 249.71261264 43.64257812 247.85888672 C41.47186355 244.0807851 39.32804655 240.28774303 37.18457031 236.49414062 C36.10025434 234.57618738 35.01365201 232.659525 33.92480469 230.74414062 C31.13844753 225.83366212 28.39395946 220.90561133 25.71875 215.93359375 C25.18822021 214.94858887 24.65769043 213.96358398 24.11108398 212.94873047 C23.11251996 211.08761997 22.11942036 209.22356219 21.13305664 207.35595703 C15.47585766 196.34468503 15.47585766 196.34468503 6 189 C4.00429298 188.64185951 2.0044221 188.3056193 0 188 C0.08476999 196.17201714 0.17979149 204.34382618 0.28752708 212.51556969 C0.33725107 216.31096187 0.38358094 220.10632939 0.421875 223.90185547 C0.45903259 227.57189974 0.50547023 231.24172477 0.55806351 234.91157913 C0.57644707 236.30440001 0.59161267 237.69726758 0.60334396 239.09016037 C0.71794666 254.87693506 0.71794666 254.87693506 7 269 C10.52155964 271.34770643 12.50771843 271.37669614 16.6875 271.625 C17.86699219 271.69976562 19.04648437 271.77453125 20.26171875 271.8515625 C21.16535156 271.90054687 22.06898438 271.94953125 23 272 C23 275.63 23 279.26 23 283 C-9.67 283 -42.34 283 -76 283 C-76 279.37 -76 275.74 -76 272 C-75.20335937 271.98582031 -74.40671875 271.97164063 -73.5859375 271.95703125 C-66.60052972 271.81026447 -66.60052972 271.81026447 -60.4375 268.9375 C-54.52894421 261.81693277 -53.84890029 253.43428606 -53.86628723 244.45132446 C-53.86402167 243.59192273 -53.86175612 242.73252099 -53.85942191 241.84707677 C-53.85309296 238.96786173 -53.85391059 236.08869389 -53.85473633 233.20947266 C-53.85174399 231.14442891 -53.84834128 229.07938572 -53.84455872 227.01434326 C-53.83571812 221.40223793 -53.83338046 215.79014784 -53.83274293 210.17803621 C-53.83203199 206.66772459 -53.82989675 203.15741683 -53.82724571 199.64710617 C-53.81798924 187.3882701 -53.81391085 175.12944491 -53.81469727 162.87060547 C-53.81529683 151.46629627 -53.8047696 140.06203457 -53.7889536 128.65773737 C-53.77584322 118.85281008 -53.7705149 109.04789823 -53.77115268 99.24296224 C-53.77140681 93.39351126 -53.76860294 87.5441024 -53.75797462 81.69466019 C-53.74823574 76.18383196 -53.7482539 70.67308559 -53.75549126 65.16225433 C-53.75653022 63.14962773 -53.75421556 61.13699588 -53.7481308 59.1243782 C-52.80293766 36.50664671 -52.80293766 36.50664671 -62.625 17.25 C-66.57516361 14.08376061 -71.10007473 13.72836727 -76 13 C-76 9.7 -76 6.4 -76 3 C-74.67685791 3.01571045 -73.35371582 3.0314209 -71.99047852 3.04760742 C-38.31176271 3.70481187 -38.31176271 3.70481187 -4.8737793 0.27539062 C-3 0 -3 0 0 0 Z " fill="#FBFFFA" transform="translate(938,29)"/>
<path d="M0 0 C3.49393759 3.13140873 6.19022335 6.31036909 8.59765625 10.328125 C9.16033203 11.24658203 9.16033203 11.24658203 9.734375 12.18359375 C14.94774028 21.58315568 16.04406767 31.9691808 16.01416016 42.53149414 C16.02274551 43.68600571 16.03133087 44.84051727 16.04017639 46.03001404 C16.06506249 49.80783352 16.0696008 53.58538756 16.07421875 57.36328125 C16.08854824 60.01022765 16.10412149 62.65713644 16.12142944 65.30406189 C16.1597712 71.54145895 16.18410034 77.77881985 16.20255411 84.01630443 C16.2360513 95.17669654 16.29411999 106.33697766 16.35654581 117.49724096 C16.38126156 122.0294089 16.39637071 126.56154914 16.40884399 131.09376526 C16.41906324 133.48056093 16.42942175 135.86735602 16.43994141 138.25415039 C16.44098373 139.31783844 16.44202606 140.38152649 16.44309998 141.47744751 C15.93673552 153.44440885 15.93673552 153.44440885 19.59765625 164.328125 C21.77414721 165.45066835 21.77414721 165.45066835 24.59765625 165.328125 C27.40523003 164.23412011 29.97546891 162.8034312 32.59765625 161.328125 C33.9277354 160.65498929 35.2601787 159.98643801 36.59765625 159.328125 C41.47265625 163.953125 41.47265625 163.953125 42.59765625 167.328125 C25.13070164 179.19858488 6.27791264 183.72338362 -14.8046875 180.8671875 C-22.69381216 178.98619004 -28.74940091 175.22792026 -33.21484375 168.390625 C-35.25175205 164.81915403 -36.89012726 161.1484614 -38.40234375 157.328125 C-38.82644531 157.83601562 -39.25054688 158.34390625 -39.6875 158.8671875 C-51.01365822 172.1598655 -65.09736217 179.90783845 -82.68066406 181.53955078 C-99.14652613 182.50507737 -113.14522436 179.21564495 -126.21484375 168.703125 C-134.20295238 161.17311579 -137.74285488 151.11848545 -138.40234375 140.328125 C-138.5094228 128.44235028 -135.28985251 118.26853306 -127.40234375 109.328125 C-126.86222656 108.68359375 -126.32210937 108.0390625 -125.765625 107.375 C-112.61217308 92.8805237 -91.69844624 86.46899177 -73.875 79.90625 C-72.81144287 79.514375 -71.74788574 79.1225 -70.65209961 78.71875 C-68.63751507 77.98336919 -66.61901702 77.25858039 -64.59594727 76.546875 C-58.79224077 74.44981785 -53.69473773 71.91517468 -48.49169922 68.58886719 C-46.40234375 67.328125 -46.40234375 67.328125 -43.40234375 66.328125 C-38.49040029 58.29566537 -39.11657837 48.53045861 -39.1965332 39.47167969 C-39.21480586 37.33256057 -39.21704208 35.19387671 -39.21679688 33.0546875 C-39.15013445 16.22486427 -39.15013445 16.22486427 -46.52734375 1.578125 C-54.93774053 -5.00392466 -63.96854299 -5.78323123 -74.40234375 -4.671875 C-79.27622192 -3.4788181 -83.91092513 -1.91758431 -88.40234375 0.328125 C-88.40234375 1.318125 -88.40234375 2.308125 -88.40234375 3.328125 C-86.59874351 4.74323275 -86.59874351 4.74323275 -84.27734375 6.015625 C-77.98192618 10.00107045 -73.69374109 15.18557112 -71.40234375 22.328125 C-70.40605327 31.5044847 -70.69778563 39.71744334 -76.40234375 47.328125 C-81.89739078 53.50273008 -87.46919503 56.80294529 -95.66796875 57.67578125 C-104.89561362 58.06525977 -111.2414395 56.44316419 -118.46484375 50.68359375 C-123.7566444 45.79970274 -126.94397951 39.87902712 -127.67578125 32.61328125 C-128.00966855 22.0187803 -125.5616948 13.7657309 -118.77734375 5.515625 C-92.05088887 -22.11003771 -29.45050862 -23.43624138 0 0 Z M-39.40234375 72.328125 C-40.40545302 73.45035349 -41.40455752 74.57616109 -42.40234375 75.703125 C-46.43176398 79.83437173 -50.78476693 82.43062022 -55.77734375 85.203125 C-68.86507255 92.57302399 -78.14522265 102.40512364 -82.79370117 116.87719727 C-83.81882422 121.00523989 -83.89071743 125.02967893 -83.83984375 129.265625 C-83.83299561 130.14154297 -83.82614746 131.01746094 -83.8190918 131.91992188 C-83.6247755 139.73915135 -82.59883147 146.13163728 -76.90234375 151.828125 C-76.07734375 152.323125 -75.25234375 152.818125 -74.40234375 153.328125 C-73.850625 153.68132812 -73.29890625 154.03453125 -72.73046875 154.3984375 C-66.78847799 156.77124589 -57.99607891 156.1493927 -51.85546875 154.74609375 C-46.19842678 152.26830937 -41.49267058 147.58953981 -38.40234375 142.328125 C-37.32121566 136.91528771 -37.46547743 131.62052601 -37.62109375 126.13671875 C-37.63604032 124.58019436 -37.64741592 123.02363197 -37.65539551 121.46705627 C-37.68574193 117.39722252 -37.7641439 113.32972318 -37.85302734 109.26080322 C-37.93530347 105.09801811 -37.97149527 100.93485059 -38.01171875 96.77148438 C-38.09716384 88.62263416 -38.23344797 80.47567106 -38.40234375 72.328125 C-38.73234375 72.328125 -39.06234375 72.328125 -39.40234375 72.328125 Z " fill="#FBFFFA" transform="translate(809.40234375,132.671875)"/>
<path d="M0 0 C9.91981016 8.75668334 15.5911858 19.66248975 16.53868103 32.95845985 C16.64219354 36.32056466 16.68720871 39.67861565 16.7109375 43.04223633 C16.73639618 44.99555229 16.76185548 46.94886824 16.78733826 48.90218389 C16.81268939 50.98429115 16.83339716 53.06639794 16.85275269 55.14856911 C16.8934606 59.49817761 16.94871896 63.84752914 17.00610352 68.19694519 C17.13599556 78.20667874 17.24738794 88.21660125 17.358078 98.2265625 C17.45985748 107.41947089 17.56558246 116.61228453 17.68712902 125.80495566 C17.74374118 130.1282476 17.79095908 134.451509 17.83097839 138.77498496 C17.85131639 140.81408234 17.87608668 142.85306759 17.90286255 144.89208984 C17.93547598 147.37712637 17.96110155 149.86226816 17.97848511 152.34745789 C17.99517242 153.44220428 18.01185974 154.53695068 18.02905273 155.66487122 C18.04451393 157.09086498 18.04451393 157.09086498 18.06028748 158.54566669 C18.34693926 161.19645425 18.8762863 162.83405293 20.33203125 165.05859375 C23.39181384 166.25657643 24.8290204 166.25352956 27.90234375 165.0625 C28.74539063 164.58683594 29.5884375 164.11117187 30.45703125 163.62109375 C35.0513773 161.05859375 35.0513773 161.05859375 38.33203125 161.05859375 C41.01953125 163.55859375 41.01953125 163.55859375 43.33203125 166.05859375 C41.99730763 170.06276461 39.52583094 171.04686793 36.01953125 172.99609375 C35.39304687 173.34873291 34.7665625 173.70137207 34.12109375 174.06469727 C19.0028707 182.32436281 1.39113677 184.3693556 -15.53125 181.375 C-22.67743668 179.18665059 -28.24055763 176.064139 -32.1640625 169.58984375 C-34.12256448 165.81709206 -35.76561462 162.22478195 -36.66796875 158.05859375 C-37.42078125 158.90421875 -38.17359375 159.74984375 -38.94921875 160.62109375 C-51.12004228 173.80744955 -65.29448992 181.36916767 -83.46484375 182.3671875 C-98.83861526 182.90012938 -112.14829966 180.151814 -124.14453125 169.953125 C-128.86709012 165.48438444 -132.38666783 161.16964337 -134.66796875 155.05859375 C-135.19777344 153.75341797 -135.19777344 153.75341797 -135.73828125 152.421875 C-138.62387835 141.98280313 -138.00406067 129.19210617 -133.14453125 119.52734375 C-122.52660889 101.774627 -105.3405645 93.21831743 -86.66796875 86.05859375 C-85.54261719 85.61773437 -84.41726562 85.176875 -83.2578125 84.72265625 C-78.75578731 82.97093889 -74.24226131 81.26036238 -69.6953125 79.62890625 C-51.18498687 73.26840317 -51.18498687 73.26840317 -38.66796875 59.05859375 C-38.24480325 56.08131039 -38.27099759 53.13967075 -38.3046875 50.13671875 C-38.304189 49.27729675 -38.30369049 48.41787476 -38.30317688 47.53240967 C-38.30551238 45.7168954 -38.31520995 43.90137759 -38.33178711 42.0859375 C-38.35527147 39.33173035 -38.35235717 36.57849995 -38.34570312 33.82421875 C-38.35128447 32.05337973 -38.35839721 30.28254475 -38.3671875 28.51171875 C-38.36627609 27.69890442 -38.36536469 26.88609009 -38.36442566 26.04864502 C-38.46997521 17.36715229 -39.65790375 8.70587046 -45.66796875 2.05859375 C-53.98092974 -4.0214848 -62.59072112 -4.77842354 -72.66796875 -3.94140625 C-77.80468226 -2.7379164 -82.93400666 -1.30838729 -87.66796875 1.05859375 C-87.66796875 2.04859375 -87.66796875 3.03859375 -87.66796875 4.05859375 C-85.83463236 5.54498284 -85.83463236 5.54498284 -83.48046875 6.87109375 C-77.27053278 10.8193262 -73.55248119 15.18571915 -70.66796875 22.05859375 C-70.20748981 24.84044895 -70.14293149 27.55502783 -70.16796875 30.37109375 C-70.17441406 31.12438965 -70.18085938 31.87768555 -70.1875 32.65380859 C-70.46588565 41.13175068 -73.39462101 46.12382983 -79.48046875 51.93359375 C-87.30214406 58.19965706 -94.77254508 58.92879432 -104.66796875 58.05859375 C-112.36955962 56.7226035 -118.57200155 51.30279054 -123.08984375 45.109375 C-127.23138859 37.71161555 -127.68336797 28.20358647 -125.66796875 20.05859375 C-120.71245251 7.12250719 -111.90942105 -0.49309526 -99.52734375 -6.453125 C-70.46749913 -18.37052433 -25.77623094 -20.44321764 0 0 Z M-38.66796875 73.05859375 C-39.34859375 73.75984375 -40.02921875 74.46109375 -40.73046875 75.18359375 C-45.90166732 80.41338947 -51.8599681 84.20282022 -58.16796875 87.93359375 C-69.53914517 94.91106302 -78.08940904 105.00858057 -82.16796875 117.93359375 C-83.95979938 128.09458453 -84.01377802 139.98315011 -78.66796875 149.05859375 C-75.70407607 152.4535981 -72.94994394 154.63126869 -68.66796875 156.05859375 C-58.92295337 156.65335995 -51.38740778 156.80057238 -43.41796875 150.68359375 C-38.57662563 146.06231168 -37.29042386 142.6029854 -36.98828125 135.93359375 C-36.95525909 135.23983643 -36.92223694 134.5460791 -36.88821411 133.83129883 C-36.55485529 126.05688331 -36.51727929 118.2754893 -36.53759766 110.49511719 C-36.54296458 108.06048359 -36.53760801 105.62603438 -36.53125 103.19140625 C-36.52743724 93.10740803 -36.90679203 83.11514269 -37.66796875 73.05859375 C-37.99796875 73.05859375 -38.32796875 73.05859375 -38.66796875 73.05859375 Z " fill="#FBFFFA" transform="translate(277.66796875,131.94140625)"/>
<path d="M0 0 C2 2 2 2 2.24050903 4.40444946 C2.23606781 5.41260712 2.23162659 6.42076477 2.22705078 7.45947266 C2.22689972 8.60050446 2.22674866 9.74153625 2.22659302 10.91714478 C2.21627045 12.15362762 2.20594788 13.39011047 2.1953125 14.6640625 C2.1924826 15.92640717 2.18965271 17.18875183 2.18673706 18.48934937 C2.17742131 21.84646944 2.15944835 25.20331912 2.1373291 28.56036377 C2.11687551 31.98553079 2.10762688 35.41072656 2.09765625 38.8359375 C2.07726333 45.55744439 2.03811828 52.27847644 2 59 C15.86 59 29.72 59 44 59 C44 62.63 44 66.26 44 70 C30.14 70 16.28 70 2 70 C2.08541865 89.73205504 2.17899497 109.464016 2.28752708 129.19595623 C2.33765739 138.35775265 2.38410028 147.5195401 2.421875 156.68139648 C2.45480724 164.66649583 2.49464531 172.65152569 2.54279006 180.63654834 C2.56804277 184.86488566 2.5898277 189.09317696 2.60334396 193.32156944 C2.61617544 197.30160868 2.63824158 201.28148997 2.66738319 205.26144218 C2.67645047 206.72191409 2.68214723 208.18241142 2.68421364 209.64291 C2.687542 211.6380492 2.704206 213.63315282 2.7215271 215.6282196 C2.72705786 216.74451091 2.73258862 217.86080221 2.73828697 219.01092052 C3.08685499 222.99198906 3.93016757 225.88892686 6.72265625 228.7890625 C9.74563742 230.39647959 12.02623993 230.39866192 15.4375 230.375 C16.54996094 230.38273438 17.66242188 230.39046875 18.80859375 230.3984375 C24.7357281 229.65845255 28.08580707 226.31245739 32 222 C33.48755758 219.93091903 34.92617514 217.82572987 36.3125 215.6875 C37.00988281 214.61886719 37.70726563 213.55023438 38.42578125 212.44921875 C38.94527344 211.64097656 39.46476562 210.83273437 40 210 C43.34373475 210.55728913 46.03312999 211.35173889 49 213 C45.3557116 226.23452104 37.52335591 238.16795375 25.45703125 245.1796875 C10.23730602 253.29403781 -8.85449054 255.09255561 -25.5625 250.375 C-36.34801351 246.23670805 -44.91265447 237.90491805 -49.875 227.5 C-53.63949403 218.97065688 -54.37169459 210.30644482 -54.62109375 201.0859375 C-54.65883408 199.82832611 -54.6965744 198.57071472 -54.73545837 197.2749939 C-55.35055363 174.3801511 -55.10844158 151.45801381 -55.06866455 128.55755615 C-55.05829016 121.93941543 -55.05383719 115.32127157 -55.04882812 108.703125 C-55.03822007 95.80207135 -55.02068597 82.90104143 -55 70 C-64.57 70 -74.14 70 -84 70 C-84 66.37 -84 62.74 -84 59 C-74.43 59 -64.86 59 -55 59 C-55 43.16 -55 27.32 -55 11 C-49.39 11 -43.78 11 -38 11 C-23.9225508 9.90872487 -12.53724976 6.46150565 0 0 Z " fill="#FBFFF9" transform="translate(84,64)"/>
<path d="M0 0 C7.75453914 5.54817276 12.34193047 12.21543521 14.53515625 21.4921875 C15.59453253 31.60644311 14.31170563 39.53615741 9.53515625 48.4921875 C8.95765625 49.6059375 8.38015625 50.7196875 7.78515625 51.8671875 C2.96828972 57.48686512 -4.00630686 61.98965254 -11.4453125 62.828125 C-20.31549696 62.93616622 -27.42762789 61.91504443 -34.33984375 56.0546875 C-35.04109375 55.2090625 -35.74234375 54.3634375 -36.46484375 53.4921875 C-37.16609375 52.7496875 -37.86734375 52.0071875 -38.58984375 51.2421875 C-43.05591153 44.69195476 -44.54460098 37.3264261 -43.46484375 29.4921875 C-41.72940536 23.17556496 -39.09762312 18.12496687 -34.46484375 13.4921875 C-33.80484375 13.4921875 -33.14484375 13.4921875 -32.46484375 13.4921875 C-31.47484375 11.0171875 -31.47484375 11.0171875 -30.46484375 8.4921875 C-40.90460312 8.97550969 -48.34353735 12.83264282 -55.46484375 20.4921875 C-64.04045057 31.30558953 -68.09509915 42.18968005 -67.98242188 56.05297852 C-67.98943115 57.13921509 -67.99644043 58.22545166 -68.00366211 59.34460449 C-68.02110712 62.89536961 -68.00966777 66.44532212 -67.99609375 69.99609375 C-67.99879233 72.48608044 -68.00267779 74.97606609 -68.00769043 77.46604919 C-68.01356707 82.66814267 -68.0050807 87.86996024 -67.98632812 93.07202148 C-67.96352834 99.71836312 -67.97668067 106.36405889 -68.00061798 113.01037693 C-68.01511519 118.14671134 -68.0104521 123.28289419 -68.00010681 128.41923332 C-67.997451 130.86908992 -68.00066863 133.31896057 -68.01002502 135.76880074 C-68.02025637 139.19983178 -68.00459695 142.62983588 -67.98242188 146.06079102 C-67.9905188 147.0590239 -67.99861572 148.05725677 -68.00695801 149.08573914 C-67.90944661 157.28636039 -66.28829623 165.01716906 -61.02734375 171.4921875 C-55.20821264 176.03394837 -50.89832495 177.09071513 -43.65234375 177.6796875 C-42.32686523 177.8024707 -42.32686523 177.8024707 -40.97460938 177.92773438 C-38.8056837 178.12704106 -36.63536926 178.31113287 -34.46484375 178.4921875 C-34.46484375 181.4621875 -34.46484375 184.4321875 -34.46484375 187.4921875 C-71.75484375 187.4921875 -109.04484375 187.4921875 -147.46484375 187.4921875 C-147.46484375 183.8621875 -147.46484375 180.2321875 -147.46484375 176.4921875 C-146.36785156 176.39421875 -145.27085937 176.29625 -144.140625 176.1953125 C-142.68610497 176.0451685 -141.23168257 175.89407667 -139.77734375 175.7421875 C-139.05611328 175.6803125 -138.33488281 175.6184375 -137.59179688 175.5546875 C-132.82059797 175.03181639 -129.79183922 174.22039764 -126.46484375 170.4921875 C-123.89209087 163.9515441 -124.17608915 157.41374894 -124.19018555 150.46362305 C-124.18507462 149.16193176 -124.17996368 147.86024048 -124.17469788 146.519104 C-124.16135696 142.96314655 -124.16072385 139.40729571 -124.16326118 135.85131812 C-124.16433452 132.87447762 -124.1594381 129.89765837 -124.15465575 126.92082244 C-124.14357691 119.892267 -124.1431136 112.86376501 -124.14916992 105.83520508 C-124.15520495 98.60463605 -124.14290704 91.37426185 -124.12159985 84.14372605 C-124.1039351 77.91841451 -124.09799027 71.6931647 -124.1012376 65.46782905 C-124.10304331 61.75749238 -124.10048617 58.04729461 -124.08652306 54.33698082 C-124.07151467 50.19417221 -124.08095726 46.05175522 -124.0925293 41.90893555 C-124.08488556 40.69353592 -124.07724182 39.47813629 -124.06936646 38.22590637 C-124.12007471 29.98787214 -124.5466312 22.08383372 -129.90234375 15.4921875 C-133.82982374 12.42683726 -136.67385347 11.27531386 -141.65234375 10.9296875 C-146.36547466 10.59155659 -146.36547466 10.59155659 -147.46484375 9.4921875 C-147.60052694 5.82874139 -147.62945801 2.98603029 -146.46484375 -0.5078125 C-145.48950684 -0.4670459 -144.51416992 -0.4262793 -143.50927734 -0.38427734 C-120.42898744 0.55151148 -98.21995518 0.80787494 -75.484375 -3.921875 C-72.46484375 -4.5078125 -72.46484375 -4.5078125 -69.46484375 -4.5078125 C-69.13484375 4.4021875 -68.80484375 13.3121875 -68.46484375 22.4921875 C-65.87957187 19.90691562 -63.54284951 17.45408271 -61.21484375 14.6796875 C-45.98873228 -2.74935074 -21.44073106 -13.11588303 0 0 Z " fill="#FBFFFA" transform="translate(645.46484375,123.5078125)"/>
<path d="M0 0 C7.75453914 5.54817276 12.34193047 12.21543521 14.53515625 21.4921875 C15.80938881 33.65775521 13.49961183 44.28179788 5.9140625 54.03125 C1.06432398 59.16949988 -4.46830557 62.05601709 -11.54296875 62.828125 C-20.37486979 62.93689225 -26.7832997 61.40514824 -34.27734375 56.7421875 C-40.12070097 50.73187722 -43.73801595 43.67352946 -43.83984375 35.2421875 C-43.61330046 24.64234627 -39.59696548 19.09517569 -32.390625 11.55859375 C-30.42129806 9.64062534 -30.42129806 9.64062534 -29.46484375 7.4921875 C-42.70833721 10.24844756 -51.29583779 14.40567941 -59.46484375 25.4921875 C-65.43334424 35.51620755 -67.76567343 43.95755345 -67.75537109 55.48535156 C-67.76208832 56.570858 -67.76880554 57.65636444 -67.77572632 58.77476501 C-67.79467641 62.35249448 -67.79862916 65.93003601 -67.80078125 69.5078125 C-67.80721165 72.00494462 -67.81394019 74.50207599 -67.82095337 76.99920654 C-67.83291897 82.23109686 -67.83663496 87.46292119 -67.83544922 92.69482422 C-67.83438193 98.05269256 -67.84844774 103.41027222 -67.87646484 108.76806641 C-67.90988994 115.25361618 -67.92355766 121.73890704 -67.92222977 128.22454071 C-67.92458149 130.68836686 -67.9333807 133.152196 -67.9488945 135.61597443 C-67.96861415 139.07142961 -67.96269199 142.52597368 -67.95068359 145.98144531 C-67.96192261 146.98753342 -67.97316162 147.99362152 -67.98474121 149.03019714 C-67.91247512 157.26389037 -65.97513639 164.47571928 -61.58984375 171.4921875 C-56.13766768 176.62364733 -50.21966688 177.12537172 -43.08984375 177.6796875 C-41.69958984 177.8024707 -41.69958984 177.8024707 -40.28125 177.92773438 C-38.00981488 178.12677766 -35.73804019 178.31460399 -33.46484375 178.4921875 C-33.33984375 185.2421875 -33.33984375 185.2421875 -34.46484375 187.4921875 C-71.42484375 187.4921875 -108.38484375 187.4921875 -146.46484375 187.4921875 C-146.46484375 183.8621875 -146.46484375 180.2321875 -146.46484375 176.4921875 C-145.44003906 176.40582031 -144.41523438 176.31945312 -143.359375 176.23046875 C-141.99857794 176.08969664 -140.63790667 175.94770481 -139.27734375 175.8046875 C-138.26704102 175.72444336 -138.26704102 175.72444336 -137.23632812 175.64257812 C-133.53119687 175.22688047 -131.54161571 174.55303949 -128.6015625 172.22265625 C-125.17823048 167.84805098 -124.21603307 164.27042074 -124.19741821 158.75715637 C-124.18888824 157.61199554 -124.18035828 156.46683472 -124.17156982 155.28697205 C-124.1724762 154.0396077 -124.17338257 152.79224335 -124.17431641 151.50708008 C-124.16832827 150.1728274 -124.16152207 148.83857819 -124.15396118 147.5043335 C-124.13631822 143.88628634 -124.1316064 140.26833383 -124.13032961 136.65024781 C-124.12890595 134.38623912 -124.12463218 132.12225432 -124.11933517 129.85825157 C-124.10083723 121.94934951 -124.09266385 114.04051478 -124.09423828 106.1315918 C-124.09543811 98.77718553 -124.07436656 91.42307349 -124.04275095 84.06874162 C-124.01652734 77.74155902 -124.0058736 71.41447211 -124.0071491 65.08723563 C-124.00765715 61.31421956 -124.00206199 57.54146479 -123.980793 53.76850319 C-123.96130872 50.21510422 -123.96135469 46.66221293 -123.97582626 43.10879517 C-123.97888661 41.1975201 -123.96230746 39.28624444 -123.94494629 37.37504578 C-124.00551536 29.00509795 -125.11359677 21.68124623 -130.46484375 14.9921875 C-134.14821832 12.22965658 -137.12053877 11.22989579 -141.71484375 10.8671875 C-144.06609375 10.6815625 -144.06609375 10.6815625 -146.46484375 10.4921875 C-146.46484375 6.8621875 -146.46484375 3.2321875 -146.46484375 -0.5078125 C-145.07587891 -0.48686523 -143.68691406 -0.46591797 -142.25585938 -0.44433594 C-136.97764892 -0.37055104 -131.69948115 -0.32552269 -126.42089844 -0.28808594 C-124.15975214 -0.26827934 -121.8986548 -0.24122664 -119.63769531 -0.20605469 C-104.21859395 0.02736003 -89.71724438 -1.08616128 -74.5880127 -4.14459229 C-72.46484375 -4.5078125 -72.46484375 -4.5078125 -69.46484375 -4.5078125 C-69.13484375 4.7321875 -68.80484375 13.9721875 -68.46484375 23.4921875 C-65.82484375 20.1921875 -63.18484375 16.8921875 -60.46484375 13.4921875 C-52.18661128 4.55695245 -44.15485236 -0.91796734 -32.46484375 -4.5078125 C-31.84351563 -4.70117188 -31.2221875 -4.89453125 -30.58203125 -5.09375 C-19.84883932 -7.19286134 -9.30905926 -5.69460677 0 0 Z " fill="#FBFFFA" transform="translate(476.46484375,123.5078125)"/>
<path d="M0 0 C0.97484848 0.00222061 1.94969696 0.00444122 2.9540863 0.00672913 C4.05515213 0.00680466 5.15621796 0.00688019 6.29064941 0.00695801 C7.48854599 0.01211929 8.68644257 0.01728058 9.92063904 0.02259827 C11.14000656 0.02401321 12.35937408 0.02542816 13.61569214 0.02688599 C17.52856349 0.03250485 21.4413786 0.04506055 25.35423279 0.05775452 C27.99941426 0.06276709 30.64459662 0.06733041 33.28977966 0.07142639 C39.79045005 0.08248041 46.2910874 0.09923688 52.79173279 0.12025452 C52.79393263 1.36431533 52.79393263 1.36431533 52.79617691 2.63350868 C52.83322924 22.81441157 52.89222308 42.9951463 52.97563553 63.17591286 C53.01544416 72.93519491 53.04782738 82.69439612 53.06272888 92.45375061 C53.07573594 100.96005463 53.10267641 109.46618089 53.14634585 117.97238481 C53.16898197 122.47635393 53.18464218 126.98010363 53.18361664 131.48413467 C53.18287129 135.72448499 53.20077134 139.96434986 53.23290062 144.20457458 C53.24141128 145.75976218 53.24314161 147.31500415 53.23753548 148.87020493 C53.23089108 150.99689622 53.24882317 153.12204493 53.27275085 155.24858093 C53.27643803 156.43769388 53.2801252 157.62680683 53.2839241 158.85195351 C54.04257507 163.73469733 56.24743674 166.93962354 60.14720154 169.92103577 C63.15557396 171.28524601 65.83778482 171.84111909 69.10423279 172.30775452 C70.1728656 172.4663092 71.24149841 172.62486389 72.34251404 172.78822327 C73.15075623 172.89779358 73.95899841 173.00736389 74.79173279 173.12025452 C74.79173279 175.76025452 74.79173279 178.40025452 74.79173279 181.12025452 C41.46173279 181.12025452 8.13173279 181.12025452 -26.20826721 181.12025452 C-26.20826721 178.48025452 -26.20826721 175.84025452 -26.20826721 173.12025452 C-25.33943909 173.02228577 -24.47061096 172.92431702 -23.57545471 172.82337952 C-14.6072023 171.78553397 -14.6072023 171.78553397 -7.20826721 167.12025452 C-4.29393053 163.14061729 -3.82997946 160.30669571 -3.81626892 155.41352844 C-3.81032766 154.75250995 -3.8043864 154.09149147 -3.7982651 153.41044211 C-3.7819994 151.20318853 -3.78691748 148.99650035 -3.79176331 146.78919983 C-3.78438184 145.20389158 -3.7756764 143.61858902 -3.76574707 142.03329468 C-3.74243462 137.73404429 -3.73727538 133.43493829 -3.73508787 129.13563251 C-3.72942766 124.63971424 -3.70615651 120.14389012 -3.68449402 115.64802551 C-3.64597525 107.13539749 -3.62175182 98.62279642 -3.60336936 90.11010337 C-3.56994679 74.84844234 -3.51234006 59.58686172 -3.44937766 44.32529712 C-3.4278355 38.96579826 -3.41259508 33.60632754 -3.40253806 28.24679518 C-3.39554304 24.92202799 -3.38466666 21.59728105 -3.37289619 18.27252769 C-3.36832095 16.7248927 -3.36548672 15.17725149 -3.36447334 13.62961006 C-3.36291227 11.52604652 -3.35536187 9.42258855 -3.34629822 7.31904602 C-3.34374212 6.13919254 -3.34118603 4.95933907 -3.33855247 3.74373245 C-3.16118298 0.17214698 -3.16118298 0.17214698 0 0 Z " fill="#FBFFFA" transform="translate(1305.208267211914,127.87974548339844)"/>
<path d="M0 0 C4.62 0 9.24 0 14 0 C14.31751221 1.21469971 14.63502441 2.42939941 14.9621582 3.6809082 C16.15249381 8.23412052 17.34359381 12.7871326 18.53491211 17.34008789 C19.04813802 19.30194832 19.56116303 21.26386131 20.07397461 23.22583008 C23.96206918 38.13295138 23.96206918 38.13295138 28 53 C28.23074219 52.21165771 28.46148437 51.42331543 28.69921875 50.61108398 C33.70281792 33.57437269 38.97579096 16.71020383 45 0 C48.96 0 52.92 0 57 0 C62.94993908 17.1610783 68.0295936 34.53654755 73 52 C74.51603963 49.17927427 75.49003093 46.52635895 76.26171875 43.421875 C76.49028564 42.51904785 76.71885254 41.6162207 76.9543457 40.68603516 C77.31725708 39.23269775 77.31725708 39.23269775 77.6875 37.75 C79.92078416 28.99856861 82.2892721 20.29740832 84.8125 11.625 C85.26532349 10.05637207 85.26532349 10.05637207 85.72729492 8.45605469 C86.00935791 7.49344727 86.2914209 6.53083984 86.58203125 5.5390625 C86.83186768 4.68521973 87.0817041 3.83137695 87.33911133 2.95166016 C88 1 88 1 89 0 C91.18639453 -0.07258946 93.37500389 -0.08373783 95.5625 -0.0625 C97.35880859 -0.04896484 97.35880859 -0.04896484 99.19140625 -0.03515625 C100.11824219 -0.02355469 101.04507813 -0.01195312 102 0 C100.42658275 7.95366183 97.97988252 15.53573149 95.4296875 23.22265625 C94.98376371 24.57730403 94.5382237 25.9320782 94.0930481 27.28697205 C92.92965503 30.82433527 91.76111255 34.35997578 90.59143066 37.89526367 C89.3950334 41.51442146 88.20359518 45.1352108 87.01171875 48.75585938 C84.67928536 55.83883275 82.34094355 62.91983366 80 70 C75.71 70 71.42 70 67 70 C63.04626961 58.36120616 59.23678801 46.68734504 55.625 34.9375 C55.27953125 33.81424316 54.9340625 32.69098633 54.578125 31.53369141 C53.30513931 27.37039171 52.04114973 23.22762785 51 19 C49.02862242 24.18110638 47.16669336 29.37976695 45.44140625 34.6484375 C44.96818228 36.0807567 44.49487231 37.51304749 44.02148438 38.9453125 C43.29200685 41.15846068 42.56351053 43.37192185 41.83666992 45.5859375 C39.12598841 53.8344817 36.34532218 61.98071705 33 70 C29.04 70 25.08 70 21 70 C18.95001493 65.39129856 17.24618449 60.85429888 15.80078125 56.01171875 C15.60448624 55.35892944 15.40819122 54.70614014 15.20594788 54.03356934 C14.57097541 51.91933666 13.94161828 49.80348127 13.3125 47.6875 C12.42732089 44.72870456 11.53979618 41.77061425 10.65234375 38.8125 C10.43060486 38.07186813 10.20886597 37.33123627 9.98040771 36.56816101 C8.53958106 31.76469284 7.06531722 26.97317218 5.56640625 22.1875 C5.19539795 21.00067627 4.82438965 19.81385254 4.44213867 18.59106445 C3.74478133 16.36689178 3.04329555 14.14400819 2.3371582 11.92260742 C2.02738037 10.93107666 1.71760254 9.9395459 1.3984375 8.91796875 C1.12692871 8.05969482 0.85541992 7.2014209 0.57568359 6.31713867 C0 4 0 4 0 0 Z " fill="#FBFFFA" transform="translate(259,411)"/>
<path d="M0 0 C4.29 0 8.58 0 13 0 C13.33 33.99 13.66 67.98 14 103 C10.04 103 6.08 103 2 103 C1.34 100.03 0.68 97.06 0 94 C-0.680625 94.7425 -1.36125 95.485 -2.0625 96.25 C-7.88784316 102.07534316 -14.14296402 104.13473409 -22.25 104.25 C-31.5776285 104.14578069 -38.18620255 101.44825038 -45 95 C-53.34500859 84.94707514 -54.08238733 72.50235797 -53 60 C-51.23377761 49.36159073 -45.70586007 41.24104306 -37 35 C-30.09206883 30.55637824 -23.06316033 30.00208412 -15 31 C-9.27180862 32.65106693 -5.69816797 35.24146562 -1 39 C-0.67 26.13 -0.34 13.26 0 0 Z M-33.1875 48.1875 C-39.67281481 56.40904082 -39.92994795 64.81284286 -39 75 C-37.59075098 81.87847736 -35.2836715 86.6611351 -29.68359375 90.9765625 C-24.88617859 93.89285664 -19.41037151 93.41199668 -14 93 C-8.67441067 91.2917921 -4.90800248 87.72988356 -2 83 C1.20456495 74.12749704 1.98317856 61.66745765 -1.5625 52.75 C-4.34937509 47.69381234 -8.52145148 43.82618284 -14 42 C-21.98011586 41.28577276 -27.54847206 42.14863878 -33.1875 48.1875 Z " fill="#FBFFFA" transform="translate(539,378)"/>
<path d="M0 0 C7.67065774 4.35921021 12.44506121 9.94649358 15.31640625 18.31640625 C16.3075292 22.63375858 16.90686294 26.90812762 17.31640625 31.31640625 C17.4246875 32.39728516 17.4246875 32.39728516 17.53515625 33.5 C18.10381384 44.89684584 13.56037544 54.79561819 6.12890625 63.06640625 C-1.21480059 69.93835462 -9.30423707 70.98445876 -19.11328125 70.70703125 C-26.48212403 69.90081213 -30.48437673 67.51562327 -35.68359375 62.31640625 C-36.01359375 73.86640625 -36.34359375 85.41640625 -36.68359375 97.31640625 C-40.97359375 97.31640625 -45.26359375 97.31640625 -49.68359375 97.31640625 C-49.85566518 87.92066565 -50.02257015 78.52484241 -50.18359375 69.12890625 C-50.195471 68.43606663 -50.20734825 67.74322701 -50.21958542 67.02939224 C-50.6045763 44.45680127 -50.81700446 21.89246304 -50.68359375 -0.68359375 C-46.72359375 -0.68359375 -42.76359375 -0.68359375 -38.68359375 -0.68359375 C-38.02359375 2.28640625 -37.36359375 5.25640625 -36.68359375 8.31640625 C-36.22984375 7.59453125 -35.77609375 6.87265625 -35.30859375 6.12890625 C-26.30051516 -3.52260652 -11.74775734 -5.41188822 0 0 Z M-32.12109375 15.69140625 C-36.04541216 22.28426118 -37.16654879 27.22356867 -37.05859375 34.81640625 C-37.07019531 35.63238281 -37.08179688 36.44835937 -37.09375 37.2890625 C-37.05728305 44.86203346 -35.09218833 50.7532804 -29.68359375 56.31640625 C-24.98798772 59.37401018 -20.24732544 60.5843227 -14.68359375 60.31640625 C-7.95166852 58.87457611 -3.75661527 56.13638483 0.16015625 50.51171875 C4.50268729 42.26677806 4.5871945 32.26704345 2.6640625 23.26171875 C0.22270362 16.36723745 -3.86371059 12.41734199 -10.18359375 8.94140625 C-18.64018753 6.82725781 -25.97629491 9.70416635 -32.12109375 15.69140625 Z " fill="#FBFFFA" transform="translate(971.68359375,411.68359375)"/>
<path d="M0 0 C1.75183594 -0.0309375 1.75183594 -0.0309375 3.5390625 -0.0625 C14.57095201 -0.11197036 24.16143147 1.77134378 32.625 9.25 C39.10582314 17.4167652 39.46727307 25.95673492 38.89013672 36.03710938 C38.06308496 42.93986915 34.16228145 48.32453817 28.9375 52.6875 C18.22955688 59.78510214 6.14718545 60.84546057 -6.375 60.25 C-7.035 59.92 -7.695 59.59 -8.375 59.25 C-8.375 72.12 -8.375 84.99 -8.375 98.25 C-12.665 98.25 -16.955 98.25 -21.375 98.25 C-21.375 66.24 -21.375 34.23 -21.375 1.25 C-14.12722235 0.34402779 -7.27423047 0.03190452 0 0 Z M-4.5546875 10.76171875 C-6.44574219 11.00341797 -6.44574219 11.00341797 -8.375 11.25 C-8.39964928 16.50105442 -8.41783568 21.75207545 -8.42993164 27.00317383 C-8.43497218 28.79094021 -8.44180454 30.57870245 -8.45043945 32.36645508 C-8.4625173 34.93051168 -8.46823094 37.49451397 -8.47265625 40.05859375 C-8.47781754 40.8627623 -8.48297882 41.66693085 -8.48829651 42.49546814 C-8.48849215 44.41401715 -8.43701983 46.33245368 -8.375 48.25 C-6.3766895 50.2483105 -2.54043599 49.48936062 0.1875 49.5 C7.88420623 49.49575705 13.53742805 48.6954523 19.9375 44 C24.30580138 39.53011021 25.7780813 35.34574392 26 29.1875 C25.76938108 23.08993573 23.90300397 19.25860767 19.5625 15 C12.78733647 9.51671087 3.70373962 9.70619381 -4.5546875 10.76171875 Z " fill="#FBFFFA" transform="translate(684.375,382.75)"/>
<path d="M0 0 C8.25075506 5.84428483 13.73132393 12.66750914 15.8125 22.7109375 C17.11357347 34.60207889 15.77913803 44.46156455 10 55.0234375 C4.57217318 61.69191045 -2.56024539 67.13278117 -11.1875 68.7109375 C-23.60699802 69.41674504 -33.29818009 68.88510112 -43.1796875 60.65625 C-50.39186597 53.66857514 -53.21108947 44.68636477 -53.54150391 34.80908203 C-53.66077424 22.89037022 -51.24423457 13.76889734 -43.1875 4.7109375 C-31.52723132 -5.56480949 -13.59291974 -8.01011342 0 0 Z M-33.1875 11.7109375 C-39.52895943 20.6430182 -40.23754265 30.04141318 -39.1875 40.7109375 C-38.3048043 44.07707241 -37.05772116 46.78871693 -35.1875 49.7109375 C-34.61 50.6390625 -34.0325 51.5671875 -33.4375 52.5234375 C-29.14439373 56.69729082 -24.58895252 58.92485916 -18.5625 59.1484375 C-12.3706366 58.79855481 -8.69518045 56.48136412 -4.5 52.0234375 C2.17273481 43.85967124 2.66080774 36.11764229 1.8125 25.7109375 C0.64049452 18.62611158 -2.86914001 13.48030549 -8.1875 8.7109375 C-15.63198824 3.85376607 -27.10160917 5.46678474 -33.1875 11.7109375 Z " fill="#FBFFFA" transform="translate(236.1875,413.2890625)"/>
<path d="M0 0 C8.0229038 5.5659843 13.47389228 13.39966407 15.50390625 22.99609375 C16.50701776 35.03343188 16.02179325 46.62638823 8.609375 56.7109375 C2.0473816 64.15930038 -5.05654294 68.23390559 -14.921875 69.05859375 C-25.19900103 69.50120236 -34.15992076 68.16698783 -42.49609375 61.74609375 C-48.98233634 55.59350562 -52.93378507 46.63657909 -53.38671875 37.76953125 C-53.59114007 25.82695502 -53.20702262 16.30704068 -45.19921875 6.78515625 C-33.36640935 -5.18524395 -14.88745723 -8.54896918 0 0 Z M-35.55859375 14.68359375 C-40.35205173 23.71741841 -41.05653819 35.11442354 -38.2734375 44.96875 C-35.22047453 51.4771566 -30.84821045 55.90038865 -24.18359375 58.74609375 C-17.89803427 59.76161781 -13.1032068 58.95394954 -7.93359375 55.22265625 C-1.57829385 49.86037196 1.29715455 44.0168542 2.1015625 35.8515625 C2.40360395 25.62154994 0.61551252 17.96301513 -6.3671875 10.33984375 C-11.15004738 6.14326992 -15.73454667 6.26315525 -21.9140625 6.3671875 C-28.17709964 7.0930114 -31.67963202 9.88593056 -35.55859375 14.68359375 Z " fill="#FBFFFA" transform="translate(832.18359375,413.25390625)"/>
<path d="M0 0 C5.05737585 3.73312532 7.26584257 9.19205896 9.19140625 14.96875 C9.34355197 17.15089233 9.44053168 19.33703252 9.5078125 21.5234375 C9.53905212 22.49852768 9.53905212 22.49852768 9.57092285 23.49331665 C9.63691732 25.61001056 9.6957618 27.72682698 9.75390625 29.84375 C9.79677372 31.29362038 9.83966117 32.74349017 9.88256836 34.19335938 C10.20310835 45.45312392 10.30556954 56.70463838 10.19140625 67.96875 C6.23140625 67.96875 2.27140625 67.96875 -1.80859375 67.96875 C-2.46859375 65.65875 -3.12859375 63.34875 -3.80859375 60.96875 C-4.24429688 61.37867188 -4.68 61.78859375 -5.12890625 62.2109375 C-11.36363606 67.85188352 -17.43510534 69.8023893 -25.80859375 69.96875 C-33.25450326 69.51287799 -37.86184349 66.42643221 -42.80859375 60.96875 C-47.02501021 55.4347034 -46.61503715 48.61991187 -45.80859375 41.96875 C-43.80967342 34.9355118 -39.22091128 31.00322959 -33.03515625 27.41015625 C-23.83465539 23.30000514 -13.7813622 22.40894803 -3.80859375 22.96875 C-5.03316021 15.07557562 -5.03316021 15.07557562 -9.80859375 8.96875 C-19.55201806 5.47516183 -28.42845878 7.44288367 -37.80859375 10.96875 C-40.84459127 5.62539437 -40.84459127 5.62539437 -40.6953125 2.90234375 C-39.80859375 0.96875 -39.80859375 0.96875 -37.69921875 -0.26171875 C-36.8278125 -0.57753906 -35.95640625 -0.89335937 -35.05859375 -1.21875 C-33.76695312 -1.70408203 -33.76695312 -1.70408203 -32.44921875 -2.19921875 C-21.99313479 -5.49381325 -9.704995 -5.53373365 0 0 Z M-29.80859375 38.96875 C-32.77432865 43.41735234 -32.44947011 47.75018535 -31.80859375 52.96875 C-30.00740897 55.97072464 -28.90526643 57.42041366 -25.80859375 58.96875 C-19.8515743 59.52588132 -14.85650976 59.49055186 -9.80859375 55.96875 C-5.37313583 51.44892195 -3.69200553 48.4763358 -3.72070312 42.10546875 C-3.72908203 41.35910156 -3.73746094 40.61273438 -3.74609375 39.84375 C-3.75060547 39.08964844 -3.75511719 38.33554687 -3.75976562 37.55859375 C-3.77155876 35.69527873 -3.78949433 33.83200445 -3.80859375 31.96875 C-13.20856967 31.81533793 -22.44024458 32.60174059 -29.80859375 38.96875 Z " fill="#FBFFFA" transform="translate(414.80859375,413.03125)"/>
<path d="M0 0 C4.95 0 9.9 0 15 0 C17.24976456 5.95618097 19.49150292 11.91529958 21.72607422 17.87719727 C22.48628075 19.90209928 23.24861849 21.92620257 24.01318359 23.94946289 C25.11606304 26.86914571 26.21107411 29.79167952 27.3046875 32.71484375 C27.6443454 33.60896469 27.9840033 34.50308563 28.33395386 35.42430115 C30.37349618 40.90382705 31.856414 46.26428087 33 52 C33.66 52 34.32 52 35 52 C35.11287857 51.44901642 35.22575714 50.89803284 35.34205627 50.33035278 C36.49054177 44.92361657 37.94773988 39.726457 39.71484375 34.4921875 C39.97125137 33.72246613 40.227659 32.95274475 40.49183655 32.15969849 C41.03007294 30.54731075 41.57049685 28.93565169 42.11303711 27.32470703 C42.93719815 24.87589687 43.75328324 22.42450332 44.56835938 19.97265625 C45.09587866 18.39567419 45.62385785 16.81884589 46.15234375 15.2421875 C46.39307114 14.51909393 46.63379852 13.79600037 46.88182068 13.05099487 C48.38700638 8.59686532 50.09582791 4.29924431 52 0 C56.62 0 61.24 0 66 0 C65.1431683 4.28415849 64.03521256 7.81718111 62.48046875 11.87109375 C62.22587387 12.53760956 61.97127899 13.20412537 61.70896912 13.89083862 C60.87299525 16.07482368 60.03073785 18.25631012 59.1875 20.4375 C58.60139657 21.95922729 58.01529635 23.48095582 57.42919922 25.00268555 C55.92207973 28.90907086 54.40726036 32.81241904 52.88897705 36.71447754 C52.03235901 38.91680636 51.17792219 41.1199714 50.32373047 43.32324219 C49.01573994 46.69252357 47.69727469 50.05753133 46.37051392 53.41946411 C45.64999617 55.24902882 44.9365631 57.08137871 44.22338867 58.91381836 C37.70160693 75.31286698 29.59679269 92.44372796 12.8671875 100.3203125 C10.50297685 101.18092475 8.48979276 101.3112241 6 101 C3.21978022 92.65934066 3.21978022 92.65934066 5 89 C6.89449231 88.03613549 8.79646737 87.08332781 10.73828125 86.21875 C17.05989964 82.81228206 22.33511888 76.60427061 25 70 C25.0878663 63.8934295 23.3595029 58.54153714 20.9375 53.01953125 C20.6299025 52.29186554 20.32230499 51.56419983 20.00538635 50.81448364 C19.01419335 48.47581156 18.00708341 46.14436679 17 43.8125 C16.3149952 42.20116683 15.63132689 40.58926487 14.94897461 38.97680664 C13.59842033 35.7880465 12.24286663 32.60150328 10.88232422 29.41699219 C8.40251669 23.60685365 5.96989095 17.77804418 3.5625 11.9375 C3.19189453 11.05360596 2.82128906 10.16971191 2.43945312 9.2590332 C2.11009766 8.46070068 1.78074219 7.66236816 1.44140625 6.83984375 C1.15982666 6.16300537 0.87824707 5.48616699 0.58813477 4.78881836 C0 3 0 3 0 0 Z " fill="#FBFFFA" transform="translate(1201,411)"/>
<path d="M0 0 C5.93373491 4.77828146 8.943649 12.33709602 10.75 19.5625 C10.75 24.1825 10.75 28.8025 10.75 33.5625 C-5.42 33.5625 -21.59 33.5625 -38.25 33.5625 C-36.34681643 44.75698569 -36.34681643 44.75698569 -29.3203125 52.91015625 C-18.06591042 58.83464339 -7.09823131 56.39394077 4.75 53.5625 C5.41 56.8625 6.07 60.1625 6.75 63.5625 C-4.39314864 68.58784154 -17.60086952 69.4151659 -29.60546875 66.84375 C-31.99342894 65.92558856 -34.07212938 64.89831943 -36.25 63.5625 C-37.20519531 63.05396484 -37.20519531 63.05396484 -38.1796875 62.53515625 C-45.19222644 58.30656517 -49.23925782 50.29329872 -51.25 42.5625 C-52.62739469 28.89450652 -51.77015958 16.25074069 -42.81640625 5.27734375 C-31.53662641 -7.07134291 -14.04109226 -9.06653386 0 0 Z M-31.9375 9.75 C-35.74593809 14.38188416 -38.25 18.49630273 -38.25 24.5625 C-26.37 24.5625 -14.49 24.5625 -2.25 24.5625 C-3.23248302 15.72015286 -3.79291798 13.32461867 -9.375 7.25 C-17.20256949 2.65555704 -25.05738657 4.14990768 -31.9375 9.75 Z " fill="#FBFFFA" transform="translate(1051.25,414.4375)"/>
<path d="M0 0 C1.41945107 0.00129321 2.83890334 0.00907796 4.25830078 0.02148438 C5.43910721 0.02686218 5.43910721 0.02686218 6.64376831 0.03234863 C18.78999741 0.11021555 30.93475483 0.37617573 43.07861328 0.61523438 C45.59814153 0.66356831 48.11767277 0.7117465 50.63720703 0.75976562 C56.74271172 0.87646234 62.84817221 0.99525707 68.95361328 1.11523438 C68.95361328 4.74523437 68.95361328 8.37523437 68.95361328 12.11523438 C59.38361328 12.11523438 49.81361328 12.11523438 39.95361328 12.11523438 C39.95361328 40.49523437 39.95361328 68.87523437 39.95361328 98.11523438 C35.33361328 98.11523438 30.71361328 98.11523438 25.95361328 98.11523438 C25.95361328 69.73523438 25.95361328 41.35523438 25.95361328 12.11523438 C16.38361328 12.11523438 6.81361328 12.11523438 -3.04638672 12.11523438 C-3.37638672 8.48523438 -3.70638672 4.85523438 -4.04638672 1.11523438 C-3.04638672 0.11523438 -3.04638672 0.11523438 0 0 Z " fill="#FBFFF9" transform="translate(119.04638671875,382.884765625)"/>
<path d="M0 0 C1.06511827 4.37219878 0.66434402 6.79018866 -1 11 C-3.76276177 10.47731534 -6.3260876 9.89130413 -9 9 C-11.1415979 8.82967735 -13.28963927 8.73382163 -15.4375 8.6875 C-16.57058594 8.65011719 -17.70367188 8.61273438 -18.87109375 8.57421875 C-22.62280393 9.0847511 -23.69789275 10.07054125 -26 13 C-27.40425081 15.80850162 -27.04408432 16.8661143 -26.05078125 19.8828125 C-23.2059249 24.20699416 -19.97442686 25.20745219 -15.25 27 C-7.64653001 29.94167036 -1.35493259 33.04979049 2.9375 40.25 C4.67513392 46.38282559 4.67513392 51.61717441 2.9375 57.75 C-0.64387731 63.75747161 -5.46253964 67.59753268 -12.22265625 69.52734375 C-22.65539318 71.30281656 -32.36392455 70.57305276 -42 66 C-41.125 58.25 -41.125 58.25 -40 56 C-38.56206608 56.31049726 -37.1246682 56.6234776 -35.6875 56.9375 C-34.88699219 57.11152344 -34.08648438 57.28554688 -33.26171875 57.46484375 C-31 58 -31 58 -28 59 C-20.35810054 59.75530445 -20.35810054 59.75530445 -13.375 57.125 C-10.59222035 54.63514452 -10.09585903 53.86273128 -9.6875 50.1875 C-10.08695882 46.11302007 -11.14272856 44.9116094 -14 42 C-16.48870009 40.61858023 -19.09249792 39.63410808 -21.75 38.625 C-29.32502301 35.51817366 -36.20897758 32.18496852 -40 24.5 C-41.91551919 17.79568285 -41.29936698 13.14364886 -38 7 C-35.5625 4.25 -35.5625 4.25 -33 2 C-32.4225 1.443125 -31.845 0.88625 -31.25 0.3125 C-21.63454539 -5.29651519 -9.94230298 -3.55384447 0 0 Z " fill="#FBFFFA" transform="translate(611,412)"/>
<path d="M0 0 C-0.66 2.97 -1.32 5.94 -2 9 C-6 10 -6 10 -7.80859375 9.07421875 C-10.92945497 7.54438482 -13.60967514 7.77256196 -17.0625 7.8125 C-18.90521484 7.82216797 -18.90521484 7.82216797 -20.78515625 7.83203125 C-24.01732361 7.85783128 -24.01732361 7.85783128 -27 9 C-27.30556226 10.38864434 -27.56800808 11.78681264 -27.8125 13.1875 C-27.96332031 13.96480469 -28.11414063 14.74210937 -28.26953125 15.54296875 C-27.84617954 19.40221839 -25.97635757 20.60972056 -23 23 C-20.28227866 24.45605975 -17.46966287 25.62846169 -14.625 26.8125 C-7.21464215 30.07538696 -1.73116245 33.5376751 2 41 C2.66611661 48.25115512 3.24024208 55.3315634 -1.3046875 61.3828125 C-9.05837838 68.77919044 -17.76168236 69.35865486 -27.921875 69.23046875 C-33.65753491 69.02182681 -38.87547636 67.56226182 -44 65 C-43.53199289 60.94393835 -43.12046792 57.53411321 -41 54 C-39.9790625 54.433125 -39.9790625 54.433125 -38.9375 54.875 C-31.05771477 57.89279009 -23.52659508 59.74710687 -15.4375 56.625 C-12.90826598 55.22998107 -12.90826598 55.22998107 -12 53 C-11.23448229 47.88847415 -11.23448229 47.88847415 -13.140625 43.31640625 C-17.48718868 39.25469019 -22.58637277 37.47879144 -28.0546875 35.34765625 C-33.43450882 32.88606692 -37.12102166 29.11385064 -41 24.75 C-43.02704942 19.17561409 -42.73347111 13.28670404 -40.9375 7.6875 C-31.181715 -5.8447179 -14.39268554 -7.19634277 0 0 Z " fill="#FBFFFA" transform="translate(903,413)"/>
<path d="M0 0 C0 6.6 0 13.2 0 20 C5.94 20 11.88 20 18 20 C18 23.3 18 26.6 18 30 C12.06 30 6.12 30 0 30 C0.09377041 36.01426653 0.19991727 42.02814169 0.31738281 48.04199219 C0.35559239 50.08652819 0.3904591 52.13112957 0.421875 54.17578125 C0.46769987 57.12002886 0.5256656 60.06382948 0.5859375 63.0078125 C0.59748871 63.9174173 0.60903992 64.82702209 0.62094116 65.76419067 C0.64081085 66.62462982 0.66068054 67.48506897 0.68115234 68.37158203 C0.69447601 69.12214874 0.70779968 69.87271545 0.7215271 70.64602661 C0.99890428 73.67200203 0.99890428 73.67200203 3 79 C9.93 79.495 9.93 79.495 17 80 C17 83.3 17 86.6 17 90 C10.82377394 92.05874202 2.59840273 92.19411281 -3.625 90.12890625 C-8.23409674 87.46645453 -11.02610616 83.97056436 -13 79 C-13.58822529 75.19845341 -13.60481758 71.43935557 -13.609375 67.59765625 C-13.63417938 65.9811039 -13.63417938 65.9811039 -13.65948486 64.33189392 C-13.70785206 60.90870397 -13.72931155 57.48595796 -13.75 54.0625 C-13.77816899 51.73370176 -13.80809771 49.4049241 -13.83984375 47.07617188 C-13.91360856 41.38415113 -13.96325252 35.69237522 -14 30 C-17.3 30 -20.6 30 -24 30 C-24 26.7 -24 23.4 -24 20 C-20.7 19.67 -17.4 19.34 -14 19 C-13.67 13.72 -13.34 8.44 -13 3 C-8.06632653 0.99308198 -5.44479395 0 0 0 Z " fill="#FBFFFA" transform="translate(1177,391)"/>
<path d="M0 0 C1 1 1 1 1.125 4.25 C1.02164252 7.35072428 0.65361593 9.99129174 0 13 C-0.72445312 13.08636719 -1.44890625 13.17273438 -2.1953125 13.26171875 C-8.64730487 14.19940831 -12.66012653 15.00914551 -17 20 C-19.88192356 26.26200015 -20.46426576 31.56554077 -20.51171875 38.40625 C-20.52966995 39.3715564 -20.54762115 40.33686279 -20.56611633 41.3314209 C-20.61991198 44.38757068 -20.65401606 47.44356706 -20.6875 50.5 C-20.72070022 52.58335454 -20.75519236 54.66668891 -20.79101562 56.75 C-20.87562067 61.83322209 -20.94257792 66.91640112 -21 72 C-25.29 72 -29.58 72 -34 72 C-35.4278535 69.14429301 -35.11941486 66.72285644 -35.11352539 63.53076172 C-35.11367142 62.86722687 -35.11381744 62.20369202 -35.1139679 61.52005005 C-35.11327031 59.32322947 -35.10548514 57.1264933 -35.09765625 54.9296875 C-35.09579152 53.40796963 -35.09436788 51.88625116 -35.09336853 50.36453247 C-35.08954767 46.35648953 -35.07972104 42.34848274 -35.06866455 38.3404541 C-35.05844118 34.25171396 -35.05386892 30.16296799 -35.04882812 26.07421875 C-35.0380984 18.04946256 -35.02102713 10.02473578 -35 2 C-31.04 2 -27.08 2 -23 2 C-22.67 5.3 -22.34 8.6 -22 12 C-21.484375 11.113125 -20.96875 10.22625 -20.4375 9.3125 C-15.3809795 1.69160125 -8.72847328 -0.28156365 0 0 Z " fill="#FAFFFA" transform="translate(772,409)"/>
<path d="M0 0 C0 4.29 0 8.58 0 13 C-1.340625 13.0825 -2.68125 13.165 -4.0625 13.25 C-9.04282885 13.82947223 -11.96145746 14.99088987 -16 18 C-21.16879847 24.61417676 -21.16664723 31.67466106 -21.31640625 39.67578125 C-21.33718735 40.6009404 -21.35796844 41.52609955 -21.37937927 42.47929382 C-21.4445656 45.42362307 -21.50361558 48.36803865 -21.5625 51.3125 C-21.60571464 53.31315983 -21.64932986 55.31381106 -21.69335938 57.31445312 C-21.8002152 62.20954779 -21.90156919 67.10472897 -22 72 C-26.29 72 -30.58 72 -35 72 C-35.14578646 65.72769284 -35.28799502 59.45531699 -35.42724609 53.18286133 C-35.47482604 51.06044461 -35.52329216 48.93804753 -35.57275391 46.81567383 C-35.92014669 31.87423932 -36.06323498 16.94541169 -36 2 C-32.04 2 -28.08 2 -24 2 C-23.67 5.3 -23.34 8.6 -23 12 C-22.319375 10.9275 -21.63875 9.855 -20.9375 8.75 C-18.1382506 4.79905942 -15.31741508 3.11797721 -11 1 C-7.57067929 -0.71466036 -3.78283935 -0.05404056 0 0 Z " fill="#FBFFFA" transform="translate(1114,409)"/>
<path d="M0 0 C1 1 1 1 1.09765625 3.72265625 C1.08605469 4.82480469 1.07445312 5.92695313 1.0625 7.0625 C1.05347656 8.16722656 1.04445313 9.27195312 1.03515625 10.41015625 C1.02355469 11.26480469 1.01195312 12.11945313 1 13 C0.43152344 13.02578125 -0.13695312 13.0515625 -0.72265625 13.078125 C-6.54263073 13.50563565 -10.28685174 14.48824247 -15 18 C-20.50243997 24.74007085 -20.15089049 33.12613877 -20.31640625 41.43359375 C-20.33718735 42.31153091 -20.35796844 43.18946808 -20.37937927 44.0940094 C-20.44431945 46.87509985 -20.50349927 49.65627785 -20.5625 52.4375 C-20.60573814 54.33269104 -20.64935405 56.2278735 -20.69335938 58.12304688 C-20.79994322 62.74861013 -20.90136408 67.37426071 -21 72 C-25.29 72 -29.58 72 -34 72 C-34.14578646 65.72769284 -34.28799502 59.45531699 -34.42724609 53.18286133 C-34.47482604 51.06044461 -34.52329216 48.93804753 -34.57275391 46.81567383 C-34.92014669 31.87423932 -35.06323498 16.94541169 -35 2 C-31.04 2 -27.08 2 -23 2 C-22.67 5.3 -22.34 8.6 -22 12 C-21.360625 10.948125 -20.72125 9.89625 -20.0625 8.8125 C-15.05516296 1.85315021 -8.39536832 -0.89950375 0 0 Z " fill="#FBFFFA" transform="translate(479,409)"/>
<path d="M0 0 C4.62 0 9.24 0 14 0 C14.02259554 8.53624899 14.04094093 17.07247471 14.05181217 25.60874557 C14.05702991 29.57250836 14.06410745 33.53624961 14.07543945 37.5 C14.08630771 41.32549501 14.0922852 45.15096932 14.09487724 48.97647858 C14.09672438 50.43570532 14.10033136 51.89493094 14.10573006 53.35414886 C14.11299274 55.39855902 14.11398873 57.4428837 14.11352539 59.48730469 C14.115746 60.65090515 14.11796661 61.81450562 14.12025452 63.0133667 C14 66 14 66 13 70 C8.71 70 4.42 70 0 70 C0 46.9 0 23.8 0 0 Z " fill="#FBFFFA" transform="translate(1127,411)"/>
<path d="M0 0 C0.79237564 -0.00095673 1.58475128 -0.00191345 2.40113831 -0.00289917 C4.06763794 -0.00357598 5.73414028 -0.00175672 7.40063477 0.00244141 C9.9305625 0.00778958 12.46031214 0.00248306 14.99023438 -0.00390625 C16.61848997 -0.00324524 18.24674546 -0.00196361 19.875 0 C20.62108017 -0.00202423 21.36716034 -0.00404846 22.135849 -0.00613403 C27.00730853 0.01526545 31.70916209 0.22459583 36.50390625 1.1328125 C38.90746552 4.7381514 39.25475893 7.92642275 38.50390625 12.1328125 C37.28736877 14.22964478 37.28736877 14.22964478 35.50390625 16.1328125 C33.25840759 16.62728882 33.25840759 16.62728882 30.60522461 16.61865234 C29.61086899 16.6248056 28.61651337 16.63095886 27.59202576 16.63729858 C26.52009476 16.62292755 25.44816376 16.60855652 24.34375 16.59375 C22.69252892 16.59237534 22.69252892 16.59237534 21.00794983 16.5909729 C18.68030487 16.58492876 16.35266797 16.56915859 14.02514648 16.54443359 C10.45202149 16.50792097 6.87993268 16.50341416 3.30664062 16.50390625 C1.04816807 16.49407579 -1.21029742 16.48241911 -3.46875 16.46875 C-4.54270523 16.46652435 -5.61666046 16.46429871 -6.72315979 16.46200562 C-7.71436325 16.44924591 -8.70556671 16.43648621 -9.72680664 16.42333984 C-11.03893883 16.41190445 -11.03893883 16.41190445 -12.37757874 16.40023804 C-14.49609375 16.1328125 -14.49609375 16.1328125 -16.49609375 14.1328125 C-16.7265625 11.34765625 -16.7265625 11.34765625 -16.68359375 8.0703125 C-16.67714844 6.98621094 -16.67070313 5.90210937 -16.6640625 4.78515625 C-16.49609375 2.1328125 -16.49609375 2.1328125 -15.49609375 1.1328125 C-10.29458483 0.18190445 -5.26301956 -0.01424075 0 0 Z " fill="#FBFFFA" transform="translate(1319.49609375,82.8671875)"/>
<path d="M0 0 C0.99120346 -0.0127597 1.98240692 -0.02551941 3.00364685 -0.03866577 C4.6145797 -0.04200424 4.6145797 -0.04200424 6.25805664 -0.04541016 C7.90784264 -0.05539536 7.90784264 -0.05539536 9.59095764 -0.06558228 C11.92032189 -0.0757213 14.24971527 -0.08039891 16.57910156 -0.08007812 C20.15030587 -0.08445073 23.72027437 -0.12075723 27.29125977 -0.15869141 C29.55102115 -0.16455928 31.81078842 -0.16852887 34.07055664 -0.17041016 C35.67845314 -0.19196671 35.67845314 -0.19196671 37.3188324 -0.21395874 C38.81036583 -0.20472885 38.81036583 -0.20472885 40.33203125 -0.1953125 C41.20758163 -0.19816254 42.08313202 -0.20101257 42.98521423 -0.20394897 C45.23071289 0.29052734 45.23071289 0.29052734 47.01344299 2.12948608 C48.65667772 5.04675041 48.6515114 6.99427234 48.23071289 10.29052734 C46.60592167 12.5066998 45.71934357 13.20909498 42.98521423 13.66474915 C42.10966385 13.66411972 41.23411346 13.6634903 40.33203125 13.6628418 C39.33767563 13.66907059 38.34332001 13.67529938 37.3188324 13.68171692 C36.2469014 13.67250717 35.1749704 13.66329742 34.07055664 13.65380859 C32.96974258 13.6543071 31.86892853 13.6548056 30.73475647 13.65531921 C28.407137 13.65297791 26.07951503 13.64324612 23.75195312 13.62670898 C20.17888897 13.60309789 16.60656968 13.60615011 13.03344727 13.61279297 C10.77497925 13.60721705 8.5165144 13.60010771 6.25805664 13.59130859 C5.18410141 13.59222 4.11014618 13.59313141 3.00364685 13.59407043 C2.01244339 13.58453842 1.02123993 13.57500641 0 13.56518555 C-0.87475479 13.56057816 -1.74950958 13.55597076 -2.65077209 13.55122375 C-4.76928711 13.29052734 -4.76928711 13.29052734 -6.76928711 11.29052734 C-7.03491211 9.19677734 -7.03491211 9.19677734 -7.01928711 6.79052734 C-7.02444336 5.99646484 -7.02959961 5.20240234 -7.03491211 4.38427734 C-6.47474698 -0.03114191 -3.79298196 0.03305631 0 0 Z " fill="#FBFFFA" transform="translate(1309.769287109375,64.70947265625)"/>
<path d="M0 0 C1.27842773 -0.029729 2.55685547 -0.05945801 3.87402344 -0.09008789 C5.07188477 -0.0977417 6.26974609 -0.10539551 7.50390625 -0.11328125 C9.1118103 -0.13515503 9.1118103 -0.13515503 10.75219727 -0.1574707 C13.4375 0.3125 13.4375 0.3125 15.32006836 2.14379883 C16.89544963 5.20128448 16.3551008 7.06560485 15.4375 10.3125 C12.96973508 12.78026492 12.24941248 12.57216318 8.85180664 12.60302734 C7.90064468 12.61578705 6.94948273 12.62854675 5.96949768 12.64169312 C4.42418617 12.64503159 4.42418617 12.64503159 2.84765625 12.6484375 C1.26445839 12.6584227 1.26445839 12.6584227 -0.35072327 12.66860962 C-2.5859299 12.67874792 -4.82116688 12.68342628 -7.05639648 12.68310547 C-10.48276456 12.68747801 -13.90784446 12.72378464 -17.33398438 12.76171875 C-19.50259975 12.76758667 -21.67122126 12.77155623 -23.83984375 12.7734375 C-24.86802719 12.78780853 -25.89621063 12.80217957 -26.95555115 12.81698608 C-27.90986526 12.81083282 -28.86417938 12.80467957 -29.84741211 12.79833984 C-30.68743271 12.80118988 -31.52745331 12.80403992 -32.39292908 12.80697632 C-34.5625 12.3125 -34.5625 12.3125 -36.37281799 10.48135376 C-38.03421066 7.4525463 -37.4321714 5.57376777 -36.5625 2.3125 C-31.26378866 -2.98621134 -7.04830999 0.08795073 0 0 Z " fill="#FBFFFA" transform="translate(1340.5625,48.6875)"/>
<path d="M0 0 C2.1372274 1.6254969 2.90594516 2.49099733 3.3984375 5.15625 C3.39070313 5.9296875 3.38296875 6.703125 3.375 7.5 C3.38273437 8.2734375 3.39046875 9.046875 3.3984375 9.84375 C2.90631824 12.50698365 2.12570206 13.36561587 0 15 C-3.6293454 16.10458338 -5.29135967 16.3382147 -8.75 14.6875 C-11 13 -11 13 -13 11 C-13.4423824 7.01855844 -13.66305693 4.86883322 -11.1875 1.625 C-7.26095629 -1.29186104 -4.61536964 -1.15384241 0 0 Z " fill="#FBFFFA" transform="translate(1138,384)"/>
<path d="M0 0 C3.29714793 0.32971479 4.6226839 0.6226839 7 3 C6.67028521 6.29714793 6.3773161 7.6226839 4 10 C0.70285207 9.67028521 -0.6226839 9.3773161 -3 7 C-2.67028521 3.70285207 -2.3773161 2.3773161 0 0 Z " fill="#FBFFFA" transform="translate(1328,10)"/>
<path d="M0 0 C2 2 2 2 2.25 4.5 C2 7 2 7 0 9 C-3.125 9.125 -3.125 9.125 -6 9 C-8.125 4.375 -8.125 4.375 -7 1 C-4.48718205 -0.25640898 -2.78302919 -0.20872719 0 0 Z " fill="#FBFFFA" transform="translate(1311,21)"/>
<path d="M0 0 C4.75 0.75 4.75 0.75 7 3 C6.67028521 6.29714793 6.3773161 7.6226839 4 10 C1.5 9.9375 1.5 9.9375 -1 9 C-2.5 6.6875 -2.5 6.6875 -3 4 C-1.625 1.6875 -1.625 1.6875 0 0 Z " fill="#FBFFFA" transform="translate(1317,10)"/>
<path d="M0 0 C3.0625 0.1875 3.0625 0.1875 5.0625 2.1875 C4.6875 5.3125 4.6875 5.3125 4.0625 8.1875 C-1.37190487 9.51591008 -1.37190487 9.51591008 -3.875 8.0625 C-4.9375 6.1875 -4.9375 6.1875 -4.6875 3.5625 C-3.63578571 0.23207143 -3.63578571 0.23207143 0 0 Z " fill="#FBFFFA" transform="translate(1318.9375,31.8125)"/>
<path d="M0 0 C2.33944736 0.28730055 4.6739143 0.61936779 7 1 C7.625 3.3125 7.625 3.3125 8 6 C7.01 7.485 7.01 7.485 6 9 C3 9.375 3 9.375 0 9 C-2 6 -2 6 -1.6875 3.375 C-1 1 -1 1 0 0 Z " fill="#FAFFF9" transform="translate(1316,21)"/>
<path d="M0 0 C2.31 0.33 4.62 0.66 7 1 C7.625 3.3125 7.625 3.3125 8 6 C7.01 7.485 7.01 7.485 6 9 C3.69 8.67 1.38 8.34 -1 8 C-1.625 5.6875 -1.625 5.6875 -2 3 C-1.34 2.01 -0.68 1.02 0 0 Z " fill="#FBFFFA" transform="translate(1327,21)"/>
<path d="M0 0 C0.99 0.103125 1.98 0.20625 3 0.3125 C5 3.3125 5 3.3125 4.75 5.375 C4 7.3125 4 7.3125 2 9.3125 C-1.125 8.9375 -1.125 8.9375 -4 8.3125 C-4.625 5.4375 -4.625 5.4375 -5 2.3125 C-3 0.3125 -3 0.3125 0 0 Z " fill="#FBFFF9" transform="translate(1330,-0.3125)"/>
<path d="M0 0 C0.94875 0.04125 1.8975 0.0825 2.875 0.125 C4.0625 2.375 4.0625 2.375 4.875 5.125 C3.5 7.4375 3.5 7.4375 1.875 9.125 C-1.095 8.63 -1.095 8.63 -4.125 8.125 C-4.75 5.25 -4.75 5.25 -5.125 2.125 C-3.125 0.125 -3.125 0.125 0 0 Z " fill="#FBFFFA" transform="translate(1363.125,31.875)"/>
<path d="M0 0 C3.0625 0.1875 3.0625 0.1875 5.0625 2.1875 C4.73278521 5.48464793 4.4398161 6.8101839 2.0625 9.1875 C-1.23464793 8.85778521 -2.5601839 8.5648161 -4.9375 6.1875 C-4.21574268 0.26908996 -4.21574268 0.26908996 0 0 Z " fill="#FBFFFA" transform="translate(1329.9375,31.8125)"/>
<path d="M0 0 C2.875 -0.125 2.875 -0.125 6 0 C6.66 0.66 7.32 1.32 8 2 C7.625 5.125 7.625 5.125 7 8 C5.02 8.33 3.04 8.66 1 9 C-0.625 7.3125 -0.625 7.3125 -2 5 C-1.1875 2.25 -1.1875 2.25 0 0 Z " fill="#FBFFFA" transform="translate(1305,32)"/>
<path d="M0 0 C2.875 -0.125 2.875 -0.125 6 0 C6.66 0.66 7.32 1.32 8 2 C7.625 5.125 7.625 5.125 7 8 C5.02 8.33 3.04 8.66 1 9 C-0.625 7.3125 -0.625 7.3125 -2 5 C-1.1875 2.25 -1.1875 2.25 0 0 Z " fill="#FAFFF9" transform="translate(1294,32)"/>
<path d="M0 0 C2.33944736 0.28730055 4.6739143 0.61936779 7 1 C7.04241723 3.33294775 7.04092937 5.66702567 7 8 C6 9 6 9 3.0625 9.25 C2.051875 9.1675 1.04125 9.085 0 9 C-2 6 -2 6 -1.6875 3.375 C-1 1 -1 1 0 0 Z " fill="#FBFFFA" transform="translate(1349,21)"/>
<path d="M0 0 C2.5 0.1875 2.5 0.1875 5 1 C7 4 7 4 6.75 6.0625 C6 8 6 8 4 10 C-0.55555556 9.44444444 -0.55555556 9.44444444 -2 8 C-2.1875 5.0625 -2.1875 5.0625 -2 2 C-1.34 1.34 -0.68 0.68 0 0 Z " fill="#FBFFFA" transform="translate(1339,10)"/>
<path d="M0 0 C2.9375 0.1875 2.9375 0.1875 3.9375 1.1875 C4.125 4.125 4.125 4.125 3.9375 7.1875 C3.2775 7.8475 2.6175 8.5075 1.9375 9.1875 C-1.1875 8.8125 -1.1875 8.8125 -4.0625 8.1875 C-4.6875 5.3125 -4.6875 5.3125 -5.0625 2.1875 C-3.0625 0.1875 -3.0625 0.1875 0 0 Z " fill="#FBFFFA" transform="translate(1352.0625,31.8125)"/>
<path d="M0 0 C2.33944736 0.28730055 4.6739143 0.61936779 7 1 C7.93065133 3.60582371 8.14917407 4.64198224 7.0625 7.25 C6.711875 7.8275 6.36125 8.405 6 9 C4.00045254 9.04254356 1.99958364 9.04080783 0 9 C-1 8 -1 8 -1.125 4.5 C-1 1 -1 1 0 0 Z " fill="#FBFFFA" transform="translate(1338,21)"/>
<path d="M0 0 C1.4540625 0.0309375 1.4540625 0.0309375 2.9375 0.0625 C5.0625 4.6875 5.0625 4.6875 3.9375 8.0625 C-1.8125 9.1875 -1.8125 9.1875 -4.0625 8.0625 C-4.10491723 5.72955225 -4.10342937 3.39547433 -4.0625 1.0625 C-3.0625 0.0625 -3.0625 0.0625 0 0 Z " fill="#FBFFFA" transform="translate(1341.0625,31.9375)"/>
</svg>
