<?xml version="1.0" encoding="UTF-8"?>
<svg version="1.1" xmlns="http://www.w3.org/2000/svg" width="1587" height="512">
<path d="M0 0 C115.5 0 231 0 350 0 C350 4.62 350 9.24 350 14 C352.64 14 355.28 14 358 14 C358 24.23 358 34.46 358 45 C360.31 45 362.62 45 365 45 C365 55.56 365 66.12 365 77 C367.64 77 370.28 77 373 77 C373 90.2 373 103.4 373 117 C375.64 117 378.28 117 381 117 C381 124.92 381 132.84 381 141 C383.64 141 386.28 141 389 141 C389 151.23 389 161.46 389 172 C391.64 172 394.28 172 397 172 C397 185.2 397 198.4 397 212 C399.31 212 401.62 212 404 212 C403.99214478 210.9627478 403.99214478 210.9627478 403.98413086 209.90454102 C403.963425 206.79053648 403.95036037 203.67654639 403.9375 200.5625 C403.92912109 199.47388672 403.92074219 198.38527344 403.91210938 197.26367188 C403.90727539 195.71196289 403.90727539 195.71196289 403.90234375 194.12890625 C403.89448853 192.69140015 403.89448853 192.69140015 403.88647461 191.22485352 C404 189 404 189 405 188 C407.31 188 409.62 188 412 188 C412 180.08 412 172.16 412 164 C414.64 164 417.28 164 420 164 C420 153.77 420 143.54 420 133 C422.64 133 425.28 133 428 133 C428 125.08 428 117.16 428 109 C430.64 109 433.28 109 436 109 C436 101.08 436 93.16 436 85 C462.4 85 488.8 85 516 85 C516 90.28 516 95.56 516 101 C518.64 101 521.28 101 524 101 C524 111.56 524 122.12 524 133 C526.64 133 529.28 133 532 133 C532 145.87 532 158.74 532 172 C534.64 172 537.28 172 540 172 C540 182.56 540 193.12 540 204 C542.31 204 544.62 204 547 204 C547 201.36 547 198.72 547 196 C549.64 196 552.28 196 555 196 C555 185.44 555 174.88 555 164 C557.64 164 560.28 164 563 164 C563 156.08 563 148.16 563 140 C565.64 140 568.28 140 571 140 C571 132.41 571 124.82 571 117 C573.64 117 576.28 117 579 117 C579 106.44 579 95.88 579 85 C605.07 85 631.14 85 658 85 C658 82.69 658 80.38 658 78 C659.75559942 76.24440058 662.03582442 76.86778081 664.37109375 76.86328125 C665.07363281 76.86714844 665.77617188 76.87101562 666.5 76.875 C667.20253906 76.87113281 667.90507813 76.86726563 668.62890625 76.86328125 C673.87338622 76.87338622 673.87338622 76.87338622 675 78 C675.04092937 80.33297433 675.04241723 82.66705225 675 85 C672.36 85 669.72 85 667 85 C667 95.89 667 106.78 667 118 C664.36 118 661.72 118 659 118 C659 125.59 659 133.18 659 141 C656.36 141 653.72 141 651 141 C651 148.92 651 156.84 651 165 C648.36 165 645.72 165 643 165 C643 172.92 643 180.84 643 189 C640.36 189 637.72 189 635 189 C635 196.92 635 204.84 635 213 C632.36 213 629.72 213 627 213 C627 220.92 627 228.84 627 237 C624.36 237 621.72 237 619 237 C619 244.59 619 252.18 619 260 C616.69 260 614.38 260 612 260 C612 270.56 612 281.12 612 292 C609.36 292 606.72 292 604 292 C604 299.92 604 307.84 604 316 C601.36 316 598.72 316 596 316 C596.01160156 317.07378906 596.02320313 318.14757812 596.03515625 319.25390625 C596.04454315 320.69010241 596.05364238 322.12630048 596.0625 323.5625 C596.07087891 324.26697266 596.07925781 324.97144531 596.08789062 325.69726562 C596.09111328 326.39658203 596.09433594 327.09589844 596.09765625 327.81640625 C596.10289307 328.45006104 596.10812988 329.08371582 596.11352539 329.73657227 C595.95773291 332.84270581 595.4398258 335.92121937 595 339 C590.05 339 585.1 339 580 339 C580 336.69 580 334.38 580 332 C569.44 332 558.88 332 548 332 C548 334.31 548 336.62 548 339 C534.8 339 521.6 339 508 339 C508 336.69 508 334.38 508 332 C505.36 332 502.72 332 500 332 C500 321.44 500 310.88 500 300 C497.36 300 494.72 300 492 300 C492 289.44 492 278.88 492 268 C489.36 268 486.72 268 484 268 C484 260.41 484 252.82 484 245 C481.36 245 478.72 245 476 245 C476 234.44 476 223.88 476 213 C473.69 213 471.38 213 469 213 C469 220.92 469 228.84 469 237 C466.36 237 463.72 237 461 237 C461 247.23 461 257.46 461 268 C458.36 268 455.72 268 453 268 C453 278.56 453 289.12 453 300 C450.36 300 447.72 300 445 300 C445 307.92 445 315.84 445 324 C442.36 324 439.72 324 437 324 C437 328.95 437 333.9 437 339 C431.72 339 426.44 339 421 339 C421 336.69 421 334.38 421 332 C412.75 332 404.5 332 396 332 C396 334.31 396 336.62 396 339 C390.59249197 339.16860231 385.18482385 339.32904957 379.77685547 339.48217773 C377.93987637 339.53531349 376.10295858 339.59061766 374.26611328 339.64819336 C371.61504332 339.73090444 368.96384558 339.80563107 366.3125 339.87890625 C365.50071289 339.90594131 364.68892578 339.93297638 363.85253906 339.96083069 C358.78509158 340.09135645 354.01595487 339.7448693 349 339 C349 334.05 349 329.1 349 324 C346.36 324 343.72 324 341 324 C341 313.44 341 302.88 341 292 C338.36 292 335.72 292 333 292 C333 284.08 333 276.16 333 268 C330.36 268 327.72 268 325 268 C325 260.41 325 252.82 325 245 C322.36 245 319.72 245 317 245 C317 237.08 317 229.16 317 221 C314.36 221 311.72 221 309 221 C309 213.08 309 205.16 309 197 C306.36 197 303.72 197 301 197 C301 189.08 301 181.16 301 173 C298.36 173 295.72 173 293 173 C293 165.08 293 157.16 293 149 C290.36 149 287.72 149 285 149 C285 138.77 285 128.54 285 118 C282.69 118 280.38 118 278 118 C277 117 277 117 276.88647461 114.77514648 C276.89171143 113.81680908 276.89694824 112.85847168 276.90234375 111.87109375 C276.90556641 110.83662109 276.90878906 109.80214844 276.91210938 108.73632812 C276.92048828 107.64771484 276.92886719 106.55910156 276.9375 105.4375 C276.94201172 104.34501953 276.94652344 103.25253906 276.95117188 102.12695312 C276.96300174 99.41791505 276.97948457 96.70898401 277 94 C274.36 94 271.72 94 269 94 C269 88.72 269 83.44 269 78 C245.57 78 222.14 78 198 78 C198 75.36 198 72.72 198 70 C195.69 70 193.38 70 191 70 C191.00037972 70.55172601 191.00075944 71.10345202 191.00115067 71.67189699 C191.02352944 104.37269583 191.04068692 137.07349274 191.05106533 169.77429751 C191.05231603 173.70085005 191.05361036 177.62740257 191.05493164 181.55395508 C191.05532511 182.72651242 191.05532511 182.72651242 191.05572652 183.9227578 C191.06007765 196.57949005 191.06796215 209.23621776 191.0771528 221.89294732 C191.08650479 234.88021336 191.09205889 247.86747702 191.09408849 260.85474628 C191.0954605 268.86836653 191.09979371 276.88197394 191.10791647 284.89559024 C191.11382798 291.04075195 191.11445503 297.18590387 191.11310768 303.33106804 C191.11338307 305.85178074 191.1153758 308.37249393 191.11920547 310.89320374 C191.12417528 314.3327155 191.12298607 317.77217216 191.12025452 321.21168518 C191.12462378 322.71024303 191.12462378 322.71024303 191.12908131 324.23907477 C191.12709026 325.16566175 191.12509921 326.09224873 191.12304783 327.0469141 C191.12342755 327.84014987 191.12380727 328.63338564 191.1241985 329.45065886 C190.96823801 332.65195765 190.45326896 335.82711726 190 339 C156.01 339 122.02 339 87 339 C87 336.36 87 333.72 87 331 C84.36 331 81.72 331 79 331 C79 247.51 79 164.02 79 78 C52.93 78 26.86 78 0 78 C0 52.26 0 26.52 0 0 Z " fill="#FBFFFA" transform="translate(0,0)"/>
<path d="M0 0 C47.52 0 95.04 0 144 0 C144 1.98 144 3.96 144 6 C149.28 6 154.56 6 160 6 C160 8.64 160 11.28 160 14 C165.28 14 170.56 14 176 14 C176 18.95 176 23.9 176 29 C178.31 29 180.62 29 183 29 C184 30 184 30 184.0625 33.5625 C184.041875 34.696875 184.02125 35.83125 184 37 C186.31 37 188.62 37 191 37 C191 39.64 191 42.28 191 45 C193.64 45 196.28 45 199 45 C199 50.28 199 55.56 199 61 C201.64 61 204.28 61 207 61 C207 66.28 207 71.56 207 77 C209.64 77 212.28 77 215 77 C215 84.92 215 92.84 215 101 C217.64 101 220.28 101 223 101 C223 143.24 223 185.48 223 229 C220.36 229 217.72 229 215 229 C215 236.59 215 244.18 215 252 C212.36 252 209.72 252 207 252 C207 257.28 207 262.56 207 268 C204.36 268 201.72 268 199 268 C199 273.28 199 278.56 199 284 C196.36 284 193.72 284 191 284 C191 286.64 191 289.28 191 292 C188.69 292 186.38 292 184 292 C184 294.64 184 297.28 184 300 C181.36 300 178.72 300 176 300 C176 302.64 176 305.28 176 308 C173.36 308 170.72 308 168 308 C168 310.64 168 313.28 168 316 C165.36 316 162.72 316 160 316 C160 318.64 160 321.28 160 324 C152.08 324 144.16 324 136 324 C136 326.64 136 329.28 136 332 C130.72 332 125.44 332 120 332 C120 334.64 120 337.28 120 340 C88.32 340 56.64 340 24 340 C24 337.36 24 334.72 24 332 C16.08 332 8.16 332 0 332 C0 329.36 0 326.72 0 324 C-5.28 324 -10.56 324 -16 324 C-16 321.36 -16 318.72 -16 316 C-18.64 316 -21.28 316 -24 316 C-24 313.36 -24 310.72 -24 308 C-26.64 308 -29.28 308 -32 308 C-32 305.36 -32 302.72 -32 300 C-34.64 300 -37.28 300 -40 300 C-40 297.36 -40 294.72 -40 292 C-42.64 292 -45.28 292 -48 292 C-48 289.36 -48 286.72 -48 284 C-50.31 284 -52.62 284 -55 284 C-55 278.39 -55 272.78 -55 267 C-57.64 267 -60.28 267 -63 267 C-63 256.77 -63 246.54 -63 236 C-65.64 236 -68.28 236 -71 236 C-71 233.36 -71 230.72 -71 228 C-37.01 228 -3.02 228 32 228 C32.495 235.92 32.495 235.92 33 244 C35.64 244 38.28 244 41 244 C41 249.28 41 254.56 41 260 C56.18 260 71.36 260 87 260 C87 257.36 87 254.72 87 252 C92.28 252 97.56 252 103 252 C103 246.72 103 241.44 103 236 C105.64 236 108.28 236 111 236 C111 228.08 111 220.16 111 212 C113.64 212 116.28 212 119 212 C119 207.05 119 202.1 119 197 C116.69 197 114.38 197 112 197 C112 199.64 112 202.28 112 205 C109.36 205 106.72 205 104 205 C104 207.64 104 210.28 104 213 C98.72 213 93.44 213 88 213 C88 215.64 88 218.28 88 221 C61.6 221 35.2 221 8 221 C8 218.36 8 215.72 8 213 C0.08 213 -7.84 213 -16 213 C-16 210.36 -16 207.72 -16 205 C-18.64 205 -21.28 205 -24 205 C-24 202.36 -24 199.72 -24 197 C-29.28 197 -34.56 197 -40 197 C-40 194.36 -40 191.72 -40 189 C-42.64 189 -45.28 189 -48 189 C-48 183.72 -48 178.44 -48 173 C-50.31 173 -52.62 173 -55 173 C-55 167.72 -55 162.44 -55 157 C-57.64 157 -60.28 157 -63 157 C-63 151.72 -63 146.44 -63 141 C-65.64 141 -68.28 141 -71 141 C-71 122.52 -71 104.04 -71 85 C-68.36 85 -65.72 85 -63 85 C-63 77.08 -63 69.16 -63 61 C-60.36 61 -57.72 61 -55 61 C-55 55.72 -55 50.44 -55 45 C-52.69 45 -50.38 45 -48 45 C-48.0309375 43.2984375 -48.0309375 43.2984375 -48.0625 41.5625 C-48 38 -48 38 -47 37 C-44.69 37 -42.38 37 -40 37 C-39.67 32.05 -39.34 27.1 -39 22 C-33.64210878 21.23458697 -29.29481709 20.90710847 -24 21 C-24 18.69 -24 16.38 -24 14 C-21.36 14 -18.72 14 -16 14 C-16 11.36 -16 8.72 -16 6 C-10.72 6 -5.44 6 0 6 C0 4.02 0 2.04 0 0 Z M64 62 C64 64.64 64 67.28 64 70 C56.41 70 48.82 70 41 70 C41 75.28 41 80.56 41 86 C38.36 86 35.72 86 33 86 C33 98.87 33 111.74 33 125 C35.64 125 38.28 125 41 125 C41 129.95 41 134.9 41 140 C43.31 140.33 45.62 140.66 48 141 C48.33 143.31 48.66 145.62 49 148 C64.18 148 79.36 148 95 148 C95 145.36 95 142.72 95 140 C97.64 140 100.28 140 103 140 C103 137.69 103 135.38 103 133 C105.64 133 108.28 133 111 133 C111 117.49 111 101.98 111 86 C108.36 86 105.72 86 103 86 C103 80.72 103 75.44 103 70 C97.72 70 92.44 70 87 70 C87 67.36 87 64.72 87 62 C79.41 62 71.82 62 64 62 Z " fill="#FBFFFA" transform="translate(1047,0)"/>
<path d="M0 0 C47.19 0 94.38 0 143 0 C143 1.98 143 3.96 143 6 C148.28 6 153.56 6 159 6 C159 8.64 159 11.28 159 14 C164.28 14 169.56 14 175 14 C175 16.31 175 18.62 175 21 C177.64 21 180.28 21 183 21 C183 23.64 183 26.28 183 29 C185.64 29 188.28 29 191 29 C191 31.64 191 34.28 191 37 C193.64 37 196.28 37 199 37 C199 42.28 199 47.56 199 53 C201.64 53 204.28 53 207 53 C207 58.28 207 63.56 207 69 C209.64 69 212.28 69 215 69 C215 74.28 215 79.56 215 85 C217.31 85 219.62 85 222 85 C222 135.16 222 185.32 222 237 C219.69 237 217.38 237 215 237 C215 244.59 215 252.18 215 260 C212.36 260 209.72 260 207 260 C207 265.28 207 270.56 207 276 C204.36 276 201.72 276 199 276 C199 278.64 199 281.28 199 284 C196.36 284 193.72 284 191 284 C191.020625 285.175625 191.04125 286.35125 191.0625 287.5625 C191.06947261 291.47413467 190.64250343 295.14497944 190 299 C184.91913204 299.84681133 180.15171623 300.09038099 175 300 C175 302.64 175 305.28 175 308 C172.36 308 169.72 308 167 308 C167 310.64 167 313.28 167 316 C164.36 316 161.72 316 159 316 C159 318.64 159 321.28 159 324 C153.72 324 148.44 324 143 324 C143 326.64 143 329.28 143 332 C135.08 332 127.16 332 119 332 C119 334.64 119 337.28 119 340 C89.96 340 60.92 340 31 340 C31 337.36 31 334.72 31 332 C23.08 332 15.16 332 7 332 C7 329.36 7 326.72 7 324 C-0.59 324 -8.18 324 -16 324 C-16 321.36 -16 318.72 -16 316 C-18.64 316 -21.28 316 -24 316 C-24 313.36 -24 310.72 -24 308 C-26.64 308 -29.28 308 -32 308 C-32 305.36 -32 302.72 -32 300 C-34.64 300 -37.28 300 -40 300 C-40 297.36 -40 294.72 -40 292 C-42.64 292 -45.28 292 -48 292 C-48 286.72 -48 281.44 -48 276 C-50.64 276 -53.28 276 -56 276 C-56 268.08 -56 260.16 -56 252 C-58.64 252 -61.28 252 -64 252 C-64 244.08 -64 236.16 -64 228 C-32.32 228 -0.64 228 32 228 C32 230.64 32 233.28 32 236 C34.64 236 37.28 236 40 236 C40 241.28 40 246.56 40 252 C42.64 252 45.28 252 48 252 C48 254.64 48 257.28 48 260 C63.51 260 79.02 260 95 260 C95 257.36 95 254.72 95 252 C97.64 252 100.28 252 103 252 C103 249.36 103 246.72 103 244 C105.64 244 108.28 244 111 244 C111 238.72 111 233.44 111 228 C113.64 228 116.28 228 119 228 C119 217.77 119 207.54 119 197 C116.69 197 114.38 197 112 197 C112 199.64 112 202.28 112 205 C109.36 205 106.72 205 104 205 C104 207.64 104 210.28 104 213 C98.72 213 93.44 213 88 213 C88 215.64 88 218.28 88 221 C61.27 221 34.54 221 7 221 C7 218.36 7 215.72 7 213 C2.05 213 -2.9 213 -8 213 C-8 210.36 -8 207.72 -8 205 C-13.28 205 -18.56 205 -24 205 C-24 202.36 -24 199.72 -24 197 C-26.64 197 -29.28 197 -32 197 C-32 194.36 -32 191.72 -32 189 C-34.64 189 -37.28 189 -40 189 C-40 186.36 -40 183.72 -40 181 C-42.64 181 -45.28 181 -48 181 C-48 175.72 -48 170.44 -48 165 C-50.64 165 -53.28 165 -56 165 C-56 159.72 -56 154.44 -56 149 C-58.64 149 -61.28 149 -64 149 C-64 122.6 -64 96.2 -64 69 C-61.36 69 -58.72 69 -56 69 C-56 63.72 -56 58.44 -56 53 C-53.36 53 -50.72 53 -48 53 C-48 47.72 -48 42.44 -48 37 C-45.36 37 -42.72 37 -40 37 C-40 34.36 -40 31.72 -40 29 C-37.36 29 -34.72 29 -32 29 C-32 26.36 -32 23.72 -32 21 C-29.36 21 -26.72 21 -24 21 C-24 18.69 -24 16.38 -24 14 C-18.72 14 -13.44 14 -8 14 C-8 11.36 -8 8.72 -8 6 C-5.36 6 -2.72 6 0 6 C0 4.02 0 2.04 0 0 Z M64 62 C64 64.64 64 67.28 64 70 C58.72 70 53.44 70 48 70 C48 72.64 48 75.28 48 78 C45.36 78 42.72 78 40 78 C40 85.92 40 93.84 40 102 C37.36 102 34.72 102 32 102 C32 106.95 32 111.9 32 117 C34.64 117 37.28 117 40 117 C40 124.59 40 132.18 40 140 C44.95 140.33 49.9 140.66 55 141 C55.33 143.31 55.66 145.62 56 148 C68.87 148 81.74 148 95 148 C95 145.36 95 142.72 95 140 C100.28 140 105.56 140 111 140 C111 119.54 111 99.08 111 78 C108.36 78 105.72 78 103 78 C103 75.36 103 72.72 103 70 C97.72 70 92.44 70 87 70 C87 67.36 87 64.72 87 62 C79.41 62 71.82 62 64 62 Z " fill="#FBFFFA" transform="translate(1365,0)"/>
<path d="M0 0 C29.37 0 58.74 0 89 0 C89 2.64 89 5.28 89 8 C96.59 8 104.18 8 112 8 C112 10.64 112 13.28 112 16 C117.28 16 122.56 16 128 16 C128 18.64 128 21.28 128 24 C130.64 24 133.28 24 136 24 C136 26.64 136 29.28 136 32 C138.64 32 141.28 32 144 32 C144 34.64 144 37.28 144 40 C146.64 40 149.28 40 152 40 C152 42.64 152 45.28 152 48 C154.64 48 157.28 48 160 48 C160 52.95 160 57.9 160 63 C162.64 63 165.28 63 168 63 C168 65.64 168 68.28 168 71 C170.64 71 173.28 71 176 71 C176 78.92 176 86.84 176 95 C178.64 95 181.28 95 184 95 C184 119.09 184 143.18 184 168 C181.36 168 178.72 168 176 168 C176 175.59 176 183.18 176 191 C173.36 191 170.72 191 168 191 C168 193.64 168 196.28 168 199 C165.36 199 162.72 199 160 199 C160 204.28 160 209.56 160 215 C157.36 215 154.72 215 152 215 C152 217.64 152 220.28 152 223 C149.36 223 146.72 223 144 223 C144 225.64 144 228.28 144 231 C141.36 231 138.72 231 136 231 C136 233.64 136 236.28 136 239 C133.36 239 130.72 239 128 239 C128 241.64 128 244.28 128 247 C120.08 247 112.16 247 104 247 C104 249.64 104 252.28 104 255 C99.05 255 94.1 255 89 255 C89 257.64 89 260.28 89 263 C59.63 263 30.26 263 0 263 C0 260.36 0 257.72 0 255 C-7.59 255 -15.18 255 -23 255 C-23 252.36 -23 249.72 -23 247 C-28.28 247 -33.56 247 -39 247 C-39 244.36 -39 241.72 -39 239 C-41.64 239 -44.28 239 -47 239 C-47 236.36 -47 233.72 -47 231 C-49.64 231 -52.28 231 -55 231 C-55 228.36 -55 225.72 -55 223 C-57.64 223 -60.28 223 -63 223 C-63 220.36 -63 217.72 -63 215 C-65.64 215 -68.28 215 -71 215 C-71 212.36 -71 209.72 -71 207 C-73.64 207 -76.28 207 -79 207 C-79 201.72 -79 196.44 -79 191 C-81.64 191 -84.28 191 -87 191 C-87 183.41 -87 175.82 -87 168 C-89.64 168 -92.28 168 -95 168 C-95 144.24 -95 120.48 -95 96 C-92.36 96 -89.72 96 -87 96 C-87 87.75 -87 79.5 -87 71 C-84.36 71 -81.72 71 -79 71 C-79 66.05 -79 61.1 -79 56 C-76.36 56 -73.72 56 -71 56 C-71 53.36 -71 50.72 -71 48 C-68.36 48 -65.72 48 -63 48 C-63 45.36 -63 42.72 -63 40 C-60.36 40 -57.72 40 -55 40 C-55 37.36 -55 34.72 -55 32 C-52.36 32 -49.72 32 -47 32 C-47 29.36 -47 26.72 -47 24 C-41.72 24 -36.44 24 -31 24 C-31 21.36 -31 18.72 -31 16 C-28.36 16 -25.72 16 -23 16 C-23 13.36 -23 10.72 -23 8 C-15.41 8 -7.82 8 0 8 C0 5.36 0 2.72 0 0 Z M17 72 C17 74.64 17 77.28 17 80 C14.36 80 11.72 80 9 80 C9 85.28 9 90.56 9 96 C6.36 96 3.72 96 1 96 C1 119.43 1 142.86 1 167 C3.64 167 6.28 167 9 167 C9 172.28 9 177.56 9 183 C11.64 183 14.28 183 17 183 C17 185.31 17 187.62 17 190 C35.15 190 53.3 190 72 190 C72 185.05 72 180.1 72 175 C74.64 175 77.28 175 80 175 C80 169.72 80 164.44 80 159 C82.64 159 85.28 159 88 159 C88 138.21 88 117.42 88 96 C85.36 96 82.72 96 80 96 C80 93.36 80 90.72 80 88 C77.36 88 74.72 88 72 88 C72 82.72 72 77.44 72 72 C53.85 72 35.7 72 17 72 Z " fill="#FBFFFA" transform="translate(769,77)"/>
<path d="M0 0 C13.53 0 27.06 0 41 0 C41 2.64 41 5.28 41 8 C43.64 8 46.28 8 49 8 C49 10.64 49 13.28 49 16 C51.64 16 54.28 16 57 16 C57 18.64 57 21.28 57 24 C59.31 24 61.62 24 64 24 C64 21.36 64 18.72 64 16 C74.56 16 85.12 16 96 16 C96 18.64 96 21.28 96 24 C98.64 24 101.28 24 104 24 C104 21.36 104 18.72 104 16 C117.2 16 130.4 16 144 16 C144 18.64 144 21.28 144 24 C146.31 24 148.62 24 151 24 C151 21.36 151 18.72 151 16 C159.25 16 167.5 16 176 16 C176 18.64 176 21.28 176 24 C178.31 24 180.62 24 183 24 C183 21.36 183 18.72 183 16 C196.2 16 209.4 16 223 16 C223 18.64 223 21.28 223 24 C225.31 24 227.62 24 230 24 C230 21.36 230 18.72 230 16 C238.25 16 246.5 16 255 16 C255 18.64 255 21.28 255 24 C257.64 24 260.28 24 263 24 C263 26.64 263 29.28 263 32 C265.31 32 267.62 32 270 32 C270 29.36 270 26.72 270 24 C272.64 24 275.28 24 278 24 C278 21.36 278 18.72 278 16 C282.53897705 15.97534608 287.07791543 15.95716211 291.61694336 15.94506836 C293.16219766 15.9400286 294.70744716 15.9331968 296.25268555 15.92456055 C298.46925029 15.91247924 300.68575218 15.90676827 302.90234375 15.90234375 C303.5971434 15.89718246 304.29194305 15.89202118 305.00779724 15.88670349 C306.6722933 15.88650723 308.33665499 15.93810871 310 16 C311 17 311 17 311.09765625 20.37890625 C311.09098369 21.77347077 311.07902532 23.16801743 311.0625 24.5625 C311.05798828 25.27341797 311.05347656 25.98433594 311.04882812 26.71679688 C311.03700864 28.47790013 311.01907263 30.23896036 311 32 C313.31 32 315.62 32 318 32 C318 26.72 318 21.44 318 16 C328.56 16 339.12 16 350 16 C350 18.64 350 21.28 350 24 C352.31 24 354.62 24 357 24 C357 21.36 357 18.72 357 16 C367.89 16 378.78 16 390 16 C390 21.28 390 26.56 390 32 C392.31 32 394.62 32 397 32 C397 29.36 397 26.72 397 24 C399.64 24 402.28 24 405 24 C405 21.36 405 18.72 405 16 C415.89 16 426.78 16 438 16 C438 21.28 438 26.56 438 32 C440.64 32 443.28 32 446 32 C446 42.56 446 53.12 446 64 C443.36 64 440.72 64 438 64 C438 66.64 438 69.28 438 72 C435.36 72 432.72 72 430 72 C430 73.98 430 75.96 430 78 C424.39 78 418.78 78 413 78 C413 76.02 413 74.04 413 72 C407.72 72 402.44 72 397 72 C397 69.36 397 66.72 397 64 C394.69 64 392.38 64 390 64 C390 66.64 390 69.28 390 72 C387.36 72 384.72 72 382 72 C382 73.98 382 75.96 382 78 C376.39 78 370.78 78 365 78 C365 76.02 365 74.04 365 72 C360.05 72 355.1 72 350 72 C350 67.05 350 62.1 350 57 C347.36 57 344.72 57 342 57 C342 49.08 342 41.16 342 33 C339.69 33 337.38 33 335 33 C335 45.87 335 58.74 335 72 C329.39 72 323.78 72 318 72 C318 69.36 318 66.72 318 64 C315.69 64 313.38 64 311 64 C311 66.64 311 69.28 311 72 C308.36 72 305.72 72 303 72 C303 73.98 303 75.96 303 78 C297.39 78 291.78 78 286 78 C286 76.02 286 74.04 286 72 C280.72 72 275.44 72 270 72 C270 69.36 270 66.72 270 64 C267.69 64 265.38 64 263 64 C263 66.64 263 69.28 263 72 C257.39 72 251.78 72 246 72 C246 59.13 246 46.26 246 33 C243.69 33 241.38 33 239 33 C239 45.87 239 58.74 239 72 C231.08 72 223.16 72 215 72 C215 59.13 215 46.26 215 33 C212.69 33 210.38 33 208 33 C208 45.87 208 58.74 208 72 C202.39 72 196.78 72 191 72 C191 56.49 191 40.98 191 25 C188.69 25 186.38 25 184 25 C184 40.51 184 56.02 184 72 C178.39 72 172.78 72 167 72 C167 59.13 167 46.26 167 33 C164.69 33 162.38 33 160 33 C160 35.64 160 38.28 160 41 C157.36 41 154.72 41 152 41 C152 51.23 152 61.46 152 72 C146.39 72 140.78 72 135 72 C135 59.13 135 46.26 135 33 C132.69 33 130.38 33 128 33 C128 35.64 128 38.28 128 41 C125.36 41 122.72 41 120 41 C120 51.23 120 61.46 120 72 C114.72 72 109.44 72 104 72 C104 69.36 104 66.72 104 64 C101.36 64 98.72 64 96 64 C96 66.64 96 69.28 96 72 C93.69 72 91.38 72 89 72 C89 73.98 89 75.96 89 78 C83.39 78 77.78 78 72 78 C72 76.02 72 74.04 72 72 C66.72 72 61.44 72 56 72 C56 67.05 56 62.1 56 57 C53.69 57 51.38 57 49 57 C49 61.95 49 66.9 49 72 C43.72 72 38.44 72 33 72 C33 73.98 33 75.96 33 78 C27.39 78 21.78 78 16 78 C16 76.02 16 74.04 16 72 C10.72 72 5.44 72 0 72 C0 69.36 0 66.72 0 64 C-2.64 64 -5.28 64 -8 64 C-8 59.05 -8 54.1 -8 49 C-10.31 49 -12.62 49 -15 49 C-16 48 -16 48 -16.11352539 45.68334961 C-16.10828857 44.68311768 -16.10305176 43.68288574 -16.09765625 42.65234375 C-16.09443359 41.57275391 -16.09121094 40.49316406 -16.08789062 39.38085938 C-16.07951172 38.24455078 -16.07113281 37.10824219 -16.0625 35.9375 C-16.05798828 34.79732422 -16.05347656 33.65714844 -16.04882812 32.48242188 C-16.03699747 29.65489649 -16.0205141 26.8274736 -16 24 C-13.36 24 -10.72 24 -8 24 C-8 18.72 -8 13.44 -8 8 C-5.36 8 -2.72 8 0 8 C0 5.36 0 2.72 0 0 Z M9 17 C9 29.87 9 42.74 9 56 C19.23 56 29.46 56 40 56 C40 53.36 40 50.72 40 48 C42.64 48 45.28 48 48 48 C48 43.05 48 38.1 48 33 C45.36 33 42.72 33 40 33 C40 30.36 40 27.72 40 25 C37.36 25 34.72 25 32 25 C32 22.36 32 19.72 32 17 C24.41 17 16.82 17 9 17 Z M49 25 C49 27.31 49 29.62 49 32 C51.31 32 53.62 32 56 32 C56 29.69 56 27.38 56 25 C53.69 25 51.38 25 49 25 Z M73 33 C73 35.64 73 38.28 73 41 C70.36 41 67.72 41 65 41 C65 43.31 65 45.62 65 48 C67.64 48 70.28 48 73 48 C73 50.64 73 53.28 73 56 C77.95 56 82.9 56 88 56 C88 48.41 88 40.82 88 33 C83.05 33 78.1 33 73 33 Z M287 33 C287 35.31 287 37.62 287 40 C289.31 40 291.62 40 294 40 C294 37.69 294 35.38 294 33 C291.69 33 289.38 33 287 33 Z M366 33 C366 35.64 366 38.28 366 41 C363.36 41 360.72 41 358 41 C358 45.95 358 50.9 358 56 C365.59 56 373.18 56 381 56 C381 53.36 381 50.72 381 48 C383.64 48 386.28 48 389 48 C389 45.69 389 43.38 389 41 C386.36 41 383.72 41 381 41 C381 38.36 381 35.72 381 33 C376.05 33 371.1 33 366 33 Z M414 33 C414 35.31 414 37.62 414 40 C418.95 40 423.9 40 429 40 C429 37.69 429 35.38 429 33 C424.05 33 419.1 33 414 33 Z M279 49 C279 51.31 279 53.62 279 56 C281.64 56 284.28 56 287 56 C287 58.64 287 61.28 287 64 C289.31 64 291.62 64 294 64 C294 61.36 294 58.72 294 56 C296.64 56 299.28 56 302 56 C302 53.69 302 51.38 302 49 C294.41 49 286.82 49 279 49 Z M311 49 C311 51.31 311 53.62 311 56 C313.31 56 315.62 56 318 56 C318 53.69 318 51.38 318 49 C315.69 49 313.38 49 311 49 Z M414 49 C414 51.31 414 53.62 414 56 C418.95 56 423.9 56 429 56 C429 53.69 429 51.38 429 49 C424.05 49 419.1 49 414 49 Z " fill="#FBFFFA" transform="translate(150,434)"/>
<path d="M0 0 C5.61 0 11.22 0 17 0 C17 26.4 17 52.8 17 80 C9.08 80 1.16 80 -7 80 C-7 81.98 -7 83.96 -7 86 C-12.61 86 -18.22 86 -24 86 C-24 84.02 -24 82.04 -24 80 C-26.64 80 -29.28 80 -32 80 C-32 77.36 -32 74.72 -32 72 C-34.31 72 -36.62 72 -39 72 C-39 74.64 -39 77.28 -39 80 C-44.28 80 -49.56 80 -55 80 C-55 81.98 -55 83.96 -55 86 C-60.28 86 -65.56 86 -71 86 C-71 84.02 -71 82.04 -71 80 C-73.97 80 -76.94 80 -80 80 C-80 77.36 -80 74.72 -80 72 C-82.31 72 -84.62 72 -87 72 C-87 74.64 -87 77.28 -87 80 C-91.95 80 -96.9 80 -102 80 C-102 81.98 -102 83.96 -102 86 C-107.61 86 -113.22 86 -119 86 C-119 84.02 -119 82.04 -119 80 C-121.64 80 -124.28 80 -127 80 C-127 77.36 -127 74.72 -127 72 C-131.95 72 -136.9 72 -142 72 C-142 74.64 -142 77.28 -142 80 C-144.64 80 -147.28 80 -150 80 C-150 81.98 -150 83.96 -150 86 C-155.28 86 -160.56 86 -166 86 C-166 84.02 -166 82.04 -166 80 C-168.64 80 -171.28 80 -174 80 C-174 81.98 -174 83.96 -174 86 C-179.61 86 -185.22 86 -191 86 C-191 84.02 -191 82.04 -191 80 C-193.31 80 -195.62 80 -198 80 C-198 81.98 -198 83.96 -198 86 C-203.28 86 -208.56 86 -214 86 C-214 84.02 -214 82.04 -214 80 C-219.28 80 -224.56 80 -230 80 C-230 75.05 -230 70.1 -230 65 C-232.64 65 -235.28 65 -238 65 C-238 62.03 -238 59.06 -238 56 C-235.36 56 -232.72 56 -230 56 C-230 48.08 -230 40.16 -230 32 C-227.36 32 -224.72 32 -222 32 C-222 29.36 -222 26.72 -222 24 C-214.08 24 -206.16 24 -198 24 C-198 26.64 -198 29.28 -198 32 C-195.69 32 -193.38 32 -191 32 C-191 29.36 -191 26.72 -191 24 C-174.83 24 -158.66 24 -142 24 C-142 26.64 -142 29.28 -142 32 C-137.05 32 -132.1 32 -127 32 C-127 29.36 -127 26.72 -127 24 C-116.44 24 -105.88 24 -95 24 C-95 26.64 -95 29.28 -95 32 C-92.36 32 -89.72 32 -87 32 C-87 34.64 -87 37.28 -87 40 C-84.69 40 -82.38 40 -80 40 C-80 34.72 -80 29.44 -80 24 C-69.11 24 -58.22 24 -47 24 C-47 26.64 -47 29.28 -47 32 C-44.36 32 -41.72 32 -39 32 C-39 34.64 -39 37.28 -39 40 C-36.69 40 -34.38 40 -32 40 C-32 34.72 -32 29.44 -32 24 C-21.44 24 -10.88 24 0 24 C0 16.08 0 8.16 0 0 Z M-214 41 C-214 43.31 -214 45.62 -214 48 C-211.69 48 -209.38 48 -207 48 C-207 45.69 -207 43.38 -207 41 C-209.31 41 -211.62 41 -214 41 Z M-166 41 C-166 43.64 -166 46.28 -166 49 C-168.64 49 -171.28 49 -174 49 C-174 53.95 -174 58.9 -174 64 C-166.41 64 -158.82 64 -151 64 C-151 56.41 -151 48.82 -151 41 C-155.95 41 -160.9 41 -166 41 Z M-118 41 C-118 43.31 -118 45.62 -118 48 C-113.05 48 -108.1 48 -103 48 C-103 45.69 -103 43.38 -103 41 C-107.95 41 -112.9 41 -118 41 Z M-71 41 C-71 43.31 -71 45.62 -71 48 C-66.05 48 -61.1 48 -56 48 C-56 45.69 -56 43.38 -56 41 C-60.95 41 -65.9 41 -71 41 Z M-23 41 C-23 48.59 -23 56.18 -23 64 C-15.41 64 -7.82 64 0 64 C0 58.72 0 53.44 0 48 C-2.64 48 -5.28 48 -8 48 C-8 45.69 -8 43.38 -8 41 C-12.95 41 -17.9 41 -23 41 Z M-198 49 C-198 51.31 -198 53.62 -198 56 C-195.69 56 -193.38 56 -191 56 C-191 53.69 -191 51.38 -191 49 C-193.31 49 -195.62 49 -198 49 Z M-222 57 C-222 59.31 -222 61.62 -222 64 C-219.36 64 -216.72 64 -214 64 C-214 61.69 -214 59.38 -214 57 C-216.64 57 -219.28 57 -222 57 Z M-118 57 C-118 59.31 -118 61.62 -118 64 C-108.1 64 -98.2 64 -88 64 C-88 61.69 -88 59.38 -88 57 C-97.9 57 -107.8 57 -118 57 Z M-71 57 C-71 59.31 -71 61.62 -71 64 C-68.36 64 -65.72 64 -63 64 C-63 66.64 -63 69.28 -63 72 C-60.69 72 -58.38 72 -56 72 C-56 69.36 -56 66.72 -56 64 C-50.72 64 -45.44 64 -40 64 C-40 61.69 -40 59.38 -40 57 C-50.23 57 -60.46 57 -71 57 Z M-214 65 C-214 67.31 -214 69.62 -214 72 C-211.69 72 -209.38 72 -207 72 C-207 69.69 -207 67.38 -207 65 C-209.31 65 -211.62 65 -214 65 Z " fill="#FBFFFA" transform="translate(1087,426)"/>
<path d="M0 0 C7.92 0 15.84 0 24 0 C24 2.64 24 5.28 24 8 C26.64 8 29.28 8 32 8 C32 5.69 32 3.38 32 1 C34.64 1 37.28 1 40 1 C40 13.87 40 26.74 40 40 C42.31 40 44.62 40 47 40 C47 34.72 47 29.44 47 24 C62.84 24 78.68 24 95 24 C95 16.08 95 8.16 95 0 C100.61 0 106.22 0 112 0 C112 7.92 112 15.84 112 24 C119.59 24 127.18 24 135 24 C135 26.64 135 29.28 135 32 C137.64 32 140.28 32 143 32 C143 29.36 143 26.72 143 24 C145.31 24 147.62 24 150 24 C150 21.36 150 18.72 150 16 C155.61 16 161.22 16 167 16 C167 18.64 167 21.28 167 24 C172.28 24 177.56 24 183 24 C183 29.28 183 34.56 183 40 C175.08 40.495 175.08 40.495 167 41 C167 48.59 167 56.18 167 64 C172.28 64 177.56 64 183 64 C183 69.28 183 74.56 183 80 C180.36 80 177.72 80 175 80 C175 81.98 175 83.96 175 86 C169.72 86 164.44 86 159 86 C159 84.02 159 82.04 159 80 C156.03 80 153.06 80 150 80 C150 67.13 150 54.26 150 41 C147.69 41 145.38 41 143 41 C143 53.87 143 66.74 143 80 C137.72 80 132.44 80 127 80 C127 67.13 127 54.26 127 41 C122.05 41 117.1 41 112 41 C112 53.87 112 66.74 112 80 C106.72 80 101.44 80 96 80 C96 81.98 96 83.96 96 86 C87.75 86 79.5 86 71 86 C71 84.02 71 82.04 71 80 C66.05 80 61.1 80 56 80 C56 81.98 56 83.96 56 86 C50.39 86 44.78 86 39 86 C39 84.02 39 82.04 39 80 C26.13 80 13.26 80 0 80 C0 53.6 0 27.2 0 0 Z M56 41 C56 48.59 56 56.18 56 64 C60.95 64 65.9 64 71 64 C71 61.36 71 58.72 71 56 C73.64 56 76.28 56 79 56 C79 53.69 79 51.38 79 49 C76.36 49 73.72 49 71 49 C71 46.36 71 43.72 71 41 C66.05 41 61.1 41 56 41 Z M40 65 C40 69.95 40 74.9 40 80 C42.31 80 44.62 80 47 80 C47 75.05 47 70.1 47 65 C44.69 65 42.38 65 40 65 Z " fill="#FBFFFA" transform="translate(1222,426)"/>
<path d="M0 0 C5.28 0 10.56 0 16 0 C16 7.92 16 15.84 16 24 C23.92 24 31.84 24 40 24 C40 26.64 40 29.28 40 32 C42.64 32 45.28 32 48 32 C48 34.64 48 37.28 48 40 C50.31 40 52.62 40 55 40 C55 34.72 55 29.44 55 24 C65.89 24 76.78 24 88 24 C88 26.64 88 29.28 88 32 C90.64 32 93.28 32 96 32 C96 34.64 96 37.28 96 40 C98.64 40 101.28 40 104 40 C104 50.56 104 61.12 104 72 C101.36 72 98.72 72 96 72 C96 74.64 96 77.28 96 80 C93.36 80 90.72 80 88 80 C88 81.98 88 83.96 88 86 C82.39 86 76.78 86 71 86 C71 84.02 71 82.04 71 80 C65.72 80 60.44 80 55 80 C55 77.36 55 74.72 55 72 C52.69 72 50.38 72 48 72 C48 74.64 48 77.28 48 80 C42.39 80 36.78 80 31 80 C31 67.13 31 54.26 31 41 C26.05 41 21.1 41 16 41 C16 53.87 16 66.74 16 80 C10.72 80 5.44 80 0 80 C0 81.98 0 83.96 0 86 C-5.28 86 -10.56 86 -16 86 C-16 84.02 -16 82.04 -16 80 C-18.64 80 -21.28 80 -24 80 C-24 77.36 -24 74.72 -24 72 C-26.64 72 -29.28 72 -32 72 C-32 53.52 -32 35.04 -32 16 C-23.75 16 -15.5 16 -7 16 C-7 18.64 -7 21.28 -7 24 C-4.69 24 -2.38 24 0 24 C0 16.08 0 8.16 0 0 Z M-7 41 C-7 51.23 -7 61.46 -7 72 C-4.69 72 -2.38 72 0 72 C0 61.77 0 51.54 0 41 C-2.31 41 -4.62 41 -7 41 Z M72 41 C72 43.31 72 45.62 72 48 C74.31 48 76.62 48 79 48 C79 45.69 79 43.38 79 41 C76.69 41 74.38 41 72 41 Z M64 57 C64 59.31 64 61.62 64 64 C66.64 64 69.28 64 72 64 C72 66.64 72 69.28 72 72 C74.31 72 76.62 72 79 72 C79 69.36 79 66.72 79 64 C81.64 64 84.28 64 87 64 C87 61.69 87 59.38 87 57 C79.41 57 71.82 57 64 57 Z " fill="#FBFFFA" transform="translate(738,426)"/>
<path d="M0 0 C8.25 0 16.5 0 25 0 C25 2.64 25 5.28 25 8 C30.28 8 35.56 8 41 8 C41 10.64 41 13.28 41 16 C43.64 16 46.28 16 49 16 C49 21.28 49 26.56 49 32 C51.64 32 54.28 32 57 32 C57 45.2 57 58.4 57 72 C54.36 72 51.72 72 49 72 C49 74.64 49 77.28 49 80 C46.36 80 43.72 80 41 80 C41 82.64 41 85.28 41 88 C35.72 88 30.44 88 25 88 C25 90.64 25 93.28 25 96 C16.75 96 8.5 96 0 96 C0 93.36 0 90.72 0 88 C-5.28 88 -10.56 88 -16 88 C-16 85.36 -16 82.72 -16 80 C-18.64 80 -21.28 80 -24 80 C-24 77.36 -24 74.72 -24 72 C-26.64 72 -29.28 72 -32 72 C-32 56.16 -32 40.32 -32 24 C-29.36 24 -26.72 24 -24 24 C-24 21.36 -24 18.72 -24 16 C-21.36 16 -18.72 16 -16 16 C-16 13.36 -16 10.72 -16 8 C-10.72 8 -5.44 8 0 8 C0 5.36 0 2.72 0 0 Z " fill="#FBFFFA" transform="translate(555,339)"/>
<path d="M0 0 C8.25 0 16.5 0 25 0 C25 2.64 25 5.28 25 8 C30.28 8 35.56 8 41 8 C41 10.64 41 13.28 41 16 C43.64 16 46.28 16 49 16 C49 18.64 49 21.28 49 24 C51.64 24 54.28 24 57 24 C57 39.84 57 55.68 57 72 C54.36 72 51.72 72 49 72 C49 74.64 49 77.28 49 80 C46.36 80 43.72 80 41 80 C41 82.64 41 85.28 41 88 C35.72 88 30.44 88 25 88 C25 90.64 25 93.28 25 96 C16.75 96 8.5 96 0 96 C0 93.36 0 90.72 0 88 C-5.28 88 -10.56 88 -16 88 C-16 85.36 -16 82.72 -16 80 C-18.31 80 -20.62 80 -23 80 C-23 77.36 -23 74.72 -23 72 C-25.64 72 -28.28 72 -31 72 C-31 58.8 -31 45.6 -31 32 C-28.36 32 -25.72 32 -23 32 C-23 26.72 -23 21.44 -23 16 C-20.69 16 -18.38 16 -16 16 C-16 13.36 -16 10.72 -16 8 C-10.72 8 -5.44 8 0 8 C0 5.36 0 2.72 0 0 Z " fill="#FBFFFA" transform="translate(396,339)"/>
<path d="M0 0 C1.00023193 0.00523682 2.00046387 0.01047363 3.03100586 0.01586914 C4.1105957 0.0190918 5.19018555 0.02231445 6.30249023 0.02563477 C8.00695313 0.03820312 8.00695313 0.03820312 9.74584961 0.05102539 C11.45611328 0.05779297 11.45611328 0.05779297 13.20092773 0.06469727 C16.02842379 0.07652779 18.85589306 0.09446389 21.68334961 0.11352539 C21.68334961 5.72352539 21.68334961 11.33352539 21.68334961 17.11352539 C19.04334961 17.11352539 16.40334961 17.11352539 13.68334961 17.11352539 C13.68334961 19.42352539 13.68334961 21.73352539 13.68334961 24.11352539 C16.32334961 24.11352539 18.96334961 24.11352539 21.68334961 24.11352539 C21.68334961 29.72352539 21.68334961 35.33352539 21.68334961 41.11352539 C19.04334961 41.11352539 16.40334961 41.11352539 13.68334961 41.11352539 C13.68334961 53.98352539 13.68334961 66.85352539 13.68334961 80.11352539 C8.07334961 80.11352539 2.46334961 80.11352539 -3.31665039 80.11352539 C-3.31665039 72.52352539 -3.31665039 64.93352539 -3.31665039 57.11352539 C-5.62665039 57.11352539 -7.93665039 57.11352539 -10.31665039 57.11352539 C-10.31665039 62.06352539 -10.31665039 67.01352539 -10.31665039 72.11352539 C-12.95665039 72.11352539 -15.59665039 72.11352539 -18.31665039 72.11352539 C-18.31665039 74.75352539 -18.31665039 77.39352539 -18.31665039 80.11352539 C-20.95665039 80.11352539 -23.59665039 80.11352539 -26.31665039 80.11352539 C-26.31665039 82.09352539 -26.31665039 84.07352539 -26.31665039 86.11352539 C-31.92665039 86.11352539 -37.53665039 86.11352539 -43.31665039 86.11352539 C-43.31665039 84.13352539 -43.31665039 82.15352539 -43.31665039 80.11352539 C-45.95665039 80.11352539 -48.59665039 80.11352539 -51.31665039 80.11352539 C-51.31665039 77.47352539 -51.31665039 74.83352539 -51.31665039 72.11352539 C-53.95665039 72.11352539 -56.59665039 72.11352539 -59.31665039 72.11352539 C-59.31665039 69.80352539 -59.31665039 67.49352539 -59.31665039 65.11352539 C-61.62665039 65.11352539 -63.93665039 65.11352539 -66.31665039 65.11352539 C-66.31665039 56.86352539 -66.31665039 48.61352539 -66.31665039 40.11352539 C-64.00665039 40.11352539 -61.69665039 40.11352539 -59.31665039 40.11352539 C-59.31665039 37.47352539 -59.31665039 34.83352539 -59.31665039 32.11352539 C-56.67665039 32.11352539 -54.03665039 32.11352539 -51.31665039 32.11352539 C-51.31665039 29.47352539 -51.31665039 26.83352539 -51.31665039 24.11352539 C-40.42665039 24.11352539 -29.53665039 24.11352539 -18.31665039 24.11352539 C-18.31665039 26.75352539 -18.31665039 29.39352539 -18.31665039 32.11352539 C-16.00665039 32.11352539 -13.69665039 32.11352539 -11.31665039 32.11352539 C-11.31665039 29.47352539 -11.31665039 26.83352539 -11.31665039 24.11352539 C-8.67665039 24.11352539 -6.03665039 24.11352539 -3.31665039 24.11352539 C-3.32188721 23.42202393 -3.32712402 22.73052246 -3.33251953 22.01806641 C-3.35322539 18.90406187 -3.36629002 15.79007178 -3.37915039 12.67602539 C-3.3875293 11.58741211 -3.3959082 10.49879883 -3.40454102 9.37719727 C-3.40776367 8.34272461 -3.41098633 7.30825195 -3.41430664 6.24243164 C-3.41954346 5.28409424 -3.42478027 4.32575684 -3.43017578 3.33837891 C-3.2737428 0.27262887 -3.06945228 0.15041578 0 0 Z M-42.31665039 41.11352539 C-42.31665039 48.70352539 -42.31665039 56.29352539 -42.31665039 64.11352539 C-37.36665039 64.11352539 -32.41665039 64.11352539 -27.31665039 64.11352539 C-27.31665039 56.52352539 -27.31665039 48.93352539 -27.31665039 41.11352539 C-32.26665039 41.11352539 -37.21665039 41.11352539 -42.31665039 41.11352539 Z M-10.31665039 41.11352539 C-10.31665039 43.42352539 -10.31665039 45.73352539 -10.31665039 48.11352539 C-8.00665039 48.11352539 -5.69665039 48.11352539 -3.31665039 48.11352539 C-3.31665039 45.80352539 -3.31665039 43.49352539 -3.31665039 41.11352539 C-5.62665039 41.11352539 -7.93665039 41.11352539 -10.31665039 41.11352539 Z " fill="#FBFFFA" transform="translate(1185.316650390625,425.886474609375)"/>
<path d="M0 0 C8.25 0 16.5 0 25 0 C25 2.64 25 5.28 25 8 C27.64 8 30.28 8 33 8 C33 13.61 33 19.22 33 25 C30.36 25 27.72 25 25 25 C25 32.59 25 40.18 25 48 C27.64 48 30.28 48 33 48 C33 55.26 33 62.52 33 70 C27.39 70 21.78 70 16 70 C16 68.02 16 66.04 16 64 C13.36 64 10.72 64 8 64 C8 61.36 8 58.72 8 56 C5.69 56 3.38 56 1 56 C1 58.64 1 61.28 1 64 C-4.28 64 -9.56 64 -15 64 C-15 65.98 -15 67.96 -15 70 C-20.28 70 -25.56 70 -31 70 C-31 68.02 -31 66.04 -31 64 C-36.28 64 -41.56 64 -47 64 C-47 56.08 -47 48.16 -47 40 C-44.36 40 -41.72 40 -39 40 C-39 37.69 -39 35.38 -39 33 C-41.64 33 -44.28 33 -47 33 C-47 27.39 -47 21.78 -47 16 C-44.36 16 -41.72 16 -39 16 C-39 13.36 -39 10.72 -39 8 C-28.44 8 -17.88 8 -7 8 C-7 10.64 -7 13.28 -7 16 C-4.69 16 -2.38 16 0 16 C0 10.72 0 5.44 0 0 Z M-31 25 C-31 27.31 -31 29.62 -31 32 C-26.05 32 -21.1 32 -16 32 C-16 29.69 -16 27.38 -16 25 C-20.95 25 -25.9 25 -31 25 Z M-31 41 C-31 45.95 -31 50.9 -31 56 C-28.69 56 -26.38 56 -24 56 C-24 53.36 -24 50.72 -24 48 C-21.36 48 -18.72 48 -16 48 C-16 45.69 -16 43.38 -16 41 C-20.95 41 -25.9 41 -31 41 Z " fill="#FBFFFA" transform="translate(658,442)"/>
</svg>
